<?xml version="1.0" encoding="UTF-8" standalone="no"?>
<svg
   version="1.1"
   viewBox="0 0 375 430"
   width="375"
   height="430"
   id="svg2614"
   sodipodi:docname="kraken_segmodel.svg"
   inkscape:version="1.1.1 (3bf5ae0d25, 2021-09-20)"
   xmlns:inkscape="http://www.inkscape.org/namespaces/inkscape"
   xmlns:sodipodi="http://sodipodi.sourceforge.net/DTD/sodipodi-0.dtd"
   xmlns:xlink="http://www.w3.org/1999/xlink"
   xmlns="http://www.w3.org/2000/svg"
   xmlns:svg="http://www.w3.org/2000/svg">
  <sodipodi:namedview
     id="namedview2616"
     pagecolor="#ffffff"
     bordercolor="#666666"
     borderopacity="1.0"
     inkscape:pageshadow="2"
     inkscape:pageopacity="0.0"
     inkscape:pagecheckerboard="0"
     showgrid="false"
     inkscape:zoom="1.4323023"
     inkscape:cx="143.47529"
     inkscape:cy="215.0384"
     inkscape:window-width="958"
     inkscape:window-height="1041"
     inkscape:window-x="960"
     inkscape:window-y="18"
     inkscape:window-maximized="1"
     inkscape:current-layer="svg2614" />
  <!-- svg-source:excalidraw -->
  <defs
     id="defs2554">
    <style
       id="style2552">
      @font-face {
        font-family: &quot;Virgil&quot;;
        src: url(&quot;https://excalidraw.com/Virgil.woff2&quot;);
      }
      @font-face {
        font-family: &quot;Cascadia&quot;;
        src: url(&quot;https://excalidraw.com/Cascadia.woff2&quot;);
      }
    </style>
  </defs>
  <g
     stroke-linecap="round"
     transform="translate(10 65) rotate(0 177.5 177.5)"
     id="g2558">
    <path
       d="M-0.63 -0.14 C128.78 -0.42, 255.79 -0.44, 355.11 1.28 M0.2 -0.14 C110.38 1.82, 221.24 1.93, 355.03 -0.03 M355.96 -0.68 C356.22 139.93, 357.02 281.25, 353.83 355.79 M354.84 -0.59 C354.51 91.31, 354.87 182.81, 354.5 355.13 M354.43 356 C249.56 352.92, 144.3 354.53, 0.17 356.02 M354.74 355.28 C245.51 352.39, 136.39 353.25, 0.56 355.56 M1.26 354.29 C-0.55 248.23, 0.54 139.15, 0.83 -0.43 M-0.16 355.46 C-1.18 276.36, -1.15 198.2, -0.18 0.25"
       stroke="#000000"
       stroke-width="1"
       fill="none"
       id="path2556" />
  </g>
  <a
     id="a2732"
     xlink:href="http://kraken.re/master/api_docs.html#kraken.lib.vgsl.TorchVGSLModel">
    <g
       transform="translate(87.5 10) rotate(0 95.5 26)"
       id="g2564">
      <text
         x="95.5"
         y="18"
         font-family="Virgil, Segoe UI Emoji"
         font-size="20px"
         fill="#000000"
         text-anchor="middle"
         style="white-space: pre;"
         direction="ltr"
         id="text2560">Segmentation Model</text>
      <text
         x="95.5"
         y="44"
         font-family="Virgil, Segoe UI Emoji"
         font-size="20px"
         fill="#000000"
         text-anchor="middle"
         style="white-space: pre;"
         direction="ltr"
         id="text2562">(TorchVGSLModel)</text>
    </g>
  </a>
  <a
     id="a2758"
     xlink:href="http://kraken.re/master/api_docs.html#kraken.lib.vgsl.TorchVGSLModel.user_metadata">
    <g
       id="g2756">
      <g
         stroke-linecap="round"
         transform="translate(23 162.9999999999999) rotate(0 164.5 115.66666666666669)"
         id="g2578">
        <path
           d="M0.27 0 C116.53 1.84, 234.08 1.66, 328.22 1.15 M-0.43 -0.65 C109.74 0.83, 217.73 1.6, 328.86 0.17 M330.15 -1.37 C329.56 73.04, 329.85 142.53, 327.57 233 M329.38 0.84 C327.21 81.39, 327.53 163.24, 328.95 231.07 M328.61 229.98 C231.93 228.46, 131.19 228.79, 0.14 230.94 M328.97 231.2 C258.17 233.67, 186.66 233.87, -0.41 231.68 M-0.01 232.83 C-0.55 154.91, -0.48 79.22, 0.07 -0.47 M0.44 231.71 C0.41 185.45, 0.07 137.86, -0.47 -0.08"
           stroke="#000000"
           stroke-width="1"
           fill="none"
           id="path2576" />
      </g>
      <g
         transform="translate(137.5 176.4444444444445) rotate(0 50 13)"
         id="g2582">
        <text
           x="0"
           y="18"
           font-family="Virgil, Segoe UI Emoji"
           font-size="20px"
           fill="#000000"
           text-anchor="start"
           style="white-space: pre;"
           direction="ltr"
           id="text2580">Metadata</text>
      </g>
      <g
         stroke-linecap="round"
         transform="translate(31.38888888888897 211.66666666666674) rotate(0 156.11111111111106 23.333333333333343)"
         id="g2588">
        <path
           d="M0 0 C0 0, 0 0, 0 0 M0 0 C0 0, 0 0, 0 0 M0.01 5.9 C1.13 4.78, 2.18 2.29, 4.56 0.48 M-0.26 6.41 C1.71 4.79, 3.31 2.2, 5 0.08 M1 12.46 C2.69 9.88, 5.09 5.52, 10.24 -1.59 M-0.19 11.28 C4.03 7.65, 8.35 2.53, 9.99 0.43 M-0.75 18.78 C3.6 15.39, 9.08 9.59, 16.75 0.09 M0.71 17.66 C3.99 13.83, 8.11 9.52, 15.11 0.89 M-1.28 22.91 C6.83 14.81, 17.96 3.38, 21.26 -0.62 M0.6 23.48 C5.31 18.65, 10.1 12.71, 20.77 -0.16 M1.61 28.63 C7.17 19.63, 15.96 11.25, 27.65 -0.71 M-0.95 30.8 C7.47 21.95, 14.68 13.74, 26.71 -0.14 M1.44 36.78 C12.64 22.65, 23.87 11.17, 30.78 -0.05 M-0.02 36.07 C9.88 25.28, 18.97 14.77, 32.84 0.15 M0.48 43.37 C13.65 29.34, 25.74 15.76, 36.34 1.97 M0.52 41.82 C9.44 32.89, 18.84 21.51, 37.85 -0.6 M2.32 46.22 C10.11 34.47, 20.66 25.57, 41.28 0.31 M0.21 47.99 C9.75 36.45, 18.47 25.71, 43.27 -0.76 M6.95 48.18 C18.85 35.7, 29.85 22.63, 45.75 0.09 M5.93 47 C18.07 32.65, 31.43 18.1, 48.2 0.95 M10.13 46.29 C25.4 30.93, 40.7 14.3, 53.53 -1.66 M11.87 47.68 C21.93 34.72, 31.66 23.41, 53.42 -1.02 M15.11 45.81 C26.65 38.57, 34.96 27.42, 60 -0.08 M17.03 47.03 C29.58 33.3, 41.71 17.86, 58.07 -0.42 M22.45 49.2 C36.2 32.54, 46.21 18.66, 64.52 -0.8 M21.77 48.08 C33.93 33.9, 45.67 22.61, 63.8 0.36 M27.99 46.06 C35.03 37.58, 46.51 29.4, 70.45 -0.01 M27.42 47.5 C38.98 34.32, 50.3 22.53, 69.41 0.93 M33.25 48.85 C48.28 30.38, 62.57 11.44, 73.48 1.3 M33.53 48.16 C47.23 28.98, 63.01 13.26, 75.05 0.46 M39.42 46.75 C52.78 31.18, 67 15.65, 77.68 1.14 M37.44 46.8 C53.57 30.32, 69.13 11.51, 78.81 0.29 M41.74 45.44 C58.09 30.3, 70.66 19.1, 83.84 -1.64 M43.45 46.52 C54.82 34.76, 65.15 21.73, 84.95 -0.5 M47.48 48.96 C61.86 32.02, 70.92 19.93, 89.49 0.46 M48.54 48.46 C65.34 28.59, 80.19 11.88, 90.5 -0.46 M54.34 47.46 C68.17 29.59, 83.67 14.08, 97.26 1.38 M53.45 46.34 C65.09 36.05, 73.66 24.26, 95.45 -0.22 M60.43 47.07 C73.76 28.22, 90.92 14.15, 98.88 1.34 M58.36 48.1 C75.57 30.75, 91.16 12.77, 101.36 0.16 M66.68 45.66 C79.29 31.64, 90.08 16.27, 107.59 0.63 M64.07 46.43 C74.84 34.62, 86.03 22.65, 105.59 -1.28 M70.78 46.72 C78.97 36.3, 89.18 24.6, 110.09 -0.55 M69.64 48.45 C79.42 36.42, 91.24 24.79, 111.89 0.26 M72.97 47.84 C92.03 28.01, 108.14 9.8, 114.29 0.43 M74.88 46.96 C84.77 37.11, 93.48 27.91, 115.94 0.61 M81.24 46.84 C96.41 32.24, 108.92 15.7, 120.57 0.73 M81.28 48.35 C96.69 30.04, 110.91 11.59, 121.26 -0.46 M86.59 49.82 C99.34 32.45, 113.55 18.33, 126.97 2.11 M86.01 47.43 C97.88 34.4, 107.88 21.44, 126.16 0.58 M90.75 45.66 C104.15 35.76, 115.1 21.59, 130.99 -0.58 M91.32 47.75 C108.12 29.42, 124.49 10.19, 132.25 0.33 M98.18 45.94 C103.74 36.36, 113.54 27.27, 139.51 -1.47 M95.3 48.24 C112.35 29.64, 127.84 10.71, 138.08 0.13 M100.46 46.66 C114.34 33.03, 127.03 15.07, 143.24 0.02 M101.94 46.73 C110.86 37.04, 121.04 26.01, 142.3 0.56 M108.26 48.1 C122.48 31.18, 139.91 10.85, 146.65 1.1 M105.86 48.62 C118.91 33.09, 132.32 17.46, 147.32 1.11 M111.75 48.62 C128.72 30.93, 144.78 12.61, 154.42 -0.67 M112.44 46.43 C128.96 28.99, 145.26 9.53, 154.48 0.75 M116.56 48.47 C124.79 38.3, 136.88 26.4, 157.36 -1.5 M116.47 48.43 C127.18 36.95, 137.55 26.69, 159.67 -0.49 M124.2 47.6 C136.38 33.05, 147.25 20.09, 162.86 0.42 M122.3 48.16 C138.88 30.27, 152.79 12.41, 164.52 -0.93 M128.02 49.49 C141.26 30.81, 157.11 12.22, 168.82 -1.3 M128.52 47.12 C142.97 31.33, 156 14.91, 170.03 0.38 M133.63 46.93 C148.16 31.09, 163.29 12.44, 174.1 -1.37 M134.1 48.29 C148.39 29.5, 163.56 11.89, 175.76 0.25 M138.82 45.89 C155.33 33.3, 166.32 16.73, 180.45 -1.06 M139.05 46.77 C148.65 37.45, 157.78 24.62, 179.46 0.93 M146.06 47.24 C157.43 32.48, 170.96 13.58, 186.92 -0.38 M144.59 47.33 C160.62 28.17, 176.42 10.31, 186.21 0.69 M150.35 46.67 C163.92 29.73, 178.04 13.56, 191.85 -0.25 M149.77 47.05 C161.9 31.23, 175.36 16.61, 190.14 -0.56 M155.74 48.43 C167.1 30.34, 182.1 14, 195.28 1.29 M155.65 46.88 C170.93 28.24, 188.41 8.47, 195.51 -0.67 M159.21 49.14 C168.76 36.72, 179.81 25.53, 200.88 -1.08 M159.98 48.25 C168.55 37.57, 178.23 27.03, 200.41 0.33 M167.14 47.67 C175.35 36.92, 187.01 21.59, 206.39 -0.16 M165.3 46.66 C177.47 33.53, 189.19 19.75, 207.92 -1.22 M171.23 48.87 C180.97 33.41, 194.65 21.36, 213.58 1.56 M169.65 48.28 C186.81 29.25, 201.31 11.47, 211.75 -0.91 M176.94 45.43 C188.7 30.86, 200.27 17.05, 218.67 -0.25 M176.7 47.5 C190.01 31.19, 204.49 13.83, 217.38 0.23 M179.45 45.7 C193.18 32.26, 208.04 17.17, 222.25 2.03 M180.4 47.62 C189.94 38.82, 199.13 29.19, 221.76 -0.63 M187.39 48.22 C196.91 35.2, 206.84 25.06, 227.76 -0.22 M186.49 47.09 C194.73 38.13, 203.64 27.28, 228.44 0.47 M190.13 45.78 C205.97 34.64, 219.23 18.79, 231.38 1.98 M192.46 48.41 C207.86 29.24, 224.52 10.42, 233.21 -0.11 M194.93 47.54 C207.88 36.27, 217.38 27.18, 239.86 -0.27 M196.44 47.96 C208.63 34.46, 219.24 22.39, 238.64 -0.32 M200.77 47.52 C210.17 38.53, 223.19 27.77, 243.69 0.34 M201.73 47.36 C218.27 29.07, 232.34 12.41, 242.98 -0.51 M208.24 46.46 C220.49 32.8, 229.71 22.58, 248.35 -0.59 M208.46 47.03 C219.26 33.13, 230.29 20.65, 248.14 -0.63 M214.05 47.62 C228.83 29.31, 245.2 8.38, 254.1 -0.67 M212.74 46.81 C223.98 34.78, 233.4 23.36, 255.13 0.13 M216.89 46.57 C225.46 37.64, 236.22 26.69, 259.88 1.18 M218.29 47.56 C234.18 28.77, 249.74 10.8, 258.76 -0.07 M223.9 47.05 C234.94 34.33, 244.89 19.96, 263.78 -1.55 M223.65 47.71 C235.32 34.57, 246.18 20.09, 265.81 -0.13 M228.64 46.74 C236.77 35.65, 248.81 24.46, 270.95 0.92 M227.79 46.92 C237.25 37.07, 248.25 26.26, 269.63 0.59 M233.46 49.08 C249.76 32.49, 261.04 16.19, 274.09 0.46 M235.27 46.6 C249.26 28.09, 265.29 11.47, 276.36 -0.13 M239.49 49.11 C248.7 37.03, 258.77 29.17, 281.31 -1.19 M239.95 47.59 C250.47 34.17, 261.66 20.8, 281.51 1.21 M245.08 49.25 C261.69 31.15, 276.25 10.86, 284.63 1.42 M244.06 46.66 C256.91 35.75, 267.1 22.99, 286.22 -0.58 M251.67 49.13 C264.72 31.33, 282.62 11.14, 291.9 1.28 M249.93 48.18 C262.88 32.07, 275.84 17.36, 291.81 -0.75 M254.33 45.38 C272.25 29.78, 288.08 14.61, 295.21 0.68 M255.11 46.65 C266.41 35.85, 275.79 23.13, 296 -1.09 M259.61 49.5 C270.15 38.11, 277.34 24.69, 302.88 -0.93 M260.02 48.37 C272.98 32.61, 286.35 17.16, 301.56 0.77 M268.03 47.58 C276.05 36.42, 288.6 25.84, 307.86 -1.15 M267.14 47.96 C276.59 35.46, 285.65 24.48, 308.44 -1.16 M271.97 46.22 C288.43 29.43, 303.11 8.27, 311.66 1.19 M270.64 47.99 C287.15 29.8, 302.75 10.83, 312.45 -0.55 M278.16 48.23 C289.04 34.44, 299.45 19.73, 310.91 6.63 M277.53 47.57 C285.22 37.11, 292.55 28.23, 311.51 5.6 M281.6 46.56 C288.61 41.7, 297.19 33.91, 312.33 13.01 M281.36 47.95 C290.76 38.88, 298.34 30.21, 313.31 11.67 M287.98 48 C295.18 41.05, 298.41 32.9, 314.16 19.68 M287.3 47.08 C295.95 39.03, 302.68 29.84, 312.55 19.41 M291.62 47.08 C301.19 36.83, 308.46 28.37, 312.57 26.77 M291.88 47.28 C298.67 41.04, 304.73 33.35, 311.95 23.99 M297.92 45.83 C303.66 40.58, 308.36 37.81, 310.87 29.2 M298.09 47.72 C301.82 43.59, 305.64 38.28, 313.3 29.81 M301.87 47.6 C304.66 46.19, 307.31 41.56, 311.21 36.87 M303.09 47.95 C306.56 43.3, 309.74 38.9, 313.01 37.28 M307.75 48.55 C309.68 45.26, 311.14 43.62, 312.46 42.03 M308.29 47.96 C309.74 46.64, 310.65 44.57, 312.86 42.32"
           stroke="#82c91e"
           stroke-width="0.5"
           fill="none"
           id="path2584" />
        <path
           d="M-0.55 1.22 C108.65 0.13, 215.8 0.07, 310.94 0.32 M0.59 -0.5 C95.37 -2.1, 189.92 -2.35, 312.19 -0.22 M311.38 1.87 C313.35 11.12, 312.65 23.23, 310.35 45.94 M311.25 -0.96 C311.67 17.89, 312.85 34.38, 311.95 46.34 M311.33 47.61 C245.2 46.78, 177.34 47.06, -0.98 47.34 M312.9 46.04 C241.15 45.72, 170.88 46.63, -0.15 47 M-1.21 48.63 C-0.24 36.25, -1.42 27.01, 0.36 -0.82 M0.89 47.55 C-1.06 37.2, 0.26 26.59, 0.69 0.53"
           stroke="#000000"
           stroke-width="1"
           fill="none"
           id="path2586" />
      </g>
      <g
         transform="translate(79 222.0000000000001) rotate(0 108.5 13)"
         id="g2592">
        <text
           x="0"
           y="18"
           font-family="Virgil, Segoe UI Emoji"
           font-size="20px"
           fill="#000000"
           text-anchor="start"
           style="white-space: pre;"
           direction="ltr"
           id="text2590">Line and Region Types</text>
      </g>
      <g
         stroke-linecap="round"
         transform="translate(31.38888888888897 270.1666666666667) rotate(0 156.11111111111106 23.333333333333343)"
         id="g2598">
        <path
           d="M0 0 C0 0, 0 0, 0 0 M0 0 C0 0, 0 0, 0 0 M-0.04 5.72 C0.22 5.77, 2 3.33, 4.22 0.68 M0.11 6.34 C1.79 3.84, 3.48 1.83, 4.71 0.3 M0.03 11.06 C2.91 7.91, 7.51 5.25, 12.12 1.49 M0.43 11.8 C2.42 8.78, 5.77 5.66, 11.22 0.14 M-0.09 19.57 C1.81 13.91, 5.62 9.76, 13.98 -0.65 M0.71 18.36 C3.71 12.85, 7.19 8.62, 15.41 0.06 M1.56 25.64 C6.86 19.63, 12.6 12.22, 22.8 0.37 M-0.2 24.85 C8.23 16.49, 14.93 7.92, 22.12 -0.75 M1.28 31.89 C6.82 24.83, 11.38 18.58, 25.33 0.51 M-0.85 30.99 C9.4 21.27, 16.67 9.99, 25.38 0.36 M-1.43 37.23 C11.94 23.07, 24.7 7.52, 30.06 1.38 M-0.86 36.19 C5.7 28.98, 13.31 21.33, 31.14 0.04 M-0.04 42.08 C12.31 29.08, 26.67 13.09, 38.21 1.78 M-0.13 42.71 C9.22 33.78, 15.34 24.18, 37.71 0.93 M2.14 46.32 C11.29 34.89, 17.67 26.58, 42.74 -1.09 M1.98 48.25 C9.95 36.96, 19.93 25.12, 41.63 0.54 M5.73 47.95 C22.65 31.23, 36.9 14.95, 46.98 -0.48 M5.29 48.41 C15.7 37.85, 23.41 25.67, 48.01 1.2 M13.22 47.6 C28.13 28.93, 44.67 11.02, 51.61 1.16 M12.46 47.86 C23.48 33.75, 34.73 19.4, 52.38 -1.09 M15.39 45.87 C25.77 38.24, 36.14 26.19, 57.29 -0.69 M16.21 47.45 C29.81 31.27, 42.92 16.52, 59.02 -0.72 M23.66 47.83 C35.74 32.41, 45.32 17.84, 63.7 0.58 M21.46 47.37 C30.38 36.51, 40.62 26.85, 62.82 0.43 M26.77 48.17 C38.08 33.78, 49.65 24.45, 68.09 1.93 M26.76 48.08 C41.94 31.96, 55.25 16.39, 69.59 0.89 M31.76 46.43 C47.79 30.39, 63.06 16.34, 76.34 -0.18 M33.11 48.19 C45.97 31.43, 59.63 16.74, 73.95 0.52 M36.58 48.14 C49.32 33.96, 61.46 21.08, 77.57 1.41 M37.29 47.4 C54.45 29, 68.2 11.74, 79.66 0.41 M43.11 48.04 C55.87 30.15, 71.84 17.42, 83.13 -2.25 M44.7 46.38 C55.69 33.9, 66.07 21.28, 85.42 -0.24 M49.78 47.27 C61.97 33.34, 75.88 17.57, 89.23 -1.03 M48.73 47.69 C64.08 29.9, 80.84 11.86, 89.29 -0.15 M52.58 48.53 C69.86 30.3, 81.72 15.94, 95.96 -0.54 M53.58 47.65 C69.27 30.35, 84.54 11.65, 96.47 -1.14 M57.65 49.28 C75.25 32.92, 89.42 14.37, 101.86 1.07 M59.63 47.32 C75.99 28.47, 91.79 10.39, 99.67 -0.14 M66.32 48.95 C79.32 29.52, 95.78 9.63, 106.99 -1.73 M64.25 46.34 C77.34 31.94, 90.68 15.5, 106.95 -0.34 M71.71 46.1 C81.79 32.14, 95.32 19.6, 111.5 1.37 M69.17 47.85 C81.46 34.65, 92.67 21.44, 112.06 0.74 M75.11 46.37 C90.19 30.4, 102.75 15.81, 118.01 -1.55 M74.64 47.17 C87.89 34.44, 99.26 20.5, 115.65 0.9 M81.8 47.89 C95.21 32.21, 107.56 18.1, 121.5 -1.23 M80.1 46.94 C97.76 28.81, 112.78 10.62, 122.86 -0.58 M86.96 48.78 C97.13 35, 105.74 24.54, 125.08 2.24 M85.77 47.27 C101.8 27.88, 118.89 9.83, 125.96 0.21 M90.02 49.02 C108.65 30.31, 122.91 11.92, 132.47 -0.64 M91.83 47.41 C106.71 31.97, 120.04 15.04, 132.56 0.47 M97.23 49.68 C106.17 37.29, 112.74 27.96, 136.53 0.37 M96.79 47.66 C105.56 38.45, 114.17 27.78, 136.91 -0.38 M100.75 46.08 C111.47 37.07, 121.31 28.07, 144.32 -1.52 M101.32 48.23 C112.87 35.61, 122.82 25.33, 142.77 -0.87 M105.19 47.01 C118.46 31.39, 132.24 17.19, 149.66 -0.98 M106.61 47.23 C118.44 33.27, 130.8 19.25, 148.77 -0.47 M110.67 47.88 C124.71 30.84, 139.02 18.96, 154.22 -1.33 M112.19 47.49 C128.71 29.47, 144.77 9.73, 153.22 0.23 M119.39 45.94 C127.95 34.45, 138.53 23.49, 160.05 -1.4 M118.28 48.53 C128.87 34.36, 139.48 22.01, 159.46 0.49 M122.71 45.45 C134.91 35.15, 147.93 22.21, 162.65 -0.31 M123.65 47.43 C133.66 36.77, 142.37 25.55, 164.72 -0.72 M127.67 48.87 C142.92 31.95, 158.41 12.79, 167.55 -0.28 M127.93 48.75 C137.9 34.59, 149.34 21.4, 169.47 0.2 M132.11 46.03 C147.1 28.28, 162.78 13.39, 175.35 0.53 M133.51 47.43 C141.18 37.34, 150.53 28.01, 174.22 -0.59 M139.16 49.39 C152.19 31.58, 163.93 15.88, 178.29 1.23 M137.81 48.71 C154.73 30.7, 168.53 12.59, 180.92 0.5 M144.37 47.1 C154.25 33.95, 168.93 18.51, 185.34 1.38 M145.2 47.01 C155.06 34.63, 166.94 20.56, 185.76 0.41 M150.24 46.33 C159.58 32.41, 172.06 18.74, 190.7 -1.81 M149.28 47.87 C165.16 28.82, 180.56 10.83, 190.54 0.35 M153.29 46.34 C164.48 37.68, 174.99 26.08, 194.92 1.67 M154.76 46.83 C163.53 37.39, 172.52 28.28, 195.49 -0.31 M158.61 45.75 C170.92 39.17, 179.05 28.63, 201.46 -0.13 M159.8 47.35 C173.65 31.61, 189.02 14.86, 200.65 0.88 M166.95 47.66 C172.69 36.23, 183.55 25.87, 205.7 -1.97 M165.84 47.7 C178.68 32.48, 189.81 19.43, 206.68 -0.68 M169.23 46.89 C179.94 36.64, 190.69 26.22, 211.56 -0.22 M169.95 46.89 C183.56 33.44, 197.37 18.34, 212.21 0.33 M177.69 47.16 C190.09 32.01, 205.1 12.98, 216.53 -1.68 M176.69 47.55 C185.36 36.57, 196.37 23.41, 216.71 -1.01 M180.35 48.25 C195.33 32.8, 208.98 14.97, 224.25 1.63 M180.43 47.88 C197.68 30.37, 211.72 13.08, 221.78 -0.9 M187.49 47.96 C193.65 35.81, 202.65 27.79, 229.57 -0.38 M186.53 47.23 C196.75 34.65, 208.04 22.84, 228.05 -0.96 M193.48 49.53 C204.97 34.83, 216.21 21.92, 235.09 1.35 M191.01 48.34 C207.31 29.02, 223.38 10.15, 232.5 0.73 M196.59 47.1 C214.62 27.02, 229.89 12.05, 239.59 -1.03 M197.14 48.45 C212.71 29.54, 229.43 11.29, 238.64 0.21 M203.43 45.63 C214.74 34.07, 222.77 21.38, 241.88 1.11 M201.62 47.95 C213.21 34.71, 226.29 19.79, 243.15 0.89 M205.52 46.11 C221.33 28.16, 240.25 11.25, 250.63 0.38 M207.95 47.33 C222.83 31.61, 236.64 13.75, 249.5 -0.38 M212.3 48.71 C223.65 33.1, 237.27 23.2, 254.75 -0.74 M213.25 47.02 C226.5 31.28, 242.3 14.94, 255.12 0.4 M219.77 46 C233.64 32.41, 246.52 17.36, 258.01 1.33 M217.65 48.37 C232.97 33.18, 244.93 15.83, 259.78 0.28 M223.46 46.12 C239.05 30.5, 254.15 15.38, 266.06 0.41 M223.05 47.5 C236.95 31.47, 252.25 16.43, 265.4 0.23 M227.09 45.98 C236.21 36.05, 245.63 27.28, 269.01 -0.21 M228.55 48.22 C244.06 27.87, 259.75 9.77, 270.4 1.1 M235.55 46.43 C244.61 36.05, 257.35 21.51, 276.49 1.37 M235.24 47.97 C249.73 29.55, 263.94 12.81, 275.58 0.47 M239.52 49.48 C255.43 29.82, 268.1 14.59, 280.2 0.9 M239.56 48.67 C248.09 38.89, 256.19 27.29, 280.4 0.61 M244.51 45.44 C257.66 32.56, 270.48 17.23, 284.99 1.15 M244.15 46.67 C252.94 37.32, 260.69 27.63, 286.88 -0.65 M251.4 46.16 C265.87 30.72, 283.25 8.16, 291.41 -0.92 M249.2 47.64 C267.5 29.24, 284.04 9.93, 291.91 0.01 M257.54 48.16 C269.69 33.88, 280.17 19.15, 298.78 -0.98 M255.26 46.48 C265.1 36.63, 274.09 27.15, 297.11 0.27 M261.31 45.89 C277.91 29.56, 292.08 8.83, 303.75 -0.09 M260.61 48.21 C274.75 29.6, 290.61 12.76, 301.18 0.12 M267.15 46.83 C278.71 34.04, 289.37 20.62, 307.37 0.43 M266.11 47.89 C275.68 37.85, 283 27.19, 307.71 0.73 M270.16 48.76 C287.83 30.75, 300.94 15.57, 313.64 -1.77 M270.52 47.57 C280.27 36.86, 291.16 24.67, 313.56 0.4 M277.12 46.89 C286.56 33.92, 296.49 22.7, 310.66 5.86 M277.37 48.08 C288.37 32.89, 300.08 19.5, 312.8 6.2 M283.09 47.08 C289.86 39.7, 295.18 32.2, 312.25 12.15 M282.29 48.08 C294.5 35.31, 304.5 21.67, 312.04 12.04 M288.49 49.01 C292.72 41.07, 301.39 33.82, 314.02 17.72 M287.83 47.83 C293.17 40.43, 300.43 33.29, 313.35 17.96 M291.57 47.39 C298.11 38.81, 306.21 34.4, 310.39 25.62 M292.87 48.22 C296.07 42.3, 300.51 37.78, 313.02 25.47 M297.6 47.09 C301.99 41.84, 307.23 38.14, 314.41 30.83 M297.38 46.58 C302.6 40.98, 308.87 36.34, 312.2 30.68 M303.28 48.16 C305.72 44.16, 310.16 40.95, 311.84 36.03 M303.63 47.61 C305.29 45.3, 306.82 42.88, 312.46 36.69 M308.6 47.59 C309.84 46.35, 311.55 44.39, 313.34 42.95 M307.87 48 C309.7 46.15, 311 44.56, 312.91 42.57"
           stroke="#82c91e"
           stroke-width="0.5"
           fill="none"
           id="path2594" />
        <path
           d="M0.66 -0.62 C80.65 0.01, 159.35 2.26, 312.15 0.51 M-0.39 0.02 C85.77 -2.29, 171.57 -1.75, 311.65 0.17 M314.13 0.51 C312.76 10.41, 311.71 24.47, 313.07 47.5 M311.96 0.86 C311.81 16.37, 311.61 32.73, 311.52 47.06 M313.61 45.44 C204.04 45.49, 98.45 46.12, -0.85 46.31 M311.78 46.83 C247.01 47.3, 182.95 46.15, 0.41 46.55 M1.51 45.42 C-0.5 34.75, 0.05 24.75, 0.41 1.64 M-0.88 46.6 C-0.3 32.14, 0.28 16.44, -0.77 -0.75"
           stroke="#000000"
           stroke-width="1"
           fill="none"
           id="path2596" />
      </g>
      <g
         transform="translate(80.5 280.8888888888889) rotate(0 107 13)"
         id="g2602">
        <text
           x="0"
           y="18"
           font-family="Virgil, Segoe UI Emoji"
           font-size="20px"
           fill="#000000"
           text-anchor="start"
           style="white-space: pre;"
           direction="ltr"
           id="text2600">Baseline location flag</text>
      </g>
      <g
         stroke-linecap="round"
         transform="translate(31.38888888888897 328.66666666666674) rotate(0 156.11111111111106 23.33333333333337)"
         id="g2608">
        <path
           d="M0 0 C0 0, 0 0, 0 0 M0 0 C0 0, 0 0, 0 0 M0.43 6.91 C1.57 5.45, 2.66 3.61, 5.53 -0.01 M0.13 6.05 C1.56 4.86, 3.33 2.48, 4.74 0.01 M0.31 11.1 C3.55 8.54, 6.42 5.52, 9.06 -1.5 M0.8 11.56 C3.63 7.17, 8.01 3.52, 10.43 -0.63 M-0.38 18.26 C4.31 12.52, 10.35 8.91, 14.4 1.66 M-0.23 18.17 C6.14 12.62, 12.21 4.01, 15.46 1.16 M2.25 25.03 C7.09 16.28, 13.98 4.93, 21.26 0.16 M0.02 24.87 C6.58 17.43, 11.24 11.98, 20.37 -0.96 M0.91 30.03 C9.68 20.99, 19.66 9.48, 27.35 -0.24 M0.93 29.59 C7.85 23.11, 15.01 13.79, 25.28 0.79 M1.74 38.28 C12.4 22.25, 25.77 7.71, 33.6 -1.64 M-0.51 37.52 C12.07 23.08, 23.24 8.96, 31 -0.87 M-0.4 41.1 C6.19 32.88, 17.32 24.68, 37.7 -0.59 M0.44 41.92 C9.16 31.27, 17.9 20.18, 36.56 1.14 M0.57 48.62 C10.36 38.8, 17.29 26.42, 40.54 -0.22 M0.47 46.42 C15.64 30.22, 28.87 15.32, 42.45 -1.1 M7.08 47.1 C21.9 30.86, 34.57 14.86, 48.16 -0.46 M6.09 47.1 C22.46 29.87, 38.41 10.75, 48.21 1.04 M11.29 46.06 C26.21 30.34, 41.56 13.88, 54.17 1.76 M12.73 47.41 C25.12 32.57, 36.58 18.51, 53.59 -0.63 M16.74 46.24 C32.96 29.69, 47.38 12.58, 57.67 -1.64 M17.11 46.96 C31.25 31.2, 45.99 12.01, 58.24 0.45 M22.28 46.74 C36.66 30.02, 48.26 16.5, 65.76 -2.12 M22.83 48.33 C30.06 38.87, 38.51 28.85, 62.87 0.18 M25.91 48.78 C39.61 33.91, 52.42 20.77, 67.38 -0.64 M27.05 47.73 C37.22 35.74, 47.38 25.22, 68.86 -0.58 M33.31 45.55 C45.58 35.52, 55.17 20.05, 75.84 0.04 M32.63 46.55 C45.11 33.44, 56.95 19.85, 73.44 0.56 M37.72 45.98 C48.51 39.1, 57.32 28.8, 78.67 1.32 M38.75 47.97 C51.88 31.65, 66.26 14.74, 79.36 -0.87 M44.39 48.62 C56.67 32.37, 67.24 19.6, 84.13 0.41 M43.13 46.55 C52.25 35.28, 62.62 24.22, 84.04 0.37 M50.53 49.39 C59.63 32.77, 72.78 19.58, 91.12 0.29 M48.64 46.84 C64.34 30.66, 78.98 13.36, 89.22 0.86 M53.73 47.4 C67.98 30.79, 83.36 11.67, 95.6 1.43 M53.48 46.94 C62.02 38.22, 71.45 27.66, 96.09 -0.94 M59.91 48.81 C74.22 32.71, 87.83 15.62, 100.55 -0.37 M59.81 47.11 C68.2 37.23, 78.69 24.77, 101.02 0.99 M63.77 48.59 C76.17 36.84, 84.06 23.57, 106.4 -2.17 M65.96 47.4 C80.21 28.09, 96.55 9.89, 106.63 -1.29 M68.67 46.37 C82.9 34.99, 94.55 19.29, 112.98 -0.06 M69.01 48.17 C80.84 35.78, 92.72 21.87, 111.51 0.02 M74.5 48.95 C91.73 32.01, 104.33 12.69, 117.27 -0.63 M74.35 48.5 C87.68 33.84, 101.13 19.01, 116.69 -0.25 M80.81 46.44 C89.17 37.39, 99.8 27.52, 122.66 1.12 M79.6 47 C91.06 37.62, 99.07 26.64, 122.57 -0.42 M84.11 46.24 C93.83 35.89, 102.15 26.04, 126.13 1.84 M85.53 47.67 C94.8 35.78, 104.94 24.42, 126.9 0.95 M91.57 45.68 C100.91 36, 108.21 26.6, 134.06 0.36 M90.59 47.21 C100.73 35.98, 111.16 24.3, 132.22 -0.64 M95.03 49.78 C108.38 31.49, 123.07 15.21, 138.15 1.56 M96.54 48.67 C106.16 38.18, 113.48 27.7, 136.57 0.97 M101.39 47.06 C113.48 32.47, 129.51 18.73, 143.86 -1.87 M101.63 48 C114.28 34.35, 126.8 19.44, 143.62 0.2 M106.57 47.4 C117.78 36.6, 127.47 26.08, 146.37 -1.6 M106.24 47.66 C119.37 33.38, 129.24 20.52, 147.32 0.32 M113.95 45.79 C123.25 31.43, 135.62 17.69, 154.97 0.16 M112.03 47.19 C126.87 30.33, 140.38 15.11, 154.07 -0.97 M116.27 48.22 C129.81 35.67, 137.68 21.84, 157.05 -1.52 M117.62 46.87 C132.69 31.56, 147.16 13.09, 159.38 1.1 M122.13 47.39 C136.74 29.71, 150.71 16.76, 162.51 -0.52 M123.72 48.22 C138.63 28.72, 155.27 11.19, 164.02 -0.1 M129.87 48.64 C141.86 29.01, 156.75 12.53, 167.69 0.21 M128.8 47.67 C136.3 38.43, 143.81 28.64, 168.65 0.05 M134.04 45.65 C146.44 31.95, 162.09 17.63, 175.82 -1.6 M134.27 47.12 C150.1 28.45, 167.14 10.01, 176.04 -1.03 M139.34 46.35 C149.47 35.94, 165.12 21.42, 180.97 0.31 M138.06 47.53 C150.15 33.47, 162.39 20.91, 179.66 -0.49 M143.01 48.64 C160.79 27.55, 174.92 11.57, 184.46 -1.49 M143.89 47.53 C153.76 37.86, 161.38 26.45, 185.87 -0.5 M148.85 46.3 C159.78 35.13, 171.04 24.05, 190.82 -0.26 M148.81 47.02 C160.4 34.22, 173.22 21.68, 190.57 0.4 M153.58 48.72 C168.13 30.64, 183.37 15.18, 196.21 -1.32 M154.45 47.72 C165.21 35.35, 175.14 25.28, 195.36 -1.14 M160.83 46.75 C170.09 37.09, 180.13 26.03, 200.38 1.78 M160.61 46.83 C175.65 30.72, 191.67 11.43, 202.2 -0.7 M167.52 48.51 C174.64 36.15, 181.36 26.68, 207.07 1.05 M166.44 47.55 C177.46 32.59, 190.24 18.66, 207.53 -0.47 M169.88 49.21 C182.67 37.99, 190.67 26.58, 212 1.95 M170.13 46.75 C186.21 29.65, 200.21 12.31, 210.98 -0.64 M177.8 46.94 C190.44 31.07, 204.69 12.43, 219.25 1.07 M176 47.49 C185.93 36.2, 194.77 26.04, 217.51 0.12 M180.84 48.51 C191.37 35.4, 203.98 19.02, 221.26 -1.92 M182.22 46.69 C196.54 29.72, 211.86 14.18, 222.03 -0.65 M185.97 45.97 C200.61 27.32, 216.91 11.77, 227.19 1.44 M185.26 48.39 C198.13 33.86, 211.67 18.31, 227.6 0.31 M190.79 46.71 C202.74 35.68, 209.53 26.95, 234.95 0.28 M192.85 47.66 C202.23 33.95, 214.41 22.72, 234.06 0.65 M198.77 49.55 C209.29 33.47, 225.86 16.44, 238.89 -1.09 M195.94 47.43 C211.8 32.19, 226.67 13.59, 237.56 0.68 M203 47.2 C213.33 34.08, 226.79 20.51, 245.08 0.93 M202.14 46.79 C215.87 31.36, 229.06 17.35, 244.45 0.26 M206.17 46.2 C219.87 30.53, 233.72 15.17, 248.52 -0.75 M208.44 47.66 C218.92 33.93, 228.94 20.36, 248.28 0.64 M212.96 48.63 C228.16 27.99, 246.81 11, 254.9 0.69 M213.33 48.31 C228.93 30.02, 243.24 11.48, 254.22 -0.22 M218.03 47.97 C234.57 32.68, 245.94 14.16, 258.54 -0.23 M217.47 48.01 C233.27 31.92, 247.08 15.4, 258.8 -0.03 M222.4 46.92 C235.78 30.86, 251.72 14.43, 264.84 -1.48 M223.84 46.57 C238.65 29.46, 254.29 11.26, 265.01 0.41 M229.42 49.18 C237.18 35.26, 251.13 24.27, 268.24 0.32 M228.38 46.99 C238.31 37.18, 248.79 25.64, 269.98 0.82 M233.24 49.29 C246.96 36.1, 257.76 21.29, 274.59 1.65 M234.18 47.01 C244.73 35.39, 255.93 22.97, 276.12 -0.02 M238.65 48.44 C251.5 32.17, 268.13 13.52, 279.15 2 M240.13 47.73 C251.48 33.15, 262.44 20.23, 280.8 -0.58 M245.64 48.24 C256.98 34.67, 269.19 20.25, 285.02 -0.42 M245.05 47.19 C259.87 32.51, 273.25 15.6, 285.49 -0.09 M249.23 46.61 C267.27 30.61, 282.5 10.06, 293.03 1.22 M250.36 46.98 C258.69 37.02, 268.08 28.19, 291.4 1.14 M255.97 47.54 C268.9 31.03, 281.45 15.01, 296.24 -1.89 M256.25 47.79 C267.36 34.23, 277.06 21.36, 296.69 0.25 M259.88 48.89 C271.6 36.2, 282.9 22.04, 301.83 -0.34 M260.32 48.08 C273.16 34.73, 285.75 19.12, 302.05 -0.55 M266.83 48.24 C280.15 32, 291.86 20.29, 309.58 1.3 M265.74 47.59 C277.79 34.4, 288.12 23.13, 307.93 0.63 M270.56 46.7 C280.94 35.48, 289.46 25.86, 313.76 -1.71 M271.92 48 C286.15 31.49, 298.76 16.05, 312.15 0.92 M277.03 46.69 C289.45 33.23, 300.86 20.5, 311.68 8.31 M276.63 46.47 C287.12 33.76, 298.38 22.24, 313.17 6.11 M280.43 47.79 C292.24 36.16, 300.7 27.41, 312.7 11.43 M282.7 48.3 C289.4 39.57, 296.63 30.68, 312.77 12.32 M287.59 48.51 C292.79 39.84, 301.24 32.52, 313.62 20.27 M288.15 46.44 C296.36 37.68, 304.38 27.46, 312.22 19.04 M293.89 46.16 C297.75 39.56, 302.69 34.08, 311.12 25.28 M292.86 48.16 C300.31 38.67, 306.61 30.98, 312.43 24.12 M299.75 46.59 C302.75 45.39, 305.4 39.95, 312.96 30.79 M298.69 46.6 C303.12 43.4, 307.08 36.93, 311.81 30.62 M302.73 47.94 C306.54 44.71, 308.46 40.38, 311.53 37.09 M302.49 47.43 C305.35 44.44, 309.29 40.44, 313 36.79 M308.22 47.91 C310.27 45.96, 311.74 43.71, 312.45 42.1 M308.13 47.57 C310.08 45.6, 311.64 44.08, 312.73 42.74"
           stroke="#82c91e"
           stroke-width="0.5"
           fill="none"
           id="path2604" />
        <path
           d="M0.31 0.99 C71.14 1.09, 141.5 -0.74, 311.02 -0.77 M-0.52 0.14 C94.89 -2.11, 190.43 -1.14, 312.26 0.22 M310.39 0.54 C310.07 12.35, 313.12 27.98, 310.53 44.74 M312.86 0.93 C312.48 15.95, 312.09 31.06, 312.45 45.96 M310.81 46.57 C222.41 44.82, 133.62 46.25, 0 47.99 M311.64 46.93 C188.59 46.77, 65.03 47.46, -0.49 47.19 M1.81 46.7 C1.36 29.81, 0.38 14.65, 0.55 -1.64 M0.54 47.51 C0.07 34.72, -0.49 22.24, -0.01 -0.2"
           stroke="#000000"
           stroke-width="1"
           fill="none"
           id="path2606" />
      </g>
      <g
         transform="translate(106.5 339.0000000000001) rotate(0 81 13)"
         id="g2612">
        <text
           x="0"
           y="18"
           font-family="Virgil, Segoe UI Emoji"
           font-size="20px"
           fill="#000000"
           text-anchor="start"
           style="white-space: pre;"
           direction="ltr"
           id="text2610">Bounding Regions</text>
      </g>
    </g>
  </a>
  <a
     id="a2724"
     xlink:href="http://kraken.re/master/api_docs.html#kraken.lib.vgsl.TorchVGSLModel.nn">
    <g
       id="g2722">
      <g
         stroke-linecap="round"
         transform="translate(23 81) rotate(0 164.5 34)"
         id="g2574">
        <path
           d="M0 0 C0 0, 0 0, 0 0 M0 0 C0 0, 0 0, 0 0 M-1.01 6.92 C1.03 4.5, 3.76 2.57, 5.74 -0.3 M-0.39 6.43 C0.71 4.93, 2.09 3.93, 5.03 0.05 M-0.72 13.32 C1.32 9.22, 3.45 6.6, 9.76 0.1 M0.03 11.32 C4.62 8.25, 8.44 2.86, 11.24 0.73 M-1.75 18.39 C7.16 11.34, 11.67 6.42, 16.21 0.07 M0.31 19.41 C3.02 14.26, 7.36 10.03, 14.7 0.57 M0.66 25.17 C6.7 18.31, 10.84 8.62, 21.7 -0.09 M-0.43 23.74 C7.35 15.74, 15.78 6.03, 20.51 -0.4 M-0.84 30.47 C4.82 22.12, 10.66 17.34, 24.8 -0.98 M0.39 30.05 C7.61 23.58, 13.83 14.47, 27.04 0.7 M-1.34 35.96 C5.31 28.85, 12.56 21.51, 31.29 -0.11 M-0.99 36.34 C8.37 27.69, 15.81 18.27, 31.09 -0.97 M-0.02 41.97 C11.46 28.06, 25.3 16.33, 36.57 -0.64 M-0.12 41.88 C10.1 31.97, 18.17 22.27, 36.45 0.21 M1.68 50.91 C15.36 28.85, 33.58 13.58, 40.64 1.74 M-0.71 49.36 C13.49 31.91, 28.51 15.03, 41.65 -0.85 M-1.57 53.19 C12.28 39.54, 25.9 22.89, 46.73 2.09 M0.6 54.52 C14.95 37.7, 28.77 22.54, 48.39 -0.01 M-0.35 62.43 C15.52 42.38, 30.71 22.01, 52.34 -0.67 M0.53 60.11 C17.49 39.12, 37.05 17.59, 53.31 -0.99 M-0.17 65.37 C15.26 52.55, 26.72 34.91, 59.78 -0.54 M0.36 67.47 C12.9 51.72, 25.82 35.88, 58.41 0.53 M3.07 70.33 C16.7 56.66, 30.33 38.42, 63.28 0.75 M2.22 69.76 C19.5 51.57, 35.28 33.77, 62.83 -0.18 M9.62 70.67 C27.79 45.98, 51.99 22, 67.49 0.91 M8.39 71.07 C26.94 47.26, 47.29 26.13, 69.2 1 M12.33 68.67 C33.37 47.78, 49.69 27.32, 74.62 -1.7 M13.58 69.12 C25.19 55.55, 37.33 42.04, 73.54 -0.06 M18.44 70.8 C37.99 51.85, 55.45 30.15, 78.93 -0.89 M17.45 70.13 C35.01 48.08, 53.86 28.25, 79.53 0.19 M24 69.8 C46.67 44.31, 69.69 19.47, 85.82 -1.47 M24.85 69.73 C47.52 41.66, 71.78 12.66, 84.41 -0.15 M30.49 69.95 C49.11 45.65, 68.87 24.42, 90.42 -0.04 M29.18 69.86 C52.21 43.37, 75.51 15.99, 89.29 -0.47 M33.8 70.22 C49.92 54.67, 61.72 39.91, 96.6 0.17 M35.22 70.71 C47.96 55.98, 60.46 40.79, 95.01 -0.81 M40.86 69.49 C56.98 52.32, 69.19 35.36, 99.59 0.54 M40.47 69.58 C53.39 54.32, 66.14 40.45, 100.48 0.1 M46.04 70.43 C66.43 48.95, 82.63 25.7, 104.98 0.19 M45.35 71.58 C60.88 50.63, 77.91 32.15, 106.51 -0.28 M50.96 69 C65.24 52.01, 81.23 32.91, 111.34 -0.8 M49.8 70.75 C71.28 46.46, 89.81 22.36, 112.2 -0.38 M54.34 69.86 C70.19 52.97, 86.96 34.49, 116.59 0.54 M54.96 70.24 C79.54 42.83, 102.32 16.58, 116.06 1.11 M62.43 68.3 C74.71 50.64, 92.37 34.03, 123.85 1.48 M60.29 69.95 C80.32 47.36, 100.6 25.23, 121.68 -0.57 M67.58 69.45 C85.13 46.51, 107.75 23.11, 125.31 -0.9 M65.95 70.47 C78.64 56.64, 90.6 42.59, 126.35 0.91 M71.24 69.42 C95.45 42.16, 115.04 17.91, 130.59 -1.86 M70.63 69.94 C87.41 52.53, 104.95 33.93, 133.24 -0.45 M74.61 70.57 C98.37 44.99, 120.61 20.74, 139.34 0.25 M75.93 69.97 C98.46 44.77, 119.86 19.94, 136.74 0.05 M81.61 70.6 C94.28 55.06, 107.65 41.65, 142.29 -0.85 M82.15 70.58 C97.56 53.82, 112.77 36.15, 143.32 -0.39 M85.54 69.83 C101.84 51.19, 120.91 32.43, 149.82 1.84 M86.67 70.07 C108.82 45.7, 130.11 21.25, 148.84 0.88 M92.05 68.32 C107.82 54.24, 118.88 38.79, 152.99 -0.26 M93.78 69.92 C109.07 49.9, 126.48 29.97, 153.46 -0.13 M97.77 69.07 C114.28 48.37, 131.8 31.37, 160.16 1.92 M97.02 70.72 C111.93 55.78, 124.67 38.86, 158.89 0.87 M105.35 71.24 C125.73 45.92, 147.58 19.54, 165.99 -1.7 M103.05 69.09 C127.73 42.99, 151.39 15.49, 165.31 0.28 M110 69.32 C129.21 44.32, 149.59 20.11, 168.06 0.78 M107.95 69.54 C126.21 51.11, 143.69 29.86, 168.7 -0.37 M114.58 70.29 C128.83 54.48, 139.05 40.57, 175.89 -1.52 M113.11 69.41 C133.62 47.72, 154.12 24.84, 175.65 -0.62 M120.18 68.85 C140.18 48.11, 159.18 22.18, 179.51 -1.09 M119.54 70.78 C135.26 52.62, 150.16 36.32, 180.74 -0.09 M125.11 68.58 C140.16 53.47, 151.38 40.8, 186.54 -0.86 M123.72 69.32 C137.31 54.66, 151.56 40.49, 185.35 -0.63 M131.55 69.14 C151.93 45.67, 175.6 16.67, 190.75 -0.97 M129.96 70.31 C144.46 54.2, 157.73 38.14, 191.05 0.62 M136.55 71.45 C152.55 48.99, 167.51 30.01, 197.11 0.35 M136.24 69.41 C156.26 44.26, 176.95 20.3, 196.39 -0.9 M138.64 68.9 C164.97 41.86, 186.08 15.39, 202.34 0.07 M140.52 70.67 C161.6 45.25, 184.72 20.79, 202.29 -0.21 M144.84 68.47 C167.04 42.02, 192.35 18.11, 208.02 1.41 M146.65 69.38 C170.03 43.54, 194.37 15.31, 206.86 -0.95 M149.27 70.03 C172.26 47.6, 188.99 24.92, 213.09 -0.82 M150.63 70.03 C175.44 42.67, 200.44 14.35, 212.74 -0.41 M156.17 71.41 C174.65 46.87, 196.29 26.61, 218.98 -1.17 M156.53 69.12 C177.85 45.36, 199.24 21.89, 217.96 0.34 M162.51 71.68 C181.51 47.1, 198.3 26.83, 222.11 1.75 M160.79 71.19 C179.95 49.64, 195.89 29.12, 223.27 -0.65 M168.35 69.02 C179.73 55.64, 197.11 37.76, 227 0.35 M167.43 70.38 C179.72 54.75, 193.27 40.89, 229.01 -0.27 M170.73 68.2 C191.48 48.64, 213.51 25.53, 234.79 -0.65 M171.64 70.62 C186.9 53.1, 202.52 36.12, 232.39 0.52 M175.47 70.02 C191.56 52.59, 208.63 34.98, 239.69 -0.34 M176.45 70.8 C197.8 48.29, 217.38 24.85, 237.76 -0.62 M181.6 71.18 C203.28 46.63, 221.12 23.32, 244.78 -0.2 M182.89 69.39 C196.6 54.41, 210.43 40.88, 243.19 -0.29 M185.91 69.58 C212.97 42.04, 232.7 15.87, 247.91 -0.58 M187.35 71.41 C199.13 57.12, 212.79 42.53, 248.07 0.83 M192.03 71.4 C214.86 45.52, 235.16 25.22, 256.05 1.14 M194.41 70.25 C209.01 51.83, 223.73 34.82, 254.37 -0.36 M198.99 72.37 C216.85 48.48, 235.85 27.28, 259.87 1.79 M198.16 70.65 C216.39 48.49, 236.09 26.82, 258.92 0.52 M202.25 68.89 C220.95 50.31, 239.09 32.58, 264.81 1.6 M203.13 70.56 C224.44 47.71, 245.23 23.47, 265.27 0.2 M210.31 71.26 C231.63 41.71, 258.7 16.25, 269.66 -0.63 M209.51 70.08 C227.27 47.6, 247.52 27.04, 270.05 -0.24 M213.75 70.86 C226.48 53.61, 241.25 39.05, 277.58 1.65 M214.12 69.33 C233.61 46.86, 252.35 23.88, 274.8 -0.58 M217.77 69.34 C243.35 45.82, 266.54 18.46, 282.7 1.98 M219.64 69.41 C242.16 44.37, 265.91 18.67, 280.32 0.53 M227.3 69.77 C244.2 47.77, 266.64 23.76, 285.15 -2.01 M225.55 70.23 C240.63 53.38, 254.39 36.34, 286.5 0.45 M231.52 69.91 C253.24 42.41, 277.81 18.31, 289.66 -1.34 M229.4 69.49 C249.73 49.47, 267.33 28.5, 290.7 0.44 M236.96 69.3 C252.22 49.62, 267.73 33.13, 296.59 1.5 M235.7 70.54 C259.2 42.54, 282.86 15.3, 297.53 0.59 M240.02 70.51 C255.14 50.11, 271.02 35.44, 300.51 -0.31 M241.24 71.31 C253.15 55.99, 266 41.22, 301.26 -0.27 M248.07 70.32 C262.5 51.66, 276.06 34.89, 309.26 -0.68 M245.96 70.2 C271.99 42.23, 295.97 13.98, 307.64 0.29 M251.99 68.89 C267.47 53.93, 279.28 35.11, 314.49 -1.46 M252.25 71 C274.88 44.05, 298.99 17.02, 312.2 0.28 M255.25 68.95 C276.56 46.49, 295.26 23.63, 318.78 0.78 M257.83 70.78 C282.29 42.75, 305.3 14.9, 318.19 0.13 M262.45 69.01 C281.29 45.81, 303.74 23.73, 322.14 1.92 M263.08 70.83 C279.67 48.81, 298.12 26.81, 322.81 0.64 M268.4 70.51 C287.53 44.4, 308.96 21.39, 329.09 -0.55 M267.91 70.5 C283.57 50.83, 300.78 33.09, 329.16 -0.16 M274.68 71.05 C289.48 53.23, 304.24 33.18, 333.28 2 M273.05 70.21 C296.78 43.6, 319.31 18.86, 332.53 3.22 M278.04 72.3 C288.24 57.17, 301.61 42.3, 330.5 8.16 M278.27 69.98 C296.57 49.61, 313.98 29.69, 332.26 8.33 M282.26 69.43 C302.6 50.63, 319.93 27.41, 332.45 13.47 M283.03 70.69 C292.75 59.05, 302.71 47.88, 331.3 14.4 M287.96 70.58 C306.88 50.13, 321.87 32.1, 330.74 20.87 M288.05 70.19 C303.12 55.28, 317.17 38.55, 330.94 20.58 M295.04 70.76 C307.33 55.83, 319.37 41.6, 331.89 25.64 M294.54 70.97 C306.44 56.46, 318.81 40.25, 331.63 27.55 M297.24 71.08 C311.18 55.91, 323.18 42.06, 333.19 32.78 M298.53 70.04 C304.61 63.69, 311.55 54.93, 331.62 32.7 M305.16 71.88 C313.68 57.66, 322.77 49.16, 332.55 40.56 M304.7 69.88 C312.6 62.5, 320.53 53.65, 332.56 38.27 M308.9 72 C313.22 65.32, 318.01 58.19, 330.9 46.33 M308.75 70.3 C315.54 62.94, 322.42 54.1, 332.71 44.99 M317.04 69.86 C320.36 67.83, 322.34 62.05, 330.73 49.79 M315.22 69.39 C319.8 63.97, 325.48 57.75, 331.28 52.04 M319.42 70.71 C322.2 67.13, 326.42 62.09, 330.68 58.72 M319.94 71.25 C323.62 67.47, 325.91 63.71, 331.58 56.78 M325.72 70.92 C328.48 68.62, 329.85 65.45, 331.33 62.4 M325.75 69.86 C328.18 68.34, 329.9 66.32, 332.28 63.7"
           stroke="#82c91e"
           stroke-width="0.5"
           fill="none"
           id="path2570" />
        <path
           d="M-0.66 -1.23 C77.37 -0.03, 154.17 1.75, 330.28 -0.85 M-0.1 0.21 C100.79 -0.34, 200.44 -1.24, 329.63 0.11 M329.88 -1.06 C328.38 19.06, 327.66 37.27, 327.87 67.25 M329.85 0.25 C329.26 25.25, 328.66 51.11, 329.56 68.95 M327.87 66.99 C258.43 68.59, 188.13 67.95, 0.16 67.77 M328.68 67.48 C226.16 69.21, 124.81 69.81, -0.63 67.85 M-0.76 66.17 C0.87 55.03, -1.13 38.97, -0.24 1.97 M0.49 68.57 C0.41 50.87, -1.24 34.14, -0.35 0.79"
           stroke="#000000"
           stroke-width="1"
           fill="none"
           id="path2572" />
      </g>
      <g
         transform="translate(113 102) rotate(0 74.5 13)"
         id="g2568">
        <text
           x="0"
           y="18"
           font-family="Virgil, Segoe UI Emoji"
           font-size="20px"
           fill="#000000"
           text-anchor="start"
           style="white-space: pre;"
           direction="ltr"
           id="text2566">Neural Network</text>
      </g>
    </g>
  </a>
</svg>
