<?xml version="1.0" encoding="UTF-8" standalone="no"?>
<svg
   version="1.1"
   viewBox="0 0 375 430"
   width="375"
   height="430"
   id="svg56"
   sodipodi:docname="kraken_torchseqrecognizer.svg"
   inkscape:version="1.1.1 (3bf5ae0d25, 2021-09-20)"
   xmlns:inkscape="http://www.inkscape.org/namespaces/inkscape"
   xmlns:sodipodi="http://sodipodi.sourceforge.net/DTD/sodipodi-0.dtd"
   xmlns:xlink="http://www.w3.org/1999/xlink"
   xmlns="http://www.w3.org/2000/svg"
   xmlns:svg="http://www.w3.org/2000/svg">
  <sodipodi:namedview
     id="namedview58"
     pagecolor="#ffffff"
     bordercolor="#666666"
     borderopacity="1.0"
     inkscape:pageshadow="2"
     inkscape:pageopacity="0.0"
     inkscape:pagecheckerboard="0"
     showgrid="false"
     inkscape:zoom="1.4323023"
     inkscape:cx="195.14036"
     inkscape:cy="215.0384"
     inkscape:window-width="958"
     inkscape:window-height="1041"
     inkscape:window-x="960"
     inkscape:window-y="18"
     inkscape:window-maximized="1"
     inkscape:current-layer="g14" />
  <!-- svg-source:excalidraw -->
  <defs
     id="defs4">
    <style
       id="style2">
      @font-face {
        font-family: &quot;Virgil&quot;;
        src: url(&quot;https://excalidraw.com/Virgil.woff2&quot;);
      }
      @font-face {
        font-family: &quot;Cascadia&quot;;
        src: url(&quot;https://excalidraw.com/Cascadia.woff2&quot;);
      }
    </style>
  </defs>
  <g
     stroke-linecap="round"
     transform="translate(10 65) rotate(0 177.5 177.5)"
     id="g8">
    <path
       d="M-0.63 -0.14 C128.78 -0.42, 255.79 -0.44, 355.11 1.28 M0.2 -0.14 C110.38 1.82, 221.24 1.93, 355.03 -0.03 M355.96 -0.68 C356.22 139.93, 357.02 281.25, 353.83 355.79 M354.84 -0.59 C354.51 91.31, 354.87 182.81, 354.5 355.13 M354.43 356 C249.56 352.92, 144.3 354.53, 0.17 356.02 M354.74 355.28 C245.51 352.39, 136.39 353.25, 0.56 355.56 M1.26 354.29 C-0.55 248.23, 0.54 139.15, 0.83 -0.43 M-0.16 355.46 C-1.18 276.36, -1.15 198.2, -0.18 0.25"
       stroke="#000000"
       stroke-width="1"
       fill="none"
       id="path6" />
  </g>
  <a
     id="a394"
     xlink:href="http://kraken.re/master/api_docs.html#kraken.rpred.TorchSeqRecognizer">
    <g
       transform="translate(87.5 10) rotate(0 100 26)"
       id="g14">
      <text
         x="0"
         y="18"
         font-family="Virgil, Segoe UI Emoji"
         font-size="20px"
         fill="#000000"
         text-anchor="start"
         style="white-space: pre;"
         direction="ltr"
         id="text10">Transcription Model</text>
      <text
         x="0"
         y="44"
         font-family="Virgil, 'Segoe UI Emoji'"
         font-size="20px"
         fill="#000000"
         text-anchor="start"
         style="letter-spacing:0px;white-space:pre"
         direction="ltr"
         id="text12">(TorchSeqRecognizer)</text>
    </g>
  </a>
  <a
     id="a356"
     xlink:href="http://kraken.re/master/api_docs.html#kraken.lib.codec.PytorchCodec">
    <g
       id="g354">
      <g
         stroke-linecap="round"
         transform="translate(23 165.33333333333331) rotate(0 164.5 34)"
         id="g24">
        <path
           d="M0 0 C0 0, 0 0, 0 0 M0 0 C0 0, 0 0, 0 0 M0.22 6.63 C2.31 4.51, 4.06 1.74, 4.93 0.88 M-0.29 6.09 C0.71 5.57, 1.99 4.31, 4.72 0.08 M1.39 10.66 C3.72 9.89, 3.32 6.88, 11.74 -0.71 M0.56 12.35 C3.93 7.95, 7.01 4.31, 10.76 -0.48 M1.82 16.71 C4.7 9.48, 11.23 4.51, 15.54 -1.3 M0.49 18.73 C5.49 12.07, 9.41 7.83, 15.55 0.29 M0.02 24.5 C6.19 15.35, 13.67 7.66, 22.67 0.99 M-0.38 23.65 C3.99 18.86, 7.86 14.47, 20.35 -0.5 M0.1 30.82 C9.46 20.12, 18.1 11.77, 28.04 0.07 M-0.27 30.51 C7.11 23.07, 12.77 14.51, 26.5 -0.39 M1.34 37.61 C10.08 27.32, 20.25 14.25, 30.74 -1.27 M-1.11 36.44 C7.82 26.67, 14.58 18.56, 31.67 0.37 M0.36 42.96 C10.26 31.86, 15.55 21.56, 34.91 1.64 M-0.83 42.54 C11.83 30, 20.86 18.6, 37.29 -0.3 M-1.05 50.65 C9.49 38.33, 20.45 28.2, 42.74 -1.44 M-0.75 49.06 C16.16 31.08, 31.61 14.06, 43.32 -0.47 M0.47 53.98 C20.77 32.18, 36.05 13.36, 47.06 1.52 M0.66 54.01 C12.19 39.3, 26.03 24.9, 47.66 0.76 M-1.55 61.08 C16.16 40.61, 34.63 20.12, 52.43 -0.05 M-0.92 60.14 C18.59 39.56, 37.72 18.15, 52.96 -0.87 M0.93 66.72 C17.02 48.72, 30.16 32.34, 59.65 2 M0.53 67.52 C12.82 49.6, 27.71 34.7, 57.97 0.14 M1.01 70.82 C24.16 44.31, 50.81 16.54, 62.87 1.56 M2.67 69.71 C16.32 54.93, 30.21 39.77, 64.37 -1.04 M9.36 71.89 C19.68 53.2, 34.31 37.4, 70.12 -0.39 M7.08 69.98 C28.11 47.94, 46.83 25.5, 68.17 -0.67 M12.7 68.98 C34.44 46.43, 55.95 21.97, 76.4 -0.72 M12.54 70.91 C31.1 48.87, 47.66 28.64, 74.45 -0.54 M17.57 70.82 C39 45.43, 58.24 24.27, 80.2 -0.89 M18.58 70.31 C40.17 45.75, 62.15 20.61, 78.83 0.96 M22.76 68.01 C46.27 46.39, 63.32 25.37, 84.63 0.21 M24.7 69.11 C44.02 49.14, 63.05 26.25, 84.2 0.71 M29.91 72.24 C51.41 43.69, 73.76 18.77, 89.92 -0.53 M28.73 69.29 C48.88 48.79, 65.45 28.03, 90.13 -0.2 M34.56 69.47 C49.09 54.79, 61.24 40.18, 94.48 0.69 M34.65 70.76 C54.81 46.74, 74.93 23.91, 95.71 -0.59 M40.68 71.11 C51.24 57.37, 62.66 40.36, 99.54 -0.15 M38.95 69.32 C53.87 53.74, 68.16 37.37, 100.86 -0.24 M43.12 71.95 C58.8 56.91, 70.6 41.52, 106.13 0.25 M43.82 70.23 C57.4 55.17, 71.32 39.82, 107.21 -0.06 M49.43 69.61 C67.24 51.39, 80.29 36.64, 111.66 1.68 M50.77 70.45 C72.41 46.61, 93.73 20.59, 111.42 0.89 M55.7 69.96 C74.96 47.63, 98.84 21.02, 114.37 0.41 M55.24 69.75 C75.58 44.72, 97.43 21.05, 115.38 0.03 M59 71.1 C73.94 54.54, 87.76 37, 121.12 -1.43 M60.83 69.36 C82.12 45.87, 103.86 22.23, 122.81 0.39 M65.88 72.51 C87.55 45.78, 106.02 22.58, 125.27 -0.35 M66.58 70.94 C85.93 46.95, 106.65 23.64, 126.95 0.82 M73.5 70.22 C94.87 47.14, 114.36 18.97, 133.06 -1.63 M71.87 70.38 C84.43 55.33, 98.69 39.09, 131.65 -0.41 M78.15 70.05 C97.45 48.39, 114.65 25.13, 138.19 -0.08 M75.75 70.83 C93.81 51.3, 110.42 33.57, 137.81 0.34 M80.33 70.77 C104.96 44.95, 128.93 19.33, 144.89 1.12 M81.76 70.48 C102.17 47.88, 122.47 25.02, 143.16 -1.04 M85.31 69.28 C111.12 46.5, 130.47 20.66, 146.45 1.64 M87.3 69.57 C105.21 50.91, 122.35 30.85, 148.63 -0.48 M92.19 71.8 C111.96 50.14, 132.07 27.96, 152.32 1.12 M92.47 70.25 C110.73 49.92, 127.59 28.53, 154.18 -0.88 M98.45 71.09 C118.18 47.27, 137.9 27.57, 158.63 -1.55 M97.38 69.48 C110.79 54.7, 123.76 38.85, 159.17 -0.1 M105.03 69.58 C124.79 46.53, 142.4 26.12, 163.32 0.86 M103.06 70.96 C121.93 50.13, 137.79 28.34, 164.16 -0.17 M108.9 68.62 C128.87 43.04, 151.92 16.62, 168.61 -0.8 M108.74 70 C128.95 48.9, 147.45 24.72, 169.3 0.69 M112.09 71.59 C132.79 50.51, 149.23 32.41, 176.15 1.06 M114.73 69.48 C137.36 43.79, 158.8 18.78, 174.14 -1.03 M118.3 69.2 C136.62 49.19, 153.96 29.9, 181.52 1.98 M119.75 70.7 C139.53 44.36, 162.54 19.79, 180 -0.26 M125.91 70.53 C147.9 42.06, 169.5 16.68, 185.35 -1.36 M123.77 69.34 C146.78 46.18, 166.63 22.28, 185.79 -0.41 M128.58 68.38 C151.26 44.59, 176.05 18.14, 191.81 0.07 M129.37 70.32 C148.09 47.76, 167.42 25.71, 190.37 0.52 M136.29 70.32 C151.64 48.98, 167.88 31.46, 195.75 0.78 M134.59 69.72 C151.58 49.9, 167.5 31.49, 196.38 -1.14 M139.93 71.97 C161.84 49.2, 180.46 23.51, 201.19 -0.01 M140.21 69.71 C157.66 50.99, 173.42 30.87, 200.6 -0.85 M144.32 68.1 C169.96 39.8, 194.85 13.61, 208.45 -1.17 M146.69 70.42 C158.31 55.15, 173.13 38.76, 207.79 -0.91 M152.82 69.93 C172.58 43.32, 194.84 17.67, 212.65 -0.52 M151.45 70.88 C171.19 45.86, 193.12 20.02, 211.02 -0.59 M156.37 68.22 C169.78 52.53, 183.58 36.33, 218.83 -1.61 M155.72 68.89 C174.14 51.49, 190.24 32.75, 217.52 -1.24 M162.03 70.51 C184.31 44.23, 202.7 21.52, 224.47 1.47 M161.89 69.98 C183.69 44.68, 206.25 18.06, 223.03 -0.32 M165.43 69.02 C179.53 56.45, 194.54 41.53, 226.57 1.26 M165.73 69.99 C184.52 49.79, 202.17 29.28, 227.66 -0.55 M170.58 70.12 C192.89 42.03, 216.53 16, 232.2 0.15 M172.96 70.29 C195.48 45.18, 217.38 17.73, 234.18 0.03 M175.74 69.77 C191.83 52.62, 209.89 34.38, 236.95 0.25 M176.89 69.93 C191.15 54.54, 206.08 37.7, 237.27 -0.33 M183.81 71.43 C197.33 56.99, 207.27 40.5, 242.69 -1.11 M183.66 69.24 C200.96 48.8, 218.43 29.04, 243.09 -0.88 M188.87 69.26 C204.58 53.5, 218.58 34.18, 249.51 2.07 M188.5 69.83 C210.07 44.27, 231.4 18, 247.97 0.77 M195.31 69.3 C210.87 48.92, 230.45 25.09, 256.06 0.31 M193.63 69.4 C213.43 47.6, 231.79 27.07, 254.53 -0.71 M200.31 68.7 C216.57 49.89, 232.8 29.96, 260.12 1.95 M198.61 69.72 C213.99 51.93, 231.04 32.62, 259.05 0.55 M204.98 68.83 C224.15 45.1, 245.84 19.65, 263.69 0.24 M204.12 69.48 C222.67 48.97, 241.37 27.81, 264.34 -0.5 M208.84 70.55 C226.34 48.92, 245.02 32.65, 269.55 -1.42 M208.39 70.24 C224.22 54.49, 237.81 35.7, 271.04 1.15 M212.97 71.33 C235 48.78, 254.4 25.22, 274.29 1.71 M214.97 69.32 C235.97 44.54, 256.15 19.99, 276.49 0.37 M218.51 68.48 C242.43 43.83, 264.63 18.01, 280.89 0.86 M219.13 69.7 C237.86 48.34, 256.33 27.83, 280.08 0.88 M225.74 68.33 C239.25 54.15, 250.73 42.04, 287.8 0.98 M225.65 70.92 C241.87 50.85, 259.44 32.79, 286.07 -0.87 M228.66 69.38 C244.96 51.95, 260.85 33.66, 289.48 1.92 M231.21 71.01 C254.2 43.48, 275.69 19.31, 290.94 -0.81 M234.01 71.56 C253.55 47.4, 276.23 25.47, 297.48 1.55 M236.21 69.4 C254.46 49.02, 271.8 30.41, 296.25 0.67 M239.9 71.36 C263.08 47.41, 283.21 22.69, 300.97 1.08 M241.13 70.77 C257.9 50.87, 276.59 30.37, 301.98 -0.35 M246.81 71.01 C269.12 44.11, 289.95 18.66, 307.85 0.12 M246.35 70.03 C266.46 46.35, 285.56 24.82, 307.34 0.53 M252.15 69.73 C271.91 43.36, 295.26 21.03, 313.27 1.93 M252.51 70.19 C265.05 55.8, 277.85 39.53, 312.17 0.99 M257.4 68.86 C280.6 45.96, 300.31 17.98, 316.72 0.59 M256.34 69.24 C278.52 46.37, 298.27 22.7, 317.73 -0.13 M262.59 71.05 C279.19 50.17, 292.06 32.51, 322.57 -1.78 M263.05 70.11 C274.31 55.35, 287.06 42.19, 324.1 0.08 M269.38 69.5 C288.62 43.78, 309.4 17.26, 329.17 0.12 M268.1 69.56 C290.97 43.83, 314.66 15.49, 328.95 0.5 M271.67 71.08 C285.78 54.82, 302.14 39.85, 331.39 2.23 M273.59 70.05 C288 52.76, 303.29 34.46, 330.99 3.18 M277.94 70.32 C293.82 49.59, 310.57 33.32, 331.7 8.1 M277.45 71.45 C297.23 49.51, 315.16 28.03, 330.74 8.93 M285.14 68.8 C300.04 52.28, 314.18 34.64, 331.93 13.72 M283.06 71.14 C296.16 54.91, 308.35 40.5, 331.09 13.99 M286.52 68.65 C304.75 52.43, 323.45 31.42, 331.22 20.09 M287.84 71.22 C298.58 60.69, 307.75 50.11, 331.08 21.22 M296.02 68.41 C301.36 59.21, 311.22 52, 331.1 28.07 M293.5 71.15 C302.65 60.2, 310.73 51.01, 331.69 26.73 M300.88 72.3 C304.62 63.91, 314.37 54.75, 333.28 33.86 M299.34 70.62 C311.92 54.47, 324.86 40.27, 331.45 32.07 M306.64 69.33 C309.35 63.48, 319.77 55.99, 331.53 38.42 M305.08 69.5 C312.2 61.46, 319.21 51.79, 331.11 39.33 M309.73 70.55 C318.29 63.9, 325.08 52.38, 332.09 43.41 M310.27 70.75 C314.7 65.27, 319.49 58.75, 331.79 43.86 M314.56 68.19 C321.51 63.26, 328.69 54.63, 330.18 52.4 M315.06 70.27 C319.49 65.93, 324.51 60.4, 332.34 51.11 M321.79 69.13 C323.31 67.39, 326.17 64.85, 330.64 58.58 M319.7 69.96 C323.99 65.51, 329.58 59.66, 331.51 57.39 M326.3 69.52 C327.27 68.8, 328.39 67.13, 331.47 63.19 M326.36 69.64 C327.61 67.62, 329.59 65.74, 332.22 63.04"
           stroke="#82c91e"
           stroke-width="0.5"
           fill="none"
           id="path20" />
        <path
           d="M0.94 -0.52 C95 2.54, 189.87 1.28, 329.1 -0.95 M0.43 -0.46 C95.5 1.55, 192.04 1.62, 328.99 -0.57 M328.96 -0.07 C328.4 21.66, 327.8 41.37, 327.03 67.78 M328.29 -0.89 C328.44 16.3, 328.25 32.42, 329.76 68.48 M328.77 69.13 C207.32 68.71, 86.62 67.81, 0.03 68.08 M329.06 68.12 C250.17 66.3, 171.09 66.53, 0.61 68.45 M0.55 66.88 C-0.34 44.28, -2.07 23.06, 1.23 0.92 M1 67.92 C-0.7 47.15, -0.01 25.94, 0.91 0.4"
           stroke="#000000"
           stroke-width="1"
           fill="none"
           id="path22" />
      </g>
      <g
         transform="translate(159.5 186.33333333333331) rotate(0 28 13)"
         id="g28">
        <text
           x="28"
           y="18"
           font-family="Virgil, Segoe UI Emoji"
           font-size="20px"
           fill="#000000"
           text-anchor="middle"
           style="white-space: pre;"
           direction="ltr"
           id="text26">Codec</text>
      </g>
    </g>
  </a>
  <a
     id="a371"
     xlink:href="http://kraken.re/master/api_docs.html#kraken.lib.models.TorchVGSLModel.user_metadata">
    <g
       id="g369">
      <g
         stroke-linecap="round"
         transform="translate(23 249.66666666666663) rotate(0 164.5 34)"
         id="g40">
        <path
           d="M0 0 C0 0, 0 0, 0 0 M0 0 C0 0, 0 0, 0 0 M-0.91 6.11 C0.54 5.19, 2.14 3.89, 5.72 0.59 M-0.43 6.28 C1.39 4.65, 2.27 3.69, 5.06 0.69 M0.93 12.43 C4.16 9.31, 7.84 2.7, 10.84 1.37 M0.31 11.8 C3.16 8.39, 7.96 3.21, 9.87 -0.02 M-0.16 16.8 C3.49 10.84, 9.65 6.71, 13.82 -0.37 M-1.08 18.91 C2.95 14.49, 6.4 9.71, 15.22 -0.38 M0.11 22.47 C6.82 15.77, 15.46 8.58, 23.05 0.75 M0.26 25.07 C7.93 15.27, 14.02 7.29, 20.44 -0.42 M1.38 31.29 C8.12 20.32, 17.45 10.65, 26.33 1.25 M0.99 30.52 C10.17 20.71, 18.4 8.37, 26.5 -0.5 M0.42 37.37 C5.08 30.16, 13.82 20.44, 30.1 -0.81 M0.56 36.66 C10.73 25.22, 19.85 12.99, 32.22 -0.3 M-1.4 43.18 C10.78 30.36, 20.79 21.6, 37.43 0.33 M-0.78 42.85 C13.82 27.26, 28.13 11.78, 37.73 0.86 M-0.93 49.67 C13.12 34.18, 27.56 18.54, 42.49 -2.03 M-1.04 48.33 C16.34 31.85, 30.42 13.86, 41.66 0.55 M0.58 52.79 C14.68 40.29, 27.42 24.96, 48.44 -1.29 M-0.03 55.43 C15.03 38.74, 30.14 21.84, 46.76 0.84 M-0.65 61.33 C15.99 43.8, 29.63 24.11, 53.9 -1.68 M0.34 61.29 C17.45 41.14, 34.55 22.96, 53.07 -1.07 M-1.05 65.48 C12.38 51.82, 24.24 36.31, 58.88 -0.49 M0.55 67.13 C19.46 45.14, 37.34 24.49, 57.58 0.7 M2.04 71.83 C22.06 50.84, 36.2 27.48, 63.22 -0.24 M3.01 69.09 C23.81 43.24, 46.49 17.2, 63.37 -0.71 M8.41 69.56 C28.96 49.69, 46.25 24, 68.51 1.14 M6.77 71.14 C26.09 50.8, 42.98 31.76, 69.31 0.78 M14.74 68.9 C37.26 43.59, 57.79 19.31, 72.55 -1.92 M13.03 69.37 C31.19 49.68, 48.51 30.08, 75.14 0.66 M19.79 71 C37.87 43.36, 61.92 19.49, 79.28 -0.74 M19 70.59 C41.3 43, 63.72 16.94, 79.22 -0.45 M22.19 68.67 C47.09 45.85, 66.22 21.71, 85.22 -0.65 M23.48 68.94 C46.25 44.19, 69.92 18, 85.6 -0.31 M28.42 70.26 C46.86 46.9, 66.45 24.76, 89.39 0.86 M29.5 70.47 C45.37 49.8, 61.97 31.29, 89.74 0.6 M33.2 69.46 C50.89 49.47, 65.97 31.96, 95.77 -2.08 M34.47 70.72 C55.61 47.8, 74.96 23.41, 95.61 -0.36 M39.46 69.08 C57.35 50.94, 72.08 29.98, 99.23 -1.84 M38.83 69.34 C63.61 40.91, 88.25 13.78, 101.4 -0.39 M46.13 71.65 C56.25 56.65, 72.71 39.03, 107.96 -1.57 M45.58 70.44 C67.01 43.76, 89.97 17.33, 106.65 -0.64 M51.31 71.46 C69.74 46.6, 91.93 19.86, 109.43 -1.3 M50.17 69.39 C64.17 53.33, 78.13 37.11, 111.91 -0.63 M53.55 68.63 C73.37 52.46, 89.07 33.97, 116.13 -1.44 M55.49 70.71 C77.14 45.52, 96.98 21.92, 117.22 1.1 M61.57 69.69 C82.65 45.2, 104.84 18.33, 122.83 -0.71 M60.34 69.39 C74.09 55.71, 88.19 40.66, 121.09 0.8 M64.26 69.35 C83.74 50.17, 100.43 30.55, 125.78 -0.02 M65.09 70.5 C87.57 43.35, 110.87 17.12, 126.4 0.42 M73.06 70.35 C95.11 46.07, 116.13 17.36, 134.49 0.01 M70.82 69.75 C87.04 51.92, 104.26 33.37, 131.93 -0.11 M75.95 69.26 C90.53 55.11, 106.19 37.77, 135.68 -1.07 M77.01 71.13 C90.08 56.41, 101.49 40.76, 136.96 -0.23 M83.84 68.28 C100.31 47.92, 117.08 29.3, 141.69 -1.77 M82.7 69.47 C97.96 52.86, 112.56 34.47, 143.52 0.78 M88.53 69.1 C109.86 43.67, 130.03 17, 146.46 1.18 M88.08 70.05 C105.27 48.56, 124.66 25.61, 148.96 0.46 M93.16 68.64 C113.49 46.72, 131.02 27.72, 153.93 -1.39 M93.73 69.18 C110.46 49.78, 127.38 29.69, 154.14 0.71 M98.12 68.91 C113.24 51.68, 131.16 31.68, 157.99 0.76 M98.23 69.8 C118.5 45.49, 140.27 20.19, 158.09 0.41 M103.5 68.83 C122.46 49.39, 141.45 28.25, 162.92 -0.93 M103.31 70.09 C120.6 49.28, 138.39 31.42, 164.17 -0.99 M107.05 70 C124.19 55.35, 136.38 35.01, 171.34 2 M107.54 71.03 C128.68 48.25, 148.29 25.07, 168.71 1.13 M114.58 68.54 C135.62 43.76, 154.5 19.38, 176.6 0.83 M113.46 69.04 C136.3 43.98, 158.55 18.23, 175.16 0.13 M117.9 68.94 C136.63 47.43, 155.41 27.32, 178.79 1.5 M119.24 69.51 C132.09 55.23, 144.17 41.87, 180.78 0.75 M125.29 71.77 C140.81 50.19, 159.29 33.21, 185.12 -1.62 M123.85 69.47 C139.93 51.47, 155.96 33.02, 184.77 0.64 M131.43 71.61 C154.26 42.48, 174.57 20.23, 189.88 -1.86 M128.69 71.12 C148.16 48.2, 169.03 26.27, 190.93 1.02 M135.8 68.77 C154.43 48.26, 171.79 30.98, 194.86 1.5 M134.79 70.44 C156.73 46.04, 177.43 21.45, 195.83 0.21 M140.65 71.16 C156.81 51.1, 176.88 30, 201.32 -0.9 M140.4 70.82 C162.28 44.73, 183.48 19.6, 201.43 0.28 M145.44 70.07 C165.69 45.39, 184.3 24.86, 206.4 1.25 M146.23 69.61 C166.81 43.9, 189.14 20.49, 207.29 0.61 M152.77 70.02 C164.99 56.37, 177.6 38.78, 211.07 1.82 M151.02 69.73 C173.6 45.86, 194.37 19.32, 211.18 0.5 M154.8 68.51 C178.82 45.84, 198.02 21.86, 216.56 -0.03 M156.76 70.25 C172.72 50.36, 187.13 32.35, 217.26 -1.26 M163.22 69.91 C172.73 54.34, 185.86 42.23, 224.3 0.03 M162.32 70.03 C182.65 44.19, 204.09 18.21, 222.72 0.25 M167.01 69.95 C189.43 45.23, 213.73 15.07, 228.36 1.27 M165.96 71 C180.98 54.26, 196.9 37.87, 227.97 -0.4 M173.67 69.82 C187.72 52.71, 203.43 33.21, 231.39 1.74 M172.24 70.05 C191.29 47.55, 210.44 27.02, 233.24 -0.31 M176.41 72.25 C199.48 47.06, 219.22 22.66, 236.4 0.81 M178.01 69.84 C196.69 48.45, 214.92 26.8, 238.14 0.04 M181.98 72.02 C199.09 50.58, 214.15 32.5, 241.96 -0.76 M181.85 69.19 C206.14 44.09, 230.34 16.5, 243.56 -0.37 M186.56 71.84 C202.29 57.04, 215.1 42.25, 247.45 1.26 M188.77 69.63 C200.63 54.09, 215.15 39.46, 248.62 0.78 M192.24 72.08 C207.35 53.92, 220.3 39.23, 254.83 -0.9 M194.34 71 C205.4 56.02, 219.96 40.31, 255.16 0.46 M198.92 70.67 C222.23 40.48, 246.28 14.18, 258.55 -1.16 M199.39 70.07 C212.42 53.3, 229.45 35.96, 259.4 -0.1 M204.77 68.83 C221.02 50.38, 237.07 28.72, 264.04 0.19 M204.08 70.11 C224.44 48.2, 243.59 24.32, 265.12 -0.82 M210.15 70.96 C222.51 55.95, 235.53 38.97, 269.6 -1.7 M208.66 69.49 C231.51 44.72, 254.54 18.04, 269.29 0.84 M214.09 70.39 C230.42 52.98, 248.02 33.23, 276.85 -0.38 M215.55 69.27 C230.53 51.63, 246.72 33.45, 275.21 0.42 M218.15 69.23 C241.36 43.07, 267.87 13.94, 280.71 -0.34 M220.03 69.81 C234.83 53.78, 249.44 36.54, 280.23 0.13 M226.95 68.16 C243.46 46.4, 263.46 25.13, 287.76 -1.17 M224.39 70.33 C242.16 50.78, 258.81 31.71, 286.82 -0.61 M232.03 70.27 C254.17 43.82, 276.1 20.03, 290.24 0.23 M230.57 69.57 C249.34 48.74, 267.15 28.21, 292.3 0.44 M236.32 70.83 C257.86 47.46, 278.09 24.52, 296.45 1.5 M236.35 69.28 C251.16 53.7, 266.5 35.48, 297.96 -1.07 M242.09 69.15 C254.38 52.12, 269.44 38.02, 300.73 0.6 M239.99 70.91 C253.68 54.43, 266.7 38.74, 302.73 -0.47 M247.38 70.35 C264.52 51.92, 280.71 32.89, 305.86 -0.38 M246.36 69.17 C264.52 47.64, 284.01 26.05, 308.31 0.48 M249.91 69.22 C271.58 46.42, 293.51 22.18, 312.98 -1.37 M251.64 70.61 C266.54 52.09, 280.97 35.37, 312.88 -0.73 M255.54 67.98 C271.38 55.59, 284.14 39.31, 320.1 -0.55 M257.46 69.2 C276.17 48.66, 294.33 26.28, 318.18 -0.89 M262.22 72.13 C281.62 48.95, 297.15 28.71, 323.98 -0.52 M261.54 71.01 C279.06 50.66, 296.06 33.33, 323.25 0.65 M268.41 68.23 C279.54 55.23, 295.12 42.34, 330.56 -0.48 M267.85 69.67 C285.02 50.38, 301.82 32.29, 329.52 0.47 M273.02 71.78 C294.38 45.66, 315.17 19.25, 330.97 3.85 M273.3 71.09 C293.36 44.42, 315.63 21.22, 332.53 3.02 M279.19 69.68 C296.93 48.99, 315.59 28.34, 329.92 9.73 M277.21 69.73 C298 47.81, 318.33 23.5, 331.05 8.88 M281.51 68.37 C300.11 50.6, 314.93 36.82, 330.83 12.98 M283.23 69.45 C296.51 55.44, 308.74 40.22, 331.94 14.13 M287.25 71.89 C302.18 54.28, 311.81 41.55, 331.23 21.12 M288.32 71.39 C305.87 50.65, 321.49 33.06, 332.24 20.2 M294.11 70.39 C306.53 54.06, 320.67 40.12, 333.09 28.84 M293.22 69.27 C303.9 60.09, 311.5 49.42, 331.28 27.24 M300.2 70 C310.41 54.81, 324.42 44.36, 330.12 34.08 M298.13 71.03 C312.19 57.35, 324.55 43.09, 332.6 32.9 M306.45 68.59 C314.53 59.91, 320.71 49.83, 332.93 40.16 M303.85 69.36 C310.85 61.72, 318.28 54.06, 330.93 38.26 M310.55 69.65 C314.19 64.63, 319.67 58.37, 330.84 44.27 M309.41 71.38 C314.42 64.43, 321.67 58.06, 332.64 45.07 M313.39 70.02 C322.63 61.2, 329.08 54.09, 329.79 51.29 M315.3 69.13 C319.65 65.5, 323.04 62.43, 331.44 51.47 M320.91 69.88 C325.66 66.76, 328.41 61.77, 330.37 58.27 M320.95 71.15 C325.13 65.95, 328.24 60.6, 330.95 57.25 M326.46 70.93 C327.99 67.99, 330.24 66.4, 331.94 64.06 M326.2 69.86 C327.99 68.06, 328.97 66.27, 331.57 63.38"
           stroke="#82c91e"
           stroke-width="0.5"
           fill="none"
           id="path36" />
        <path
           d="M0.27 0 C116.53 1.84, 234.08 1.66, 328.22 1.15 M-0.43 -0.65 C109.74 0.83, 217.73 1.6, 328.86 0.17 M330.35 -1.61 C330.36 22.82, 330.7 41.45, 327.31 69.96 M329.45 0.99 C328.43 23.49, 328.8 47.52, 328.94 67.69 M328.61 66.65 C231.93 65.13, 131.19 65.46, 0.14 67.61 M328.97 67.86 C258.17 70.34, 186.66 70.53, -0.41 68.34 M-0.02 69.77 C0.79 45.26, 0.87 23.4, 0.08 -0.55 M0.52 68.44 C-0.18 54.9, -0.58 39.8, -0.56 -0.1"
           stroke="#000000"
           stroke-width="1"
           fill="none"
           id="path38" />
      </g>
      <g
         transform="translate(137.5 270.66666666666663) rotate(0 50 13)"
         id="g44">
        <text
           x="50"
           y="18"
           font-family="Virgil, Segoe UI Emoji"
           font-size="20px"
           fill="#000000"
           text-anchor="middle"
           style="white-space: pre;"
           direction="ltr"
           id="text42">Metadata</text>
      </g>
    </g>
  </a>
  <a
     id="a386"
     xlink:href="http://kraken.re/master/api_docs.html#module-kraken.lib.ctc_decoder">
    <g
       id="g384">
      <g
         stroke-linecap="round"
         transform="translate(22.5 334) rotate(0 164.5 34)"
         id="g50">
        <path
           d="M0 0 C0 0, 0 0, 0 0 M0 0 C0 0, 0 0, 0 0 M-0.77 6.16 C0.32 4.6, 1.34 2.99, 5.43 0.57 M-0.63 6.59 C1.52 4.24, 3.1 2.66, 5.34 -0.02 M1.29 13.25 C3.61 8.34, 5.75 5.72, 10.02 0.87 M-0.14 11.39 C2.24 8.77, 4.37 5.94, 10.35 0.36 M1.5 18.4 C6.48 11.86, 8.86 5, 15.74 0.75 M-0.31 19.2 C3.77 14.03, 6.18 10.13, 14.64 -0.64 M0.42 25.54 C4.72 17.68, 11.9 12.99, 21.83 1.81 M0.3 23.77 C5.44 17.5, 9.75 11.85, 20.41 0.22 M-0.11 29.13 C8.38 22.6, 14.93 11.38, 26.31 1.53 M-0.68 29.59 C10.24 19.67, 20.22 8.64, 27.19 1.21 M-1.33 36.83 C7.8 26.62, 17.32 16.92, 31.91 -1.76 M-1.1 36.37 C7.55 28.58, 14.98 19.45, 32.86 0.12 M1.88 43.89 C14.8 27.49, 26.65 12.46, 37.77 -0.85 M0.59 42.67 C9.48 34.01, 18.29 23.08, 36.18 0.96 M0.26 49.21 C10.38 35.05, 21.57 22.71, 43.96 -1.81 M-0.76 48.8 C12.42 34.28, 25.1 19.67, 42.98 -0.44 M1.93 53.87 C15.03 38.39, 26.89 22.75, 47.33 -0.19 M0.53 55.14 C19.29 33.82, 36.87 13.09, 46.86 0.18 M0.35 60.99 C12.9 48.82, 24.28 32.44, 54.03 0.77 M-0.38 60.73 C19.3 39.42, 39.24 15.81, 53.25 -0.94 M-1.92 66.28 C23.8 39.45, 44.26 13.71, 59.4 1.99 M0.65 67.61 C12.54 52.23, 25.25 37.59, 58.16 1.06 M4.61 71.03 C21.09 50.93, 37.15 29.61, 64.41 -1.67 M3.28 70.64 C16.22 55.08, 27.1 40.33, 64.27 -0.76 M8.4 70.29 C27.53 47.23, 48.98 20.65, 67.62 -1.55 M8.42 69.42 C25.52 51.17, 41.67 31.47, 69.64 -0.58 M14.56 69.4 C32.03 44.72, 53.35 25.64, 73.59 -1.47 M12.7 69.6 C35 45.36, 55.14 20.27, 73.8 -0.17 M20.12 71.74 C30.61 54.61, 47.36 40.65, 80.85 -1.78 M17.39 70.43 C32.72 52.3, 47.67 35.75, 78.49 -0.34 M25.79 69.59 C46.65 43.4, 72.44 13.83, 86.3 -1.7 M24.91 70.4 C46.63 45.38, 67.54 19.71, 85.74 0.68 M29.95 69.95 C47.37 48, 67.03 27.45, 89.16 0.63 M28.52 70.81 C53.54 43.31, 77.52 15.38, 90.57 -0.19 M35.02 70.3 C53.37 47.98, 73.3 25.43, 95.45 -2.14 M35.43 70.37 C49.12 54.04, 64.2 36.03, 95.13 -1.27 M41.46 68.49 C61.11 46.24, 83.83 20.98, 101.86 1.29 M40.52 70.82 C60.73 46.13, 81.83 22.12, 101.35 0.49 M45.5 71.25 C61.53 51.36, 76.11 32.28, 108.21 -1.31 M44.78 70.21 C67.13 47.65, 87.39 22.98, 107.13 -0.94 M48.42 68.25 C62.55 53.47, 80.03 37.97, 109.44 -1.92 M50.27 70.83 C66.24 53.26, 81.04 34.89, 110.96 -0.04 M55.69 72.21 C67.12 57.04, 80.61 41.7, 115.3 2.33 M56.08 69.97 C72.61 49.38, 90.2 30.51, 115.42 0.58 M60.83 69.38 C80.21 48.98, 101.03 24.78, 121.65 1.17 M61.78 70.33 C76.96 50.53, 94.75 31.71, 121.15 -0.95 M65.29 71.46 C77.04 56.14, 90.49 42.46, 127.62 1.33 M66.12 70.56 C81.61 53.26, 98.86 33.04, 127.76 0.07 M70.91 69.3 C94.8 46.76, 114.6 22.03, 133.43 -0.99 M71.17 70.91 C89.95 48.81, 108.55 26.4, 132.34 0.23 M75.86 68.82 C99.93 41.93, 124.34 16.21, 138.31 1.77 M76.99 69.76 C96.14 48.31, 115.74 25.27, 137.1 -0.34 M83.09 68.73 C101.63 48.45, 120.24 26.49, 142.95 0.31 M81.75 69.27 C96.41 53.1, 110.36 38.68, 142.56 0.57 M88.22 72.41 C108.79 44.43, 132.62 18.34, 147.42 -1.71 M86.43 69.94 C102.93 53.57, 118.99 34.95, 147.17 0.86 M92.03 69.67 C115.82 43.74, 140.26 14.48, 153.61 0.11 M92.94 70.23 C107.33 54.67, 122.34 37.14, 154.5 0.74 M96.36 68.61 C119.25 46.55, 142.89 20.96, 159.18 0.77 M96.81 71.11 C118.76 47.16, 138.49 23.04, 158.86 0.28 M104.59 69.39 C126.7 45.34, 147.67 19.89, 164 1.67 M103.31 69.7 C124.62 45.59, 145.58 21.03, 164.48 0.04 M109.53 72.08 C127.32 51.66, 142.65 27.79, 168.07 0.41 M108.13 69.85 C132.04 43.06, 156.46 15.68, 169.18 0.64 M113.88 70.44 C129.57 52.8, 144.48 34.95, 173.96 -1.41 M113.56 69.71 C130.18 50.77, 144.97 33.17, 175.48 -0.64 M118.17 71.77 C139.21 45.67, 163.66 20.97, 180.77 -0.34 M119.07 70.37 C136.29 49.63, 155.41 27.64, 180.3 -0.25 M125.2 70.67 C138.95 50.54, 157.03 33.23, 186.53 0.71 M125.54 69.41 C144.46 46.22, 164.76 23.14, 186.09 0.21 M127.95 68.91 C153.55 43.84, 177.65 15.14, 190.18 -1.73 M129.9 69.51 C150.25 47.7, 168.62 25.29, 190.52 -0.43 M134.07 69.2 C150.75 51.63, 167.45 34.54, 197.97 0.16 M135.25 70.04 C159.46 43.95, 182.41 15.28, 195.57 -0.3 M141.76 71.02 C158.75 48.76, 171.98 30.24, 201.43 -0.73 M139.56 69.68 C163.14 44.58, 186.66 17.79, 201.28 -0.88 M144.25 68.42 C165.09 50.33, 179.19 28.35, 207.77 1.37 M145.81 69.96 C162.56 48.38, 180.89 28.17, 206.81 -0.44 M149.71 69.87 C164.62 55.84, 179.59 39.99, 213.85 -1.04 M150.63 69.92 C170.24 48.56, 189.27 26.54, 212.16 -0.43 M157.71 68.02 C180.09 40.26, 204.49 12.99, 216.62 -0.96 M156.49 69.64 C179.68 40.63, 204.44 13.63, 217.32 -0.88 M163.12 71.55 C178.17 53.83, 192.27 35.52, 223.01 0.94 M162.33 70.88 C179.46 51.05, 196.25 32.22, 221.9 -0.81 M167.96 71.72 C185.19 49.31, 203.63 27.47, 228.44 0.13 M167.06 71.41 C184.24 50.52, 200.29 29.92, 228.29 0.33 M172.54 70.41 C189.04 52.06, 204.18 29.56, 234.69 -1.94 M171.51 69.83 C193.42 46.04, 215.21 19.35, 233.35 0.34 M176.74 70.25 C193.47 54.48, 207.16 36.14, 239.72 -1.33 M177.37 71.45 C192.25 52.95, 206.43 37.81, 238.86 -0.5 M181.73 71.09 C194.82 51.51, 211.32 36.5, 242.88 -1.52 M183.67 69.61 C202.15 47.97, 220 25.18, 244.51 0.51 M187.99 71.89 C200.73 56.98, 214.03 40.86, 248.12 -1.31 M188.46 71.3 C210 45.23, 230.19 20.95, 249.8 1.28 M193.67 70.49 C217.34 42.86, 242.06 13.39, 255.8 -0.36 M193.94 69.71 C208.57 51.41, 222.88 34.27, 253.55 -0.71 M196.58 69.45 C215.71 52.7, 230.35 34.51, 258.57 0.76 M198.16 69.87 C212.68 52.25, 228.73 36.28, 258.54 0.19 M204.57 71.82 C227.42 41, 251.02 13.61, 265.88 -1.75 M204.11 69.22 C224.84 46.88, 246.56 21.36, 265.73 -0.61 M209.54 71.02 C228.33 47.81, 252.31 20.61, 271.86 0.99 M209.45 71.19 C229.82 47.46, 250.7 24.65, 270.82 0.63 M213.84 70.57 C229.06 54.88, 246.18 37.56, 275.79 0.3 M215.6 69.82 C234.6 46.31, 255.94 21.9, 276.49 -0.39 M220.18 69.97 C233.09 55.07, 247.3 36.77, 282.01 1.77 M219.44 71.36 C239.48 46.31, 260.76 23.79, 281 0.57 M226.12 68.47 C244.48 47.43, 267.99 21.57, 284.38 -0.93 M224.45 70.82 C238.34 53.65, 252.2 37.54, 286.39 -0.13 M229.97 70.94 C247.73 52.39, 263.42 30.2, 290.23 1.76 M230.39 69.62 C242.93 56.66, 255.12 41.51, 291.11 0.62 M237.26 71.59 C257.5 44.31, 281.63 19.83, 296.76 1.11 M236.39 70.14 C259.4 44.52, 280.9 18.81, 296.15 0.21 M242.64 71.88 C257.94 54.77, 271 36.79, 302.99 1.91 M240.69 71.32 C262.96 44.59, 286.21 16.52, 301.78 0.99 M248.35 68.24 C263.13 49.96, 277.56 33.29, 306.23 0.26 M245.74 69.29 C270.8 42.23, 293.64 16.24, 307.62 -0.23 M250.13 69.99 C272.65 44.75, 296.85 18.43, 313.96 -0.56 M251.88 70.91 C271.13 48.84, 290.38 26.05, 313.33 0.5 M255.68 71.03 C272.4 50.57, 290.39 33.61, 316.32 -0.35 M256.48 70.41 C273.99 51.44, 290.04 32.91, 318.77 -0.21 M262.58 71.77 C274.17 56.39, 287.4 40.14, 322.02 1.88 M261.63 70.95 C275.37 54.65, 289.19 40.49, 322.67 -0.43 M268.76 70.84 C281.51 52.03, 297.41 34.23, 330.78 1.67 M267.25 69.24 C280.29 53.91, 294.97 37.21, 328.75 0.63 M274.38 70.99 C287.77 54.15, 301.3 40.22, 331.31 3.27 M272.77 71.11 C288.85 52.76, 303.18 35.99, 332.42 1.52 M279.66 71.59 C295.61 48.28, 314.58 28.35, 331.7 7.07 M277.64 70.88 C294.35 52.42, 309.46 34.17, 330.94 7.82 M282.1 70.71 C293.79 59.81, 305.51 47.05, 330.6 13.23 M284.25 71.17 C298.19 54.26, 314.32 35.96, 331.24 14.52 M287.66 69.22 C301.47 53.81, 316.64 39.54, 330.52 20.76 M287.88 69.78 C301.57 54.46, 315.18 40.55, 331.02 20.89 M294.56 69.28 C302.74 59.13, 316.07 47.31, 330.3 29.06 M294.18 70.01 C305.98 57.18, 316.04 44.39, 331.86 26.79 M297.25 70.22 C309.12 57.12, 321.54 46.61, 330.26 31.98 M299.85 71.27 C308.32 59.05, 318.61 47.22, 332.15 32.52 M302.8 70.3 C311.52 65.11, 317.62 54.45, 331.49 37.89 M304.78 70.65 C311.56 62.27, 317.79 55.84, 331.07 39.68 M310.84 70.59 C315.81 65.59, 318.55 56.48, 331.55 44.24 M310.73 69.53 C318.02 59.84, 326.38 50.61, 332.04 45.49 M314.05 68.69 C320.04 62.27, 328.72 56.33, 332.49 49.39 M315.44 69.18 C320.9 63.35, 327.21 56.06, 331.38 51.42 M321.78 70.6 C322.48 65.8, 325.12 61.84, 332.41 58.9 M321.2 71.21 C325.3 65.01, 329.29 61.57, 331.79 57.5 M325.9 69.41 C328.34 68.05, 329.8 64.57, 332.63 63.04 M325.86 69.95 C328.5 67.53, 330.32 64.81, 332.19 63.19"
           stroke="#82c91e"
           stroke-width="0.5"
           fill="none"
           id="path46" />
        <path
           d="M-0.04 0.17 C114.84 -1.69, 228.9 -1.28, 328.23 -1.11 M0.26 -0.15 C88.97 1.26, 177.14 0.86, 328.98 -0.33 M330.04 -0.5 C330.71 18.97, 327.89 35.09, 328.94 67.26 M328.12 0.29 C328.94 14.38, 329.16 29.74, 329.58 68.98 M328.93 67.66 C234.73 67.86, 141.3 67.06, 0.47 67.99 M328.35 68.68 C253.05 66.97, 175.61 65.78, 0.03 67.48 M-0.88 66.37 C0.06 46.82, 1.38 24.18, -1.78 1.93 M-0.61 68.8 C0.85 42.7, 1.01 18.79, -0.49 -0.38"
           stroke="#000000"
           stroke-width="1"
           fill="none"
           id="path48" />
      </g>
      <g
         transform="translate(122 355) rotate(0 65 13)"
         id="g54">
        <text
           x="65"
           y="18"
           font-family="Virgil, Segoe UI Emoji"
           font-size="20px"
           fill="#000000"
           text-anchor="middle"
           style="white-space: pre;"
           direction="ltr"
           id="text52">CTC Decoder</text>
      </g>
    </g>
  </a>
  <a
     id="a341"
     xlink:href="http://kraken.re/master/api_docs.html#kraken.lib.models.TorchVGSLModel">
    <g
       id="g339">
      <g
         stroke-linecap="round"
         transform="translate(23 81) rotate(0 164.5 34)"
         id="g34">
        <path
           d="M0 0 C0 0, 0 0, 0 0 M0 0 C0 0, 0 0, 0 0 M-1.01 6.92 C1.03 4.5, 3.76 2.57, 5.74 -0.3 M-0.39 6.43 C0.71 4.93, 2.09 3.93, 5.03 0.05 M-0.72 13.32 C1.32 9.22, 3.45 6.6, 9.76 0.1 M0.03 11.32 C4.62 8.25, 8.44 2.86, 11.24 0.73 M-1.75 18.39 C7.16 11.34, 11.67 6.42, 16.21 0.07 M0.31 19.41 C3.02 14.26, 7.36 10.03, 14.7 0.57 M0.66 25.17 C6.7 18.31, 10.84 8.62, 21.7 -0.09 M-0.43 23.74 C7.35 15.74, 15.78 6.03, 20.51 -0.4 M-0.84 30.47 C4.82 22.12, 10.66 17.34, 24.8 -0.98 M0.39 30.05 C7.61 23.58, 13.83 14.47, 27.04 0.7 M-1.34 35.96 C5.31 28.85, 12.56 21.51, 31.29 -0.11 M-0.99 36.34 C8.37 27.69, 15.81 18.27, 31.09 -0.97 M-0.02 41.97 C11.46 28.06, 25.3 16.33, 36.57 -0.64 M-0.12 41.88 C10.1 31.97, 18.17 22.27, 36.45 0.21 M1.68 50.91 C15.36 28.85, 33.58 13.58, 40.64 1.74 M-0.71 49.36 C13.49 31.91, 28.51 15.03, 41.65 -0.85 M-1.57 53.19 C12.28 39.54, 25.9 22.89, 46.73 2.09 M0.6 54.52 C14.95 37.7, 28.77 22.54, 48.39 -0.01 M-0.35 62.43 C15.52 42.38, 30.71 22.01, 52.34 -0.67 M0.53 60.11 C17.49 39.12, 37.05 17.59, 53.31 -0.99 M-0.17 65.37 C15.26 52.55, 26.72 34.91, 59.78 -0.54 M0.36 67.47 C12.9 51.72, 25.82 35.88, 58.41 0.53 M3.07 70.33 C16.7 56.66, 30.33 38.42, 63.28 0.75 M2.22 69.76 C19.5 51.57, 35.28 33.77, 62.83 -0.18 M9.62 70.67 C27.79 45.98, 51.99 22, 67.49 0.91 M8.39 71.07 C26.94 47.26, 47.29 26.13, 69.2 1 M12.33 68.67 C33.37 47.78, 49.69 27.32, 74.62 -1.7 M13.58 69.12 C25.19 55.55, 37.33 42.04, 73.54 -0.06 M18.44 70.8 C37.99 51.85, 55.45 30.15, 78.93 -0.89 M17.45 70.13 C35.01 48.08, 53.86 28.25, 79.53 0.19 M24 69.8 C46.67 44.31, 69.69 19.47, 85.82 -1.47 M24.85 69.73 C47.52 41.66, 71.78 12.66, 84.41 -0.15 M30.49 69.95 C49.11 45.65, 68.87 24.42, 90.42 -0.04 M29.18 69.86 C52.21 43.37, 75.51 15.99, 89.29 -0.47 M33.8 70.22 C49.92 54.67, 61.72 39.91, 96.6 0.17 M35.22 70.71 C47.96 55.98, 60.46 40.79, 95.01 -0.81 M40.86 69.49 C56.98 52.32, 69.19 35.36, 99.59 0.54 M40.47 69.58 C53.39 54.32, 66.14 40.45, 100.48 0.1 M46.04 70.43 C66.43 48.95, 82.63 25.7, 104.98 0.19 M45.35 71.58 C60.88 50.63, 77.91 32.15, 106.51 -0.28 M50.96 69 C65.24 52.01, 81.23 32.91, 111.34 -0.8 M49.8 70.75 C71.28 46.46, 89.81 22.36, 112.2 -0.38 M54.34 69.86 C70.19 52.97, 86.96 34.49, 116.59 0.54 M54.96 70.24 C79.54 42.83, 102.32 16.58, 116.06 1.11 M62.43 68.3 C74.71 50.64, 92.37 34.03, 123.85 1.48 M60.29 69.95 C80.32 47.36, 100.6 25.23, 121.68 -0.57 M67.58 69.45 C85.13 46.51, 107.75 23.11, 125.31 -0.9 M65.95 70.47 C78.64 56.64, 90.6 42.59, 126.35 0.91 M71.24 69.42 C95.45 42.16, 115.04 17.91, 130.59 -1.86 M70.63 69.94 C87.41 52.53, 104.95 33.93, 133.24 -0.45 M74.61 70.57 C98.37 44.99, 120.61 20.74, 139.34 0.25 M75.93 69.97 C98.46 44.77, 119.86 19.94, 136.74 0.05 M81.61 70.6 C94.28 55.06, 107.65 41.65, 142.29 -0.85 M82.15 70.58 C97.56 53.82, 112.77 36.15, 143.32 -0.39 M85.54 69.83 C101.84 51.19, 120.91 32.43, 149.82 1.84 M86.67 70.07 C108.82 45.7, 130.11 21.25, 148.84 0.88 M92.05 68.32 C107.82 54.24, 118.88 38.79, 152.99 -0.26 M93.78 69.92 C109.07 49.9, 126.48 29.97, 153.46 -0.13 M97.77 69.07 C114.28 48.37, 131.8 31.37, 160.16 1.92 M97.02 70.72 C111.93 55.78, 124.67 38.86, 158.89 0.87 M105.35 71.24 C125.73 45.92, 147.58 19.54, 165.99 -1.7 M103.05 69.09 C127.73 42.99, 151.39 15.49, 165.31 0.28 M110 69.32 C129.21 44.32, 149.59 20.11, 168.06 0.78 M107.95 69.54 C126.21 51.11, 143.69 29.86, 168.7 -0.37 M114.58 70.29 C128.83 54.48, 139.05 40.57, 175.89 -1.52 M113.11 69.41 C133.62 47.72, 154.12 24.84, 175.65 -0.62 M120.18 68.85 C140.18 48.11, 159.18 22.18, 179.51 -1.09 M119.54 70.78 C135.26 52.62, 150.16 36.32, 180.74 -0.09 M125.11 68.58 C140.16 53.47, 151.38 40.8, 186.54 -0.86 M123.72 69.32 C137.31 54.66, 151.56 40.49, 185.35 -0.63 M131.55 69.14 C151.93 45.67, 175.6 16.67, 190.75 -0.97 M129.96 70.31 C144.46 54.2, 157.73 38.14, 191.05 0.62 M136.55 71.45 C152.55 48.99, 167.51 30.01, 197.11 0.35 M136.24 69.41 C156.26 44.26, 176.95 20.3, 196.39 -0.9 M138.64 68.9 C164.97 41.86, 186.08 15.39, 202.34 0.07 M140.52 70.67 C161.6 45.25, 184.72 20.79, 202.29 -0.21 M144.84 68.47 C167.04 42.02, 192.35 18.11, 208.02 1.41 M146.65 69.38 C170.03 43.54, 194.37 15.31, 206.86 -0.95 M149.27 70.03 C172.26 47.6, 188.99 24.92, 213.09 -0.82 M150.63 70.03 C175.44 42.67, 200.44 14.35, 212.74 -0.41 M156.17 71.41 C174.65 46.87, 196.29 26.61, 218.98 -1.17 M156.53 69.12 C177.85 45.36, 199.24 21.89, 217.96 0.34 M162.51 71.68 C181.51 47.1, 198.3 26.83, 222.11 1.75 M160.79 71.19 C179.95 49.64, 195.89 29.12, 223.27 -0.65 M168.35 69.02 C179.73 55.64, 197.11 37.76, 227 0.35 M167.43 70.38 C179.72 54.75, 193.27 40.89, 229.01 -0.27 M170.73 68.2 C191.48 48.64, 213.51 25.53, 234.79 -0.65 M171.64 70.62 C186.9 53.1, 202.52 36.12, 232.39 0.52 M175.47 70.02 C191.56 52.59, 208.63 34.98, 239.69 -0.34 M176.45 70.8 C197.8 48.29, 217.38 24.85, 237.76 -0.62 M181.6 71.18 C203.28 46.63, 221.12 23.32, 244.78 -0.2 M182.89 69.39 C196.6 54.41, 210.43 40.88, 243.19 -0.29 M185.91 69.58 C212.97 42.04, 232.7 15.87, 247.91 -0.58 M187.35 71.41 C199.13 57.12, 212.79 42.53, 248.07 0.83 M192.03 71.4 C214.86 45.52, 235.16 25.22, 256.05 1.14 M194.41 70.25 C209.01 51.83, 223.73 34.82, 254.37 -0.36 M198.99 72.37 C216.85 48.48, 235.85 27.28, 259.87 1.79 M198.16 70.65 C216.39 48.49, 236.09 26.82, 258.92 0.52 M202.25 68.89 C220.95 50.31, 239.09 32.58, 264.81 1.6 M203.13 70.56 C224.44 47.71, 245.23 23.47, 265.27 0.2 M210.31 71.26 C231.63 41.71, 258.7 16.25, 269.66 -0.63 M209.51 70.08 C227.27 47.6, 247.52 27.04, 270.05 -0.24 M213.75 70.86 C226.48 53.61, 241.25 39.05, 277.58 1.65 M214.12 69.33 C233.61 46.86, 252.35 23.88, 274.8 -0.58 M217.77 69.34 C243.35 45.82, 266.54 18.46, 282.7 1.98 M219.64 69.41 C242.16 44.37, 265.91 18.67, 280.32 0.53 M227.3 69.77 C244.2 47.77, 266.64 23.76, 285.15 -2.01 M225.55 70.23 C240.63 53.38, 254.39 36.34, 286.5 0.45 M231.52 69.91 C253.24 42.41, 277.81 18.31, 289.66 -1.34 M229.4 69.49 C249.73 49.47, 267.33 28.5, 290.7 0.44 M236.96 69.3 C252.22 49.62, 267.73 33.13, 296.59 1.5 M235.7 70.54 C259.2 42.54, 282.86 15.3, 297.53 0.59 M240.02 70.51 C255.14 50.11, 271.02 35.44, 300.51 -0.31 M241.24 71.31 C253.15 55.99, 266 41.22, 301.26 -0.27 M248.07 70.32 C262.5 51.66, 276.06 34.89, 309.26 -0.68 M245.96 70.2 C271.99 42.23, 295.97 13.98, 307.64 0.29 M251.99 68.89 C267.47 53.93, 279.28 35.11, 314.49 -1.46 M252.25 71 C274.88 44.05, 298.99 17.02, 312.2 0.28 M255.25 68.95 C276.56 46.49, 295.26 23.63, 318.78 0.78 M257.83 70.78 C282.29 42.75, 305.3 14.9, 318.19 0.13 M262.45 69.01 C281.29 45.81, 303.74 23.73, 322.14 1.92 M263.08 70.83 C279.67 48.81, 298.12 26.81, 322.81 0.64 M268.4 70.51 C287.53 44.4, 308.96 21.39, 329.09 -0.55 M267.91 70.5 C283.57 50.83, 300.78 33.09, 329.16 -0.16 M274.68 71.05 C289.48 53.23, 304.24 33.18, 333.28 2 M273.05 70.21 C296.78 43.6, 319.31 18.86, 332.53 3.22 M278.04 72.3 C288.24 57.17, 301.61 42.3, 330.5 8.16 M278.27 69.98 C296.57 49.61, 313.98 29.69, 332.26 8.33 M282.26 69.43 C302.6 50.63, 319.93 27.41, 332.45 13.47 M283.03 70.69 C292.75 59.05, 302.71 47.88, 331.3 14.4 M287.96 70.58 C306.88 50.13, 321.87 32.1, 330.74 20.87 M288.05 70.19 C303.12 55.28, 317.17 38.55, 330.94 20.58 M295.04 70.76 C307.33 55.83, 319.37 41.6, 331.89 25.64 M294.54 70.97 C306.44 56.46, 318.81 40.25, 331.63 27.55 M297.24 71.08 C311.18 55.91, 323.18 42.06, 333.19 32.78 M298.53 70.04 C304.61 63.69, 311.55 54.93, 331.62 32.7 M305.16 71.88 C313.68 57.66, 322.77 49.16, 332.55 40.56 M304.7 69.88 C312.6 62.5, 320.53 53.65, 332.56 38.27 M308.9 72 C313.22 65.32, 318.01 58.19, 330.9 46.33 M308.75 70.3 C315.54 62.94, 322.42 54.1, 332.71 44.99 M317.04 69.86 C320.36 67.83, 322.34 62.05, 330.73 49.79 M315.22 69.39 C319.8 63.97, 325.48 57.75, 331.28 52.04 M319.42 70.71 C322.2 67.13, 326.42 62.09, 330.68 58.72 M319.94 71.25 C323.62 67.47, 325.91 63.71, 331.58 56.78 M325.72 70.92 C328.48 68.62, 329.85 65.45, 331.33 62.4 M325.75 69.86 C328.18 68.34, 329.9 66.32, 332.28 63.7"
           stroke="#82c91e"
           stroke-width="0.5"
           fill="none"
           id="path30" />
        <path
           d="M-0.66 -1.23 C77.37 -0.03, 154.17 1.75, 330.28 -0.85 M-0.1 0.21 C100.79 -0.34, 200.44 -1.24, 329.63 0.11 M329.88 -1.06 C328.38 19.06, 327.66 37.27, 327.87 67.25 M329.85 0.25 C329.26 25.25, 328.66 51.11, 329.56 68.95 M327.87 66.99 C258.43 68.59, 188.13 67.95, 0.16 67.77 M328.68 67.48 C226.16 69.21, 124.81 69.81, -0.63 67.85 M-0.76 66.17 C0.87 55.03, -1.13 38.97, -0.24 1.97 M0.49 68.57 C0.41 50.87, -1.24 34.14, -0.35 0.79"
           stroke="#000000"
           stroke-width="1"
           fill="none"
           id="path32" />
      </g>
      <g
         transform="translate(113 102) rotate(0 74.5 13)"
         id="g18">
        <text
           x="0"
           y="18"
           font-family="Virgil, Segoe UI Emoji"
           font-size="20px"
           fill="#000000"
           text-anchor="start"
           style="white-space: pre;"
           direction="ltr"
           id="text16">Neural Network</text>
      </g>
    </g>
  </a>
</svg>
