<?xml version="1.0" encoding="UTF-8" standalone="no"?>
<svg
   version="1.1"
   viewBox="0 0 1251.5 379.6173969483499"
   width="1251.5"
   height="379.6173969483499"
   id="svg250"
   sodipodi:docname="kraken_workflow.svg"
   inkscape:version="1.1.1 (3bf5ae0d25, 2021-09-20)"
   xmlns:inkscape="http://www.inkscape.org/namespaces/inkscape"
   xmlns:sodipodi="http://sodipodi.sourceforge.net/DTD/sodipodi-0.dtd"
   xmlns:xlink="http://www.w3.org/1999/xlink"
   xmlns="http://www.w3.org/2000/svg"
   xmlns:svg="http://www.w3.org/2000/svg">
  <sodipodi:namedview
     id="namedview252"
     pagecolor="#ffffff"
     bordercolor="#666666"
     borderopacity="1.0"
     inkscape:pageshadow="2"
     inkscape:pageopacity="0.0"
     inkscape:pagecheckerboard="0"
     showgrid="false"
     inkscape:zoom="0.99720336"
     inkscape:cx="147.91366"
     inkscape:cy="73.204728"
     inkscape:window-width="958"
     inkscape:window-height="1041"
     inkscape:window-x="960"
     inkscape:window-y="18"
     inkscape:window-maximized="1"
     inkscape:current-layer="svg250" />
  <!-- svg-source:excalidraw -->
  <defs
     id="defs4">
    <style
       id="style2">
      @font-face {
        font-family: &quot;Virgil&quot;;
        src: url(&quot;https://excalidraw.com/Virgil.woff2&quot;);
      }
      @font-face {
        font-family: &quot;Cascadia&quot;;
        src: url(&quot;https://excalidraw.com/Cascadia.woff2&quot;);
      }
    </style>
  </defs>
  <a
     id="a423"
     xlink:href="http://kraken.re/master/advanced.html#page-segmentation-and-script-detection">
    <g
       id="g421">
      <g
         stroke-linecap="round"
         transform="translate(133.25 159.80570652173913) rotate(0 97.5 75.5)"
         id="g10">
        <path
           d="M0 0 C0 0, 0 0, 0 0 M0 0 C0 0, 0 0, 0 0 M-0.81 5.71 C2.31 4.9, 3.58 1.96, 4.87 1.05 M-0.34 6.11 C0.95 5.2, 1.74 3.69, 4.63 0.3 M0.58 12.96 C1.93 9.24, 7.02 6.51, 10.37 -0.3 M-0.05 11.59 C4.38 6.97, 8.05 2.61, 10.35 -0.75 M-2.05 19.52 C4.82 13, 12.29 2.1, 15.68 -1.44 M0.36 18.64 C4.3 14.37, 7.72 9.67, 14.74 0.28 M0.22 25.21 C8.2 16.54, 13.95 4.91, 22.38 -1.28 M0.73 23.89 C5.16 17.83, 10.08 13.1, 21.59 0.14 M0.1 32.22 C4.94 25.96, 9.54 16.92, 26.79 1.06 M-0.19 30.9 C5.91 25.05, 10.98 18.24, 25.29 0 M1.13 38.81 C8 28.51, 12.85 22.02, 31.18 0.78 M-0.44 36.85 C9.79 27.35, 17.96 16.74, 32.45 -0.85 M1.6 41 C10 30.88, 22.98 14.08, 38.28 -1.46 M-0.29 41.61 C11.45 30.78, 21.67 18.76, 36.19 0.76 M0.41 48.03 C13.22 31.8, 27.2 16.21, 42.36 1.63 M-0.58 47.93 C13.64 32.81, 27.32 16.69, 41.96 0.71 M-0.53 56.28 C16.7 34.7, 33.63 18.13, 47.73 -0.83 M0.45 55.05 C18.14 34.06, 36.92 13.44, 47.94 -0.4 M-1.69 60.44 C18.39 41.12, 35.32 16.89, 51.87 -0.71 M-0.49 60.63 C20.65 38.27, 39.43 15.11, 52.83 -0.45 M0.4 67.48 C23.26 41.39, 43.85 17.5, 59.96 0.34 M-0.58 66.4 C21.24 42.11, 41.05 19.22, 58.2 0.2 M-0.94 72.05 C14.99 58.66, 25.75 42.82, 63.94 0.02 M0.77 72.31 C15.24 56.99, 28.73 40.8, 64.37 -0.45 M1.29 77.96 C23.95 52.49, 46.28 28.67, 69.09 -1.35 M0.54 79.71 C19.31 56.49, 37.73 36.15, 68.71 -0.1 M0.15 86.09 C25.31 54.23, 53.62 23.6, 73.08 0.28 M0.28 85.99 C25.04 57.33, 49.97 28.44, 73.52 0.73 M-0.63 91.57 C14.36 73.61, 33.85 53.26, 80.53 -0.06 M-0.58 91.46 C24.6 62.81, 51.39 33.38, 80.34 0.65 M1.7 99.75 C31.06 59.66, 63.76 24.57, 86.09 0.76 M-0.47 98.07 C27.14 66.27, 54.63 33.79, 85.81 0.26 M0.81 103.61 C25.51 76.14, 48.46 45.11, 88.96 1.24 M0.89 102.49 C24.37 75.37, 50.54 45.81, 90.04 0.07 M-0.92 111.22 C29.54 73.06, 61.4 40.6, 96.02 0.35 M0.13 110.34 C29.57 76.56, 59.24 44.05, 96.4 -0.57 M2.05 115.62 C24.8 88.07, 48.11 62.06, 100.34 0.81 M-0.58 115.79 C25.37 85.3, 50.51 56.43, 99.9 0.41 M0.97 122.12 C39.89 76.52, 84.67 28.5, 108.25 -1.81 M0.81 121.5 C31.67 85.24, 62.77 49.56, 107.03 -1.31 M-0.82 130.1 C31.44 89.84, 65.56 52.8, 109.92 0.15 M-0.58 128.25 C41.39 78.14, 84.45 30.86, 112.1 -0.46 M2 132.56 C30.69 96.9, 61.62 61.54, 117.74 0.37 M1.07 133.11 C26.61 101.82, 54.37 70.86, 116.42 -0.62 M0.51 141.5 C29.23 105.22, 62 67.47, 120.21 1.95 M0.88 140.62 C33.61 101.82, 66.69 63.58, 121.93 0 M0.05 147.87 C48.62 87.78, 100.98 32.57, 125.73 -1.07 M-0.49 145.39 C49.54 89.8, 96.84 34.32, 127.85 -0.29 M1.27 150.18 C35.87 112, 69.22 72.55, 131.19 0.11 M1.05 152.25 C52.56 90.37, 104.29 29.94, 132.79 -0.04 M8.04 149.95 C40.19 113.22, 73.45 75.68, 137.74 -1.4 M6.71 151.39 C45.17 104.56, 85.44 59.03, 138.19 0.3 M12.31 151.48 C43.82 119.42, 73.05 82.17, 141.66 1.63 M12.05 152.25 C53.09 104.07, 94.26 58, 143.24 0.2 M15.15 150.54 C53.54 108.15, 96.14 60.87, 148.29 -1.03 M16.63 151.93 C53.2 108.91, 91.54 64.19, 147.87 0.17 M21.78 151.79 C52.23 116.93, 83.25 81.73, 152.11 1.24 M21.7 150.76 C73.96 91.56, 126.97 31.2, 153.86 -0.68 M28.68 150.53 C61.99 113.5, 97.01 76.43, 158.2 -1.45 M27.8 152.75 C69.13 103.52, 109.66 55.17, 158.42 0.41 M33.41 151.86 C75.04 106.35, 115.45 60.08, 165.82 -1.43 M32.79 152.1 C75.62 99.64, 118.12 50.46, 164.4 0.11 M36.34 152.63 C90.48 91.41, 141.91 31.54, 168.39 -0.45 M36.92 151.73 C80.34 102.93, 122.3 55.9, 170.22 -0.53 M43.97 152.64 C75.79 117.01, 106.63 78.33, 176.46 -0.3 M43.29 150.87 C73.07 116.98, 103.84 80.91, 174.72 -0.39 M49.16 150.94 C84.65 113.23, 118.89 72.17, 181.85 -1.05 M48.62 151.03 C87.85 105.77, 127.1 60.84, 179.68 -0.45 M52.31 149.88 C106.54 90.1, 158.36 28.46, 184.21 1.07 M54.4 150.76 C94.93 104.85, 136.71 56.94, 185.68 -0.92 M59.6 151.42 C105.2 101.57, 149.66 47.1, 191.04 1.13 M59.53 151.61 C87.63 117.82, 115.97 83.83, 190.98 0.25 M64.68 150.34 C102.15 109.4, 140.29 66.68, 196.94 -0.85 M64.26 151.11 C90.55 120.57, 118.57 88.58, 195.77 0.17 M68.31 152.19 C95.5 120.5, 123.69 91.35, 195.33 8.66 M70.06 152.36 C108.87 107.27, 147.41 60.75, 194.76 6.24 M75.03 152.01 C98.22 121.67, 123.86 95.52, 195.34 12.03 M74.19 151.36 C108.64 114.95, 140.83 76.99, 195.99 13.21 M79.31 152.35 C120.72 100.43, 165.28 51.91, 194.29 18.86 M79.5 152.59 C120.6 104.22, 162.63 55.8, 195.04 18.74 M84.64 153.02 C126.51 104.09, 167.36 61.81, 194.71 24.68 M86.47 152.08 C113.63 117.57, 141.58 85.93, 196.42 24.19 M90.1 150.16 C114.4 125.26, 138.75 97.26, 197 32.08 M91.52 151.27 C114.65 124.48, 138.79 96.85, 194.91 31.49 M97.38 149.41 C134.82 107.47, 172.55 62.08, 195.87 38.58 M96.85 151.92 C121.12 124.11, 144.75 96.93, 195.8 37.78 M101.4 153.12 C128.52 118.05, 159.97 86.07, 196.18 42.08 M100.82 152.01 C133.42 117.34, 164.55 79.73, 195.44 42.61 M105.33 149.54 C127.5 130.14, 145.04 106.27, 194.76 48.33 M107.72 150.68 C134.66 118.27, 161.22 86.74, 194.94 50.04 M111.2 151.98 C131.22 132.65, 146.35 109.79, 194.84 56.82 M112.21 152.09 C141.47 117.24, 171.78 82.31, 195.31 54.36 M118.9 152.01 C146.65 115.48, 176.78 81.38, 196.61 60.01 M117.07 150.34 C140.92 127.27, 160.88 101.75, 195.8 61.94 M120.79 150.67 C143.2 126.81, 167.17 101.51, 195.62 69.24 M121.62 151.4 C146.07 122.85, 171.38 94.38, 195.14 66.92 M128.08 152.38 C153.09 122.7, 177.34 93.71, 196.62 74.17 M126.85 152.73 C151.38 124.72, 175.56 96.05, 195.1 73.34 M132.71 152.38 C146.79 133.25, 163.17 116.71, 197.41 80.24 M133.07 151.48 C147.25 135.97, 159.65 119.7, 195.15 80.33 M139.14 150.17 C151.77 134.8, 164.27 120.99, 197.24 84.57 M138.56 151.6 C153.12 133.6, 169.6 115.95, 196.66 84.73 M144.81 153.48 C165.33 128.86, 181.88 104.98, 197.4 93.19 M143.71 152.53 C156.39 138.05, 168.6 122.03, 196.19 92.04 M148.65 151.39 C165.9 133.04, 180.84 113.93, 193.57 96.95 M148.38 152.08 C166.5 131.86, 183.6 111.55, 195.75 99.01 M156.2 149.58 C171.28 136.2, 184.34 116.23, 195.72 104.94 M154.78 152.36 C170.27 133.78, 184.88 114.92, 195.37 104.87 M160.12 151.5 C168.81 141.21, 182.93 125.87, 193.94 111.99 M158.74 152.69 C171.49 137.95, 183.2 123.96, 194.75 109.45 M165.29 149.52 C170.58 144, 177.97 137.76, 196.8 116.54 M164.64 151.45 C174.02 140.44, 183.22 129.52, 196.42 116.81 M169.34 150.18 C174.39 145.23, 179.92 138.91, 194 123.87 M170.67 151.08 C175.61 146.03, 180.44 139.45, 196.14 123.21 M175.76 153.33 C181.62 144.12, 190.41 134.86, 194.68 128.02 M175.75 151.9 C179.22 145.77, 183.03 141.91, 196.02 128.72 M182.39 153.34 C187.77 143.99, 190.49 138.18, 197.34 135.23 M180.82 151.07 C185.97 144.27, 193.31 137.71, 196.2 135.37 M186.51 150.62 C188.91 148.59, 192.92 143.96, 194.22 141.23 M185.91 150.74 C187.99 149.47, 189.77 147.62, 195.47 140.5 M190.84 151.57 C192.23 150.35, 193.11 150.05, 195.57 147.68 M191.09 151.72 C192.24 150.69, 193.52 148.94, 195.1 147.28"
           stroke="#82c91e"
           stroke-width="0.5"
           fill="none"
           id="path6" />
        <path
           d="M-0.6 0.59 C54.47 0.95, 112.08 1.08, 194.17 1.37 M0.88 -0.24 C51.37 2.74, 101.27 2.13, 194.03 0.57 M196.86 -1.53 C196.59 60.03, 194.1 118.34, 195.62 150.1 M195.18 0.42 C194.41 45.06, 193.48 92.23, 194.69 150.1 M194.74 152.41 C124.6 150.08, 54.07 147.59, -0.34 149.22 M194.94 150.9 C128.75 149.43, 60.8 149, 0.58 150.03 M-0.71 152.33 C-2.19 98.57, -1.09 45.64, -1.55 -0.47 M-0.44 151.63 C-0.24 92.67, 0.05 36.25, -0.3 0.59"
           stroke="#000000"
           stroke-width="1"
           fill="none"
           id="path8" />
      </g>
      <g
         transform="translate(168.25 222.30570652173913) rotate(0 63.5 13)"
         id="g20">
        <text
           x="0"
           y="18"
           font-family="Virgil, Segoe UI Emoji"
           font-size="20px"
           fill="#000000"
           text-anchor="start"
           style="white-space: pre;"
           direction="ltr"
           id="text18">Segmentation</text>
      </g>
    </g>
  </a>
  <a
     id="a438"
     xlink:href="http://kraken.re/master/advanced.html#recognition">
    <g
       id="g436">
      <g
         stroke-linecap="round"
         transform="translate(514.5 159.80570652173913) rotate(0 97.5 75.5)"
         id="g16">
        <path
           d="M0 0 C0 0, 0 0, 0 0 M0 0 C0 0, 0 0, 0 0 M-0.39 6.91 C2.1 3.3, 3.6 1.27, 5.47 -0.42 M-0.62 6.79 C1.66 4.2, 3 2.51, 4.73 0.7 M-1.28 11.03 C3.67 7.76, 7.23 5.22, 11.8 0.21 M0.1 12.62 C4.31 8.59, 7.33 4.33, 10.75 0.6 M-1.34 16.76 C4 16.14, 7.55 10.32, 16.49 -1.39 M0.08 17.55 C5.05 10.48, 12.02 5.42, 15.18 1.13 M1.04 22.37 C3.1 17.71, 8.78 14.79, 21.32 1.67 M-0.02 23.24 C4.79 17.32, 11.24 13.28, 21.82 -0.42 M0.89 30.06 C5.05 22.66, 12.76 15.28, 27.86 1.78 M-0.74 30.65 C8.26 20.68, 16.44 11.35, 25.46 1.06 M-1.97 36.55 C8.04 27.75, 17.78 13.5, 33.12 1.05 M0.24 37.26 C10.99 25.18, 21.73 11.44, 31.48 -0.22 M1.91 42.89 C9.93 32.45, 16.43 20.6, 37.85 -0.73 M0.99 43.05 C12.92 27.01, 26.4 13.4, 36.54 -0.22 M-1.17 50.55 C12.57 33.83, 23.59 22.51, 42.9 -0.35 M-0.75 49.38 C17.68 29.4, 32.77 9.66, 42.79 0.56 M-0.26 55.89 C11.64 43.12, 23.51 26.83, 49.21 0.71 M-0.01 55.27 C15.42 37.4, 30.64 20.53, 48.43 -0.35 M0.16 62.12 C17.89 40.83, 35.25 17.29, 54.26 -1.99 M0.02 60.05 C13.04 45.5, 25.54 30.29, 53.95 0.2 M-0.02 65.71 C13.48 50.34, 30.35 32.08, 59.94 0.03 M-0.5 67.67 C20.54 42.65, 41.97 18.79, 58.75 -0.37 M-1.36 72.56 C22.08 48.01, 43.95 24.11, 65.06 -2.07 M-0.11 73.54 C18.36 50.8, 36.46 31.06, 63.29 -0.87 M0.41 80.02 C24.97 52.12, 49.24 25.75, 69.24 1.41 M0.85 78.44 C24.71 50.74, 49.4 22.75, 67.78 0.33 M0.1 85.45 C28.61 52.84, 53.8 22.38, 73.36 0.5 M0.81 85.76 C28.71 51.5, 57.9 19.95, 74.3 -1.15 M1.05 92.04 C28.63 59.75, 53.26 29.94, 79.51 1.35 M0.55 91.18 C17.95 69.65, 37.85 47.2, 79.45 0.93 M0.91 97.38 C18.93 75.76, 39.45 52.96, 83.43 0.08 M-0.26 97.96 C29.14 65.04, 58.59 31.13, 84.57 -1.02 M0.81 103.51 C30.09 65.94, 62.95 32.26, 90.41 -1.41 M-0.11 102.82 C35.46 62.49, 72.42 20.78, 90.32 0.23 M0.65 109 C30.89 74.8, 58.63 40.18, 95.77 -1.67 M0.24 110.76 C23.6 82.25, 48.14 55.73, 94.87 0.26 M-1.18 115.46 C39.65 69.61, 80.98 22.3, 100.78 0.18 M-0.68 115.41 C25.47 85.74, 50.69 56.39, 100.58 -0.35 M0.16 123.46 C41.59 76.98, 82.57 27.33, 105.09 -1.81 M-0.46 121.63 C36.25 79.87, 73.06 36.9, 106.1 -0.47 M-0.25 126.96 C27.92 96.49, 57.67 60.85, 110.7 -0.55 M-1.24 127.85 C40.03 83.11, 78.71 38.62, 111.07 0.21 M2.12 133.46 C45.51 83.5, 89.98 35.8, 117.69 -1.39 M0.17 134.9 C38.09 90.5, 74.88 49.51, 115.63 -0.5 M-1.52 142.07 C43.67 89.36, 85.22 39.53, 123.47 -2.01 M-0.74 139.9 C26.88 108.03, 55.26 75.53, 122.29 -0.45 M0.47 148 C45.1 101.22, 85.43 52.85, 128.02 1.59 M0.3 145.53 C29.67 110.35, 62.19 73.36, 126.95 0.72 M-1.02 151.67 C40.95 106.11, 82.17 57.82, 131.7 -0.28 M0.68 151.01 C43.75 100.14, 88.26 50.76, 133.26 0.8 M8.05 151.49 C48.4 102.18, 93.38 55.76, 136.87 -1.18 M6.61 151.26 C37.68 114.19, 68.2 77.27, 136.8 1.03 M10.01 151.38 C62 94.3, 111.12 37.45, 142.86 0.64 M11.21 150.95 C55.97 101.9, 100.35 50.94, 143.02 0.08 M17.66 153.65 C61.93 102.03, 107.62 46.29, 147.66 1.7 M15.74 151.59 C67.55 91.38, 120.71 31.94, 148.39 -0.01 M20.25 151.83 C70.78 94.49, 124.09 36.9, 154.07 -0.43 M22.11 151.62 C50.72 120.06, 79.59 87.83, 154.58 0.56 M25.65 152.5 C79.67 92.45, 130.46 32.35, 160.12 -1.28 M27.19 152.81 C57.78 114.64, 89.7 78.88, 158.63 -0.3 M31.91 151.87 C63.08 117.65, 92.52 82.08, 165.46 -1.05 M31.84 150.96 C78.01 96.94, 124.87 43.89, 165.28 0.49 M37.45 150.67 C89.64 92.96, 139.63 33.96, 168.88 1.22 M37.36 151.53 C76.32 107.79, 116.5 62.41, 169.99 0.63 M41.98 151.49 C92.15 95.22, 142.23 36.56, 174.7 -0.31 M42.58 152.39 C75.79 113.68, 108.99 73.91, 174.85 -0.42 M49.49 152.11 C80.25 117.23, 112.19 80.51, 179.55 1.93 M47.5 152.24 C89.07 103.16, 131.54 55.28, 180.58 0.61 M54.83 150.05 C98.5 102.47, 142.17 52.35, 185.92 -0.64 M53.95 151.35 C85.43 116.02, 114.61 81.96, 186.28 -0.1 M57.47 150.23 C110.97 91.23, 161.37 31.2, 188.95 1.9 M58.5 150.99 C88.57 115.48, 119.88 79.72, 190.4 -0.6 M66.05 151.63 C115.31 94.42, 166.14 37.54, 196.51 1.92 M63.87 150.56 C103.4 109.7, 140.76 65.77, 195.27 0.3 M68.94 151.22 C106.62 105.99, 145.48 61.15, 195.39 8.51 M70.12 152.52 C99.77 116.82, 129.62 81.35, 194.51 6.25 M75.01 152.62 C110.87 113.06, 143.72 73.8, 194.51 14.41 M74.9 152.01 C106.3 114.53, 138.98 77.97, 195.9 11.72 M80.18 150.87 C121.51 105.28, 164.76 56.82, 195.62 17.59 M79.7 150.99 C112.66 113.09, 145.09 75.17, 195.67 18.9 M86.83 149.92 C125.89 103.12, 167.46 58.39, 195.75 23.1 M86.24 152.22 C122.17 113.22, 156.79 71.37, 196.46 25.05 M91.92 150.51 C125.3 109.45, 161.73 72.52, 197.16 29.09 M91.12 151.73 C130.03 105.98, 168.99 63.23, 194.89 30.04 M95.42 151.94 C134.21 107.17, 170.28 66.33, 197.16 39.34 M95.94 150.45 C134.12 109.11, 170.93 64.99, 196.13 37.73 M100.26 151.93 C132.9 119.22, 162.27 83.43, 197.33 41.32 M101.97 150.78 C127.43 123.65, 152.17 94.23, 196.75 43.8 M108.75 152.38 C131.51 125.41, 156.62 96.76, 194.75 50.3 M106.29 152.18 C135.07 118.55, 164.28 87.38, 194.75 48.6 M110.53 151.22 C128.55 129.37, 146.87 108.52, 197.72 55.86 M112.46 151.78 C130.48 130, 147.36 109.51, 194.98 55.46 M119 152.19 C139.37 127.2, 156.14 103.28, 193.78 61.73 M116.68 151.97 C133.96 132.08, 150.81 113.08, 195.84 61.35 M123.28 152.71 C140.13 128.53, 159.32 108.92, 193.43 68.33 M122.45 151 C137.83 134.98, 152.4 118.56, 194.78 67.14 M127.94 150.37 C150.64 125.34, 170.58 101.74, 197.39 72.87 M128.03 151.28 C146.22 132.38, 163.15 111.76, 196.21 72.53 M132.27 151.04 C152 129.57, 171.59 107.35, 193.78 79.39 M132.43 152.29 C150.04 131.7, 169.01 111.31, 196.47 79.83 M139.48 150.94 C155.19 132.29, 168.57 118.88, 195.94 87.28 M138.32 152.39 C150.88 136.59, 164.54 121.2, 196.3 85.31 M142.47 153.14 C160.07 136.8, 172.48 118.77, 196.33 93.21 M144.54 152.14 C157.1 135.33, 172.83 117.62, 196.54 92.86 M149.81 153.46 C164.16 137.93, 177.47 121.69, 196.35 99.54 M149.74 151.95 C160.23 138.51, 172.4 125.4, 194.56 99.22 M156.11 152.2 C169.54 135.99, 184.03 118.06, 195.51 104.5 M153.57 150.62 C164.5 139.87, 175.16 127.11, 195.27 103.93 M160 152.02 C170.56 140.16, 179.29 127.48, 194.72 110.23 M160.27 150.98 C167.91 141.93, 175.85 131.65, 195.02 110.13 M166.58 149.7 C172.42 144.64, 182.05 132.17, 195.98 117.27 M165.92 152.43 C173.46 143.21, 180.19 134.85, 195.1 116.87 M169.32 149.99 C176.38 144.45, 183.51 137.19, 194.41 120.49 M170.02 152.6 C175.83 145.78, 181.67 140.15, 196.41 121.78 M176.53 153.39 C180.44 146.49, 184.8 139.68, 193.96 127.55 M176.66 151.88 C182.23 142.71, 190.09 134.49, 194.93 129.34 M181.27 150.02 C183.81 144.75, 188.84 139.2, 194.66 135 M180.23 151.06 C183.13 148.17, 186.37 143.84, 195.73 133.77 M187.39 151.36 C190.04 147.3, 190.38 144.97, 194.36 141.92 M186.46 151.74 C189.42 149.4, 191.4 146.67, 195.72 140.86 M190.83 151.85 C192.63 150.3, 193.09 149.3, 195.29 146.71 M191.65 152.05 C192.46 150.64, 193.3 149.83, 195.5 147.5"
           stroke="#82c91e"
           stroke-width="0.5"
           fill="none"
           id="path12" />
        <path
           d="M-0.9 0.05 C41.97 1.39, 86.25 0.25, 195.29 -1.31 M-0.9 0.62 C43.22 -0.25, 86.36 1.31, 195.12 0.38 M193.22 0.85 C193.55 46.11, 193.56 95.73, 196 151.45 M194.03 0.48 C194.9 33.87, 194.35 69.86, 194.05 151.06 M194.53 152.65 C144.22 148.43, 92.67 150.76, -0.57 149.83 M195.59 151 C136.59 149.79, 77.14 150.22, 0.62 151.08 M-0.06 151.37 C1.35 102.23, -1.88 54.42, 0.28 1.7 M0.49 151.5 C-1.87 100.8, -1.99 48.86, 0.88 0.79"
           stroke="#000000"
           stroke-width="1"
           fill="none"
           id="path14" />
      </g>
      <g
         transform="translate(560.5 222.30570652173913) rotate(0 52.5 13)"
         id="g24">
        <text
           x="52.5"
           y="18"
           font-family="Virgil, Segoe UI Emoji"
           font-size="20px"
           fill="#000000"
           text-anchor="middle"
           style="white-space: pre;"
           direction="ltr"
           id="text22">Recognition</text>
      </g>
    </g>
  </a>
  <a
     id="a453"
     xlink:href="http://kraken.re/master/advanced.html#serialization">
    <g
       id="g451">
      <g
         stroke-linecap="round"
         transform="translate(892.5 160.80570652173913) rotate(0 97.5 75.5)"
         id="g30">
        <path
           d="M0 0 C0 0, 0 0, 0 0 M0 0 C0 0, 0 0, 0 0 M0.44 6.26 C0.67 4.95, 3.02 2.11, 5.44 1.13 M-0.27 6.4 C1.56 4.76, 2.97 2.48, 5.01 0.19 M-0.05 12.47 C4.91 7.18, 9.3 3.01, 9.99 1.39 M0.75 11.92 C3.71 8.63, 5.6 5.29, 10.04 0.3 M-0.71 19.2 C6.06 14.3, 8.86 5.99, 15.37 -0.61 M-0.81 18.59 C5.65 13.39, 9.25 6.22, 15.33 0.84 M-0.67 25.68 C6.04 18.25, 12.97 10.53, 21.66 1.39 M0.02 24.49 C4.06 19.81, 9.51 14.48, 20.38 0.13 M1.89 30.88 C5.09 22.63, 15.1 13.95, 24.5 1.44 M0.86 30.73 C7.88 20.13, 16.53 11.94, 25.25 -0.47 M-1.17 35.41 C8.63 27.71, 15.2 17.75, 31.02 0.45 M0.74 37.87 C7.69 29.59, 14.03 22.06, 32.52 -0.65 M-0.81 41.6 C15.17 28.08, 26.99 9.92, 37.63 0.45 M0.15 42.74 C14.63 27.59, 27.56 10.97, 36.75 0.55 M-1.54 47.66 C10.26 35.97, 23.82 22.39, 44.41 0.34 M0.01 48.36 C10.6 36.72, 22.94 22.92, 41.7 -0.71 M0.3 56.15 C17.58 32.19, 35.05 10.91, 49.11 1.74 M0.14 55.17 C14.09 39.19, 28.15 22.55, 47.91 0.56 M-1.46 59.87 C12.64 47.77, 23.17 34.53, 53.53 0.76 M0.95 60.7 C15.89 43.66, 28.58 27.03, 53.95 0.76 M-1.1 66.36 C15.8 48.87, 34.3 26.61, 57.5 1.88 M-0.11 66.9 C22.53 43.5, 45.02 17.28, 57.97 -0.69 M0.25 71.99 C14.16 58.53, 27.37 44.02, 65.3 1.69 M0.46 73.96 C24.3 46.11, 48.17 19.01, 62.94 -0.79 M1.82 78.06 C21.65 51.28, 46.9 25.71, 67.58 -1.25 M0.07 79.19 C18.45 58.32, 36.01 38.97, 68.27 0.69 M-1.01 85.29 C28.65 53.09, 58.87 20.7, 75.85 1.39 M-0.41 85.33 C14.94 67.47, 29.72 49.34, 74.98 -0.29 M-0.81 89.67 C20.72 69.74, 39.24 46.97, 80.35 1.51 M0.01 91.16 C19.22 69.92, 37.35 46.7, 79.33 -0.33 M1.73 97.02 C30.46 62.7, 57.55 29.89, 84.54 -1.6 M-0.11 97.85 C18.51 77.11, 35.84 55.46, 86.02 -0.1 M0.98 103.08 C31.53 67.61, 64.78 30.48, 91.01 0.57 M-0.64 103.78 C18.37 82.87, 36.05 61.29, 89.8 -0.66 M-0.38 111.5 C19.08 85.52, 40.85 62.09, 95.94 1.54 M-1 110.43 C32.08 72.32, 64.9 33.52, 96.65 -0.93 M-1.6 114.49 C38.46 70.33, 77.77 26.41, 99.01 1.67 M0.39 115.65 C25.87 86.13, 51.51 56.86, 101.45 -0.08 M-1.93 122.57 C27.13 94.45, 50.28 65.52, 105.86 -0.08 M-0.27 121.33 C40.18 75.02, 80.68 29.66, 107.11 -0.91 M1.21 129.15 C39.72 81.74, 78.45 35.65, 110.01 -0.22 M0.37 128.7 C32.62 91.42, 64.6 55, 112.22 -0.29 M1.36 132.59 C40.93 86.84, 82.91 41.84, 114.65 1.68 M-0.29 134.18 C46.92 82.56, 92.24 29.77, 115.6 0.21 M-1.65 140.3 C35.75 97.06, 72.67 54.78, 121.86 1.18 M-0.83 140.23 C27.72 106.34, 57.87 71.29, 121.18 0.13 M1.98 147.22 C30.12 115.51, 53.13 84.65, 127.85 0.98 M-0.32 145.7 C33.23 106.33, 69.06 67.15, 125.96 1.02 M0.69 151.05 C26.58 118.87, 57.66 85.08, 130.86 1.29 M0.96 151.66 C31.56 115.27, 64.1 80.06, 133.43 0.63 M4.74 150.66 C37.73 115.38, 65.86 83.28, 138.18 0.49 M6.43 151.89 C36.34 119.09, 64.49 85.64, 136.77 0.02 M9.67 151.92 C44.98 113.4, 76.35 79.01, 144.59 -0.55 M11.8 151.46 C44.94 113.77, 76.8 76.18, 143.58 0.08 M17.88 151.27 C51.45 112.67, 89.59 68.8, 146.7 -1.31 M16.1 151.24 C48.75 113.54, 82.29 76.01, 148.53 -0.49 M22.17 152.08 C57.73 106.41, 95.6 63.34, 154.53 -0.77 M22.36 152.43 C72.4 91.53, 123.03 33.21, 153.93 -0.89 M28.21 152.25 C75.63 97.69, 124.65 41.75, 158.6 -0.44 M27.41 151.22 C65.04 105.95, 105.14 60.81, 159.01 -0.64 M31.45 151.43 C64.57 115.22, 96.9 78.49, 163.17 0.11 M31.85 152.09 C64.14 112.75, 98.05 75.15, 164.16 -0.59 M36.3 153.25 C66.28 119.66, 93.09 86.99, 167.69 0.22 M37.31 151.83 C73.16 110.79, 109.37 67.69, 169.2 0.06 M44.46 150.13 C86.35 104.51, 128.79 56.51, 174.95 -0.91 M42.75 152.1 C67.91 119.88, 96.37 89.26, 175.85 -0.84 M48.97 150.72 C83.58 110.12, 119.08 69.49, 179.66 -0.16 M48.9 152.44 C82.23 115.38, 113.75 79.19, 180.63 -0.06 M54.87 150.36 C102.22 96.73, 148.08 41.24, 187.36 -0.26 M54.52 151.99 C87.16 113.91, 119.42 76.81, 186.24 -0.7 M58.87 151.27 C94.18 110.63, 129.86 67.79, 192.29 1.43 M59.12 151.58 C93.9 112.08, 126.95 74.46, 190.92 -0.32 M62.84 150.99 C106.55 105.3, 146.16 56.78, 195.6 0.33 M64.52 151.8 C110.85 96.94, 157.31 43.24, 195.61 -0.12 M67.64 151.86 C104.81 108.17, 139.88 65.99, 194.93 5.98 M68.55 151.47 C105.45 112.55, 137.53 73.1, 196.04 6.35 M76.98 153.1 C114.81 105.36, 154.72 58.57, 197.52 11.85 M74.16 151.24 C120.37 100.58, 165.25 48.63, 194.85 11.63 M81.59 152.44 C112.99 115.32, 147.24 76.88, 194.28 17.41 M81.05 151.87 C110.64 115.23, 141.21 78.23, 194.91 19.54 M86.58 150.01 C114.02 116.28, 143.68 80.83, 197.01 24.82 M84.82 150.53 C117.07 114.71, 148.02 79.12, 196.21 23.78 M89.2 150.15 C131.24 104.44, 170.29 59.92, 194.32 30.78 M90.67 152.48 C126.41 107.56, 163.88 65.1, 196.44 30.49 M97.27 153.23 C122.29 125.13, 145.58 97.59, 195.45 37.06 M96.48 151.61 C131.37 111.61, 166.43 72.63, 194.52 36.54 M103.15 153.44 C133.65 114.26, 167.98 75.75, 197.47 42.58 M100.56 152.11 C120.54 130.29, 140.2 106.62, 196.54 42.41 M106.11 150.62 C128.04 130.3, 145.6 105.78, 194.46 49.45 M106.74 150.98 C141.82 112.69, 177.67 73.48, 194.69 50.03 M110.34 152.07 C139.37 118.69, 169.16 85.46, 195.36 55.56 M112.04 151.7 C131.11 127.9, 152.88 104.73, 195.77 54.1 M119.34 152.32 C135.23 127.68, 158.06 106.12, 193.86 60.38 M117.85 150.76 C139.59 125.31, 160.89 100.67, 194.83 61.73 M121.89 151.04 C150.58 120.19, 174.31 92.44, 194.2 69.52 M123.55 151.3 C144.44 126.1, 165.65 100.99, 195.68 67.72 M125.81 153.5 C141.69 130.83, 158.04 115.04, 196.37 72.78 M127.04 152.43 C145.65 129.63, 164.45 108.25, 195.82 74.48 M135.16 152.68 C158.29 123.33, 179.86 95.46, 195.37 80.27 M133.67 151.06 C152.26 131.33, 170.25 110.84, 196.41 80.79 M137.51 153.34 C156.08 129.41, 175.28 107.03, 196.93 84.88 M138.16 152.81 C152.5 134.78, 167.76 118.14, 195.72 86.23 M143.69 150.57 C155.93 136.25, 171.05 119.41, 197.51 90.17 M144.12 152.26 C162.38 130.85, 181.19 107.82, 195.8 91.7 M147.73 153.59 C159.57 140.95, 168.46 128.32, 196.04 96.91 M148.71 151.61 C161.53 138.06, 174.67 123.07, 196.03 97.81 M155.28 151.58 C168.33 132.8, 183.89 114.94, 197.14 103.11 M154.77 152.25 C171.09 132.88, 187.2 115.4, 194.97 103.68 M159.58 153.49 C168.6 140.33, 181 126.28, 196.37 110.15 M159.5 151.37 C170.8 139.48, 179.89 127.4, 195.39 110.86 M165.9 149.85 C177.71 138.14, 189.23 124.56, 193.99 115.26 M164.62 151.53 C176.98 138.36, 189.36 123.79, 196.68 116.59 M171.44 152.6 C176.37 145.63, 182.93 140.18, 196.87 121.41 M170.99 151.27 C179.15 140.42, 189.31 131.45, 196.6 121.44 M173.79 152.83 C181.05 144.76, 186.94 136.6, 196.34 129.81 M174.82 150.69 C179.67 147.07, 184.59 142.63, 195.68 128.64 M178.87 152.73 C185.11 145.92, 192.23 140.82, 197.35 134.02 M180.27 152.06 C183.92 147.08, 188.34 144.59, 196.25 133.92 M185.67 151.29 C190.08 147.69, 192.76 144.77, 194.26 140.24 M185.87 151.42 C189.17 147.83, 193.06 143.1, 196.1 140.52 M191.76 151.84 C192.16 150.37, 193.34 149.61, 195.26 146.68 M191.58 151.59 C192.1 150.98, 192.88 149.65, 195.04 147.34"
           stroke="#82c91e"
           stroke-width="0.5"
           fill="none"
           id="path26" />
        <path
           d="M-1.91 -0.2 C57.09 -2.55, 116.74 -3.87, 195.35 1.3 M0.2 0.34 C45.13 -0.42, 90.93 -0.35, 195.37 0.83 M196.44 0.39 C196.08 50.2, 198.34 96.27, 193.18 151.74 M195.3 0.84 C195.54 42, 196.02 84.5, 195.61 150.39 M194.48 149.83 C127.68 152.7, 57.8 152.15, 1.62 149.42 M194.77 150.9 C146.44 152.87, 97.76 151.32, 0.18 151.43 M0.26 149.85 C1.78 115.4, 1.32 80.47, -1.49 0.96 M0.02 150.46 C-0.96 102.02, 0.2 52.74, -0.75 0.97"
           stroke="#000000"
           stroke-width="1"
           fill="none"
           id="path28" />
      </g>
      <g
         transform="translate(930 222.30570652173913) rotate(0 60 13)"
         id="g34">
        <text
           x="60"
           y="18"
           font-family="Virgil, Segoe UI Emoji"
           font-size="20px"
           fill="#000000"
           text-anchor="middle"
           style="white-space: pre;"
           direction="ltr"
           id="text32">Serialization</text>
      </g>
    </g>
  </a>
  <g
     stroke-linecap="round"
     id="g48">
    <g
       transform="translate(611.5095357740008 94.51043422448163) rotate(0 -1.3590973923993488 31.63249607972884)"
       id="g38">
      <path
         d="M-1.09 -1.02 C-1.62 9.32, -2.51 52.36, -2.93 62.91 M0.54 1.05 C-0.06 11.49, -2.48 53.96, -3.26 64.29"
         stroke="#000000"
         stroke-width="1"
         fill="none"
         id="path36" />
    </g>
    <g
       transform="translate(611.5095357740008 94.51043422448163) rotate(0 -1.3590973923993488 31.63249607972884)"
       id="g42">
      <path
         d="M-13.38 37.46 C-9.27 45.6, -7.7 55.96, -2.74 65.7 M-11.66 35.52 C-8.9 41.84, -8.82 47.62, -2.32 63.64"
         stroke="#000000"
         stroke-width="1"
         fill="none"
         id="path40" />
    </g>
    <g
       transform="translate(611.5095357740008 94.51043422448163) rotate(0 -1.3590973923993488 31.63249607972884)"
       id="g46">
      <path
         d="M7.09 38.79 C4.65 46.31, -0.33 56.26, -2.74 65.7 M8.82 36.84 C7.24 42.78, 2.98 48.29, -2.32 63.64"
         stroke="#000000"
         stroke-width="1"
         fill="none"
         id="path44" />
    </g>
  </g>
  <a
     id="a468"
     xlink:href="http://kraken.re/master/models.html#recognition-models">
    <g
       id="g466">
      <g
         stroke-linecap="round"
         transform="translate(585.5 40.743206521739154) rotate(0 27.5 26.304347826086953)"
         id="g54">
        <path
           d="M10.51 6.48 C10.51 6.48, 10.51 6.48, 10.51 6.48 M10.51 6.48 C10.51 6.48, 10.51 6.48, 10.51 6.48 M1.83 21.46 C7.16 14.23, 12.5 9.74, 17.21 3.56 M1.38 21.75 C6.27 16.84, 11.19 13.01, 19.69 3.21 M1.93 27.96 C9.79 19.11, 16.79 13.36, 26.74 2.12 M3.54 26.87 C11.7 18.15, 21.01 7.22, 27.01 1.15 M3.08 33.81 C11.08 25.12, 13.59 18.43, 30.87 1.91 M2.59 32.86 C10.04 25.68, 16.51 17.73, 29.87 2.85 M5.32 37.24 C9.8 29.95, 18.88 21.69, 35.65 5.28 M4.33 38.81 C14.05 26.25, 26.12 12.88, 33.69 3.09 M5.8 41.06 C17 26.95, 29.46 16.88, 37.04 6.53 M7.57 40.81 C17.26 28.8, 28.73 16.97, 37.14 5.06 M8.76 42.74 C21.17 32.3, 29.35 20.57, 39.98 6.66 M8.77 44.84 C18.81 34.26, 27.42 24.71, 40.96 6.85 M12.57 45.2 C26.43 31.12, 37.47 17.38, 44.96 10.17 M12.81 47.3 C23.18 34.19, 35.69 21.5, 45.18 9.13 M16.29 49.62 C24.92 40.59, 32.73 28.55, 47.87 12.16 M16.34 48.62 C24.88 37.7, 36.15 24.85, 48.73 9.91 M18.87 51.27 C30.06 35.66, 44.7 20.53, 51.85 13.62 M18.61 52.87 C25.6 44.06, 32.87 36.32, 52.02 14.72 M22.99 50.29 C33.6 39.57, 48.63 25.96, 54.42 16.74 M24.06 51.34 C32.17 41.33, 40.32 31.58, 53.77 17.62 M29.65 53.3 C40.89 41.16, 50.46 28.06, 56.11 19.96 M28.66 51.92 C36.12 45.26, 42.16 37.17, 56.35 21.12 M33.26 51.94 C44.86 40.14, 52.84 29.73, 59.54 25.33 M33.65 52.37 C38.81 46.38, 45.09 40.97, 58.6 25.18 M39.56 52.67 C40.91 48.96, 45.3 44.02, 53.43 34.82 M39.26 53.98 C42.64 47.79, 47.31 43.11, 54.54 34.47"
           stroke="#228be6"
           stroke-width="0.5"
           fill="none"
           id="path50" />
        <path
           d="M27.89 0.05 C33.42 0.1, 41.85 4.03, 46.41 7.88 C50.96 11.74, 54.59 17.74, 55.21 23.16 C55.84 28.59, 53.36 35.73, 50.15 40.42 C46.93 45.11, 41.36 49.61, 35.93 51.3 C30.5 52.98, 23.17 52.82, 17.57 50.55 C11.97 48.28, 5.27 42.62, 2.33 37.7 C-0.6 32.78, -1.47 26.29, -0.06 21.03 C1.35 15.78, 5 9.5, 10.8 6.15 C16.6 2.8, 30.22 1.65, 34.74 0.94 C39.25 0.22, 37.99 1.43, 37.88 1.84 M21.01 0.46 C26.25 -1.69, 32.04 -0.99, 37.46 1.41 C42.87 3.82, 50.63 9.67, 53.5 14.89 C56.37 20.1, 56.1 27.36, 54.66 32.7 C53.22 38.05, 49.85 43.85, 44.85 46.95 C39.84 50.06, 30.89 51.44, 24.61 51.35 C18.33 51.27, 11.06 50.15, 7.17 46.42 C3.28 42.69, 1.68 34.97, 1.29 28.98 C0.89 23, 1.74 15.01, 4.81 10.5 C7.89 5.99, 17.23 3.33, 19.74 1.92 C22.25 0.52, 19.74 1.85, 19.89 2.08"
           stroke="#000000"
           stroke-width="1"
           fill="none"
           id="path52" />
      </g>
      <g
         transform="translate(528.5 14.351902173913004) rotate(0 84.5 13)"
         id="g58">
        <text
           x="0"
           y="18"
           font-family="Virgil, Segoe UI Emoji"
           font-size="20px"
           fill="#000000"
           text-anchor="start"
           style="white-space: pre;"
           direction="ltr"
           id="text56">Recognition Model</text>
      </g>
    </g>
  </a>
  <g
     stroke-linecap="round"
     id="g72">
    <g
       transform="translate(230.93856275646158 94.53655730405222) rotate(0 -1.2735025051906632 30.015117512448313)"
       id="g62">
      <path
         d="M-0.6 0.17 C-1.21 10.09, -3.27 49.78, -3.83 59.87 M1.28 -0.79 C1.06 9.21, -1.15 50.38, -1.63 60.82"
         stroke="#000000"
         stroke-width="1"
         fill="none"
         id="path60" />
    </g>
    <g
       transform="translate(230.93856275646158 94.53655730405222) rotate(0 -1.2735025051906632 30.015117512448313)"
       id="g66">
      <path
         d="M-10.19 30.53 C-9.72 38.56, -5.85 48.31, -1.46 58.85 M-9.91 32.58 C-8.05 39.26, -5.74 46.48, -2.11 60.79"
         stroke="#000000"
         stroke-width="1"
         fill="none"
         id="path64" />
    </g>
    <g
       transform="translate(230.93856275646158 94.53655730405222) rotate(0 -1.2735025051906632 30.015117512448313)"
       id="g70">
      <path
         d="M10.3 31.56 C4.93 39.19, 2.97 48.65, -1.46 58.85 M10.59 33.6 C7.42 40.01, 4.71 46.98, -2.11 60.79"
         stroke="#000000"
         stroke-width="1"
         fill="none"
         id="path68" />
    </g>
  </g>
  <a
     id="a483"
     xlink:href="http://kraken.re/master/models.html#segmentation-models">
    <g
       id="g481">
      <g
         stroke-linecap="round"
         transform="translate(204.25 40.743206521739125) rotate(0 27.5 26.304347826086968)"
         id="g78">
        <path
           d="M1.46 15.85 C1.46 15.85, 1.46 15.85, 1.46 15.85 M1.46 15.85 C1.46 15.85, 1.46 15.85, 1.46 15.85 M1.43 22.5 C7.23 13.79, 11.49 7.22, 18.15 3.54 M0.52 21.74 C6.44 15.49, 11.16 10.49, 17.07 3.95 M-0.73 26.86 C3.95 21.83, 8.54 19.22, 21 5.37 M0.15 28.8 C6.39 21.33, 13.36 13.86, 22.49 4.26 M2.83 32.84 C8.76 23.02, 18.33 14.02, 27.92 1.33 M2.28 35.12 C8.2 27.49, 14.38 19.39, 28.73 3.08 M4.25 36.94 C9.46 29.71, 18.16 19.5, 32.88 3.22 M4.57 37.13 C12.93 27.36, 21.52 18.1, 34.31 1.27 M6.89 40.86 C17.71 29.16, 25.95 18.56, 37 2.59 M5.72 41.97 C19.32 26.78, 30.82 12.46, 38.22 4.96 M8.44 42.56 C17.24 36.99, 25.47 25.58, 43.12 6.78 M9.28 43.31 C21.22 30.23, 33.19 15.94, 42.13 5.42 M11.52 45.35 C24.23 31.74, 39.32 16.12, 42.99 7.59 M11.97 46.22 C22.32 34.44, 34.21 19.67, 44.36 8.39 M12.79 51.17 C25.6 35.08, 39.72 19.95, 49.12 11.7 M13.51 51.22 C24.27 37.39, 36.57 24.79, 49.41 10.42 M17.49 53.13 C30.66 36.37, 43.85 21.18, 51.99 11.13 M18.89 50.66 C29.98 35.96, 44.55 22.27, 51.89 11.98 M24.01 50.66 C29.25 42.83, 36.45 34.23, 55.26 18.96 M23.67 52.54 C33.91 38.31, 44.87 26.29, 53.49 17.09 M26.4 53.52 C33.8 46.74, 40.05 41.71, 56.81 22.12 M28.15 52.41 C38.05 40.14, 48.71 29.31, 54.68 20.78 M34.17 52.56 C36.53 48.28, 41.52 40.28, 57.45 25.29 M31.95 52.86 C39.76 45.34, 46.32 37.28, 55.18 26.86 M42.77 48.37 C48.18 42.3, 50.71 37.94, 57.3 28.39 M42.2 49.95 C46.89 43.34, 51.59 36.75, 57.05 30.13"
           stroke="#228be6"
           stroke-width="0.5"
           fill="none"
           id="path74" />
        <path
           d="M15.15 2.84 C19.99 0.1, 27.22 -1.11, 32.96 0.18 C38.7 1.48, 45.83 5.9, 49.59 10.59 C53.34 15.29, 55.82 22.71, 55.51 28.36 C55.19 34.02, 51.78 40.45, 47.69 44.5 C43.6 48.56, 36.97 52.09, 30.99 52.7 C25.01 53.32, 16.86 51.36, 11.82 48.19 C6.77 45.02, 2.41 39.09, 0.7 33.68 C-1 28.26, -1.13 20.8, 1.61 15.68 C4.35 10.55, 14.5 5.19, 17.13 2.93 C19.76 0.67, 17.31 1.9, 17.38 2.11 M15.68 1.78 C20.58 -0.45, 28.31 0.57, 33.86 2.13 C39.41 3.69, 45.25 6.51, 48.99 11.15 C52.72 15.78, 56.88 24.26, 56.28 29.95 C55.69 35.64, 49.75 41.65, 45.42 45.28 C41.09 48.91, 35.94 51.24, 30.31 51.74 C24.69 52.23, 16.38 51.18, 11.66 48.23 C6.95 45.28, 3.27 39.48, 2.01 34.04 C0.74 28.6, 1.69 20.66, 4.08 15.6 C6.48 10.53, 14.5 5.59, 16.37 3.66 C18.24 1.73, 15.21 3.68, 15.31 4.02"
           stroke="#000000"
           stroke-width="1"
           fill="none"
           id="path76" />
      </g>
      <g
         transform="translate(136.25 14.351902173913004) rotate(0 95.5 13)"
         id="g82">
        <text
           x="0"
           y="18"
           font-family="Virgil, Segoe UI Emoji"
           font-size="20px"
           fill="#000000"
           text-anchor="start"
           style="white-space: pre;"
           direction="ltr"
           id="text80">Segmentation Model</text>
      </g>
    </g>
  </a>
  <g
     stroke-linecap="round"
     id="g96">
    <g
       transform="translate(712 235.75739635548143) rotate(0 27.6280902005106 0.16592723717306512)"
       id="g86">
      <path
         d="M-1.14 -0.84 C8.38 -1.2, 46.64 -0.97, 56.4 -1.04 M0.46 1.34 C9.88 1.63, 45.95 0.4, 55.4 0.11"
         stroke="#000000"
         stroke-width="1"
         fill="none"
         id="path84" />
    </g>
    <g
       transform="translate(712 235.75739635548143) rotate(0 27.6280902005106 0.16592723717306512)"
       id="g90">
      <path
         d="M27.77 10.43 C34.07 9.88, 39.97 6.21, 55.49 1.64 M29.53 11.58 C36.64 8.01, 43.04 5.73, 55.45 0.86"
         stroke="#000000"
         stroke-width="1"
         fill="none"
         id="path88" />
    </g>
    <g
       transform="translate(712 235.75739635548143) rotate(0 27.6280902005106 0.16592723717306512)"
       id="g94">
      <path
         d="M27.17 -8.88 C33.79 -4.84, 39.84 -3.92, 55.49 1.64 M28.92 -7.73 C36.27 -6.28, 42.82 -3.52, 55.45 0.86"
         stroke="#000000"
         stroke-width="1"
         fill="none"
         id="path92" />
    </g>
  </g>
  <g
     stroke-linecap="round"
     transform="translate(769.5 209.00135869565213) rotate(0 27.5 26.304347826086968)"
     id="g102">
    <path
       d="M2.94 14.48 C2.94 14.48, 2.94 14.48, 2.94 14.48 M2.94 14.48 C2.94 14.48, 2.94 14.48, 2.94 14.48 M1.4 19.1 C6.53 18.16, 9.17 15.2, 17.46 3.12 M3.39 20.41 C6.48 16.11, 10.29 12.66, 16.4 5.09 M1.72 28.75 C6.83 22.95, 9.98 14.57, 23.73 1.98 M0.95 28.24 C9.75 20.64, 15.91 12.17, 24.17 3.73 M3.68 33.56 C9.82 22.14, 20.48 13.87, 30.34 1.12 M2.13 33.26 C9.27 25.02, 17.45 16.3, 30.28 0.98 M2.6 36.45 C16.64 23.33, 29.34 7.58, 34.71 -0.78 M4.68 37.89 C16.1 24.45, 26.38 12.09, 35.66 0.56 M7.48 40.03 C14.55 31.88, 24.17 20.55, 37.96 3.67 M6.66 41.42 C13.67 32.14, 20.89 25.6, 38.03 3.18 M8.81 45.09 C19.96 29.75, 32.29 17.49, 44 5.07 M9.9 44.3 C19.18 33.82, 26.65 23.86, 41.65 5.77 M9.8 46.69 C17.83 38.8, 26.18 32.08, 45.48 7.65 M11.98 47.05 C20.98 36.08, 32.65 25.29, 45.06 7.67 M13.52 49.96 C25.2 37.5, 38.47 22.31, 49.67 10.26 M13.09 49.79 C24.84 38.6, 37.24 25.55, 49.58 10.46 M18.11 53.68 C29.35 38.6, 40.11 26.75, 53.58 13.73 M17.94 52.61 C31.72 37.05, 42.54 23.43, 52.23 13.03 M22.66 52.08 C35.34 41.45, 43.05 28.49, 53.18 19.15 M23.41 51.21 C29.21 45.06, 35.65 38.04, 53.64 16.68 M27.75 52.94 C36.7 44.34, 43.61 32.34, 54.57 23.16 M27.73 53.69 C36.43 41.49, 46.16 32.49, 54.95 22.23 M33.19 54.33 C42.5 41.5, 49.33 31.57, 57.81 25.32 M32 53.13 C39.26 45.1, 46.58 38.04, 56.34 26.07 M41.95 51.95 C46.45 42.45, 51.46 37.85, 56.88 31.64 M40.83 49.71 C44.86 43.64, 50.46 39.32, 56.69 31.56"
       stroke="#228be6"
       stroke-width="0.5"
       fill="none"
       id="path98" />
    <path
       d="M15.65 2.45 C20.69 -0.18, 29.43 -1.55, 34.99 -0.16 C40.54 1.23, 45.72 5.96, 48.99 10.78 C52.26 15.6, 54.99 23.04, 54.61 28.77 C54.23 34.49, 50.74 41.25, 46.71 45.15 C42.69 49.04, 36.26 51.55, 30.46 52.12 C24.66 52.69, 16.73 51.76, 11.92 48.56 C7.11 45.37, 3.13 38.61, 1.61 32.95 C0.1 27.28, -0.24 20.03, 2.84 14.59 C5.92 9.15, 16.81 2.48, 20.08 0.32 C23.35 -1.84, 22.42 1.04, 22.46 1.64 M16.18 1.6 C21.03 -0.83, 28.73 0.39, 34.54 1.8 C40.35 3.22, 47.82 5.46, 51.06 10.06 C54.31 14.66, 54.67 23.68, 54 29.41 C53.33 35.13, 51.08 40.32, 47.04 44.39 C43.01 48.46, 35.48 53.26, 29.8 53.81 C24.12 54.36, 17.94 50.83, 12.97 47.71 C8 44.58, 1.68 40.3, 0 35.06 C-1.68 29.82, 0.2 21.63, 2.88 16.26 C5.56 10.9, 14.03 4.83, 16.06 2.89 C18.09 0.95, 15.11 4.37, 15.07 4.62"
       stroke="#000000"
       stroke-width="1"
       fill="none"
       id="path100" />
  </g>
  <g
     stroke-linecap="round"
     id="g116">
    <g
       transform="translate(828.010765401355 234.68714366690892) rotate(0 30.091597763557502 0.13950874349833953)"
       id="g106">
      <path
         d="M-0.14 -1.1 C10.36 -1.31, 51.86 -0.29, 61.85 -0.08 M-1.67 0.93 C8.85 1.43, 50.73 1.31, 61.36 1.41"
         stroke="#000000"
         stroke-width="1"
         fill="none"
         id="path104" />
    </g>
    <g
       transform="translate(828.010765401355 234.68714366690892) rotate(0 30.091597763557502 0.13950874349833953)"
       id="g110">
      <path
         d="M31.29 13.02 C38.63 7.58, 44.75 7.04, 59.88 2.9 M33.45 11.53 C41.17 7.65, 50.95 4.46, 60.73 1.99"
         stroke="#000000"
         stroke-width="1"
         fill="none"
         id="path108" />
    </g>
    <g
       transform="translate(828.010765401355 234.68714366690892) rotate(0 30.091597763557502 0.13950874349833953)"
       id="g114">
      <path
         d="M31.36 -7.5 C38.88 -8.77, 44.99 -5.15, 59.88 2.9 M33.52 -8.99 C41.35 -6.32, 51.1 -2.96, 60.73 1.99"
         stroke="#000000"
         stroke-width="1"
         fill="none"
         id="path112" />
    </g>
  </g>
  <g
     transform="translate(738 182.90353260869563) rotate(0 63.5 13)"
     id="g120">
    <text
       x="0"
       y="18"
       font-family="Virgil, Segoe UI Emoji"
       font-size="20px"
       fill="#000000"
       text-anchor="start"
       style="white-space: pre;"
       direction="ltr"
       id="text118">OCR Records</text>
  </g>
  <g
     stroke-linecap="round"
     transform="translate(386.5 209.00135869565213) rotate(0 27.5 26.304347826086968)"
     id="g126">
    <path
       d="M11.98 3.79 C11.98 3.79, 11.98 3.79, 11.98 3.79 M11.98 3.79 C11.98 3.79, 11.98 3.79, 11.98 3.79 M1.6 23.27 C5.77 16.21, 12.22 9.6, 16.55 2.21 M2.38 20.79 C7.36 13.31, 15.66 6.56, 19.02 3.17 M2.58 27.34 C7.01 22.24, 13.14 16.95, 24.79 2.12 M1.35 27.94 C9.68 18.37, 15.9 11.09, 24.2 1.27 M1.16 33.58 C9.28 25.73, 19.17 13.41, 32.18 -1.5 M2.93 33.25 C12.36 20.96, 22.11 10.66, 30.65 -0.41 M5.03 38.85 C9.42 31.28, 16.53 20.81, 35.47 0.34 M3.89 37.65 C8.93 30.67, 17.06 24.19, 35.19 1.71 M6.35 40.65 C15.48 26.92, 28.28 15.78, 36.79 4.96 M5.33 41.27 C12.75 34.06, 19.47 25.52, 38 4.55 M7.7 45.44 C19.44 33.67, 27.84 22.65, 43.6 4.3 M9.47 43.39 C20.6 30.85, 30.27 18.57, 42.34 5.34 M13.69 44.71 C18.98 38.68, 28 27.74, 45.14 9.03 M13.12 45.35 C25.01 30.9, 37.33 15.6, 45.74 7.52 M14.23 49.23 C23.5 38.02, 30.32 31.64, 47.55 10.56 M15.6 48.4 C29.31 34.15, 41.54 18.58, 48.98 11.37 M15.65 50.97 C29.75 39.95, 39.55 27.5, 48.39 15.42 M17.71 52.42 C25.97 42.3, 34.17 32.71, 51.29 14.2 M23.77 52.27 C32.35 38.05, 44.41 27.14, 51.04 19.44 M23.57 52.75 C33.76 39.31, 44.05 26.66, 52.62 17.18 M27.21 53.33 C34.37 44.16, 40.06 37.29, 52.6 21.76 M27.77 52.48 C34.15 44.15, 42.25 36.6, 54.27 21.11 M31.75 53.09 C40.5 44.97, 46.46 37.27, 57 27.93 M32.37 52.95 C40.1 44.18, 45.87 37.87, 55.79 26.23 M38.15 53.21 C41.73 48.52, 47.28 44.07, 54.18 36.7 M36.64 54.52 C41.57 50.59, 43.49 45.87, 52.99 34.72"
       stroke="#228be6"
       stroke-width="0.5"
       fill="none"
       id="path122" />
    <path
       d="M30.03 0.22 C35.41 0.51, 42.37 4.22, 46.5 8.38 C50.62 12.55, 54.2 19.56, 54.79 25.23 C55.39 30.91, 53.4 38.15, 50.04 42.42 C46.68 46.7, 40.41 49.64, 34.65 50.88 C28.89 52.13, 20.99 52.11, 15.47 49.9 C9.96 47.69, 4.09 42.62, 1.56 37.62 C-0.96 32.62, -1.38 25.54, 0.34 19.91 C2.07 14.28, 6.61 6.97, 11.92 3.86 C17.23 0.76, 28.88 1.9, 32.2 1.26 C35.52 0.62, 31.9 -0.31, 31.87 0.01 M25.97 -1.16 C31.74 -1.44, 40.83 2.79, 45.52 6.68 C50.21 10.56, 52.94 16.7, 54.11 22.14 C55.27 27.59, 55.54 34.64, 52.52 39.35 C49.51 44.07, 41.77 48.7, 36.03 50.44 C30.29 52.18, 23.24 51.79, 18.1 49.76 C12.96 47.74, 8.36 43.1, 5.18 38.29 C2.01 33.49, -1.84 26.35, -0.96 20.96 C-0.09 15.57, 5.96 9.25, 10.44 5.97 C14.93 2.68, 23.17 2.02, 25.92 1.24 C28.67 0.47, 26.5 0.88, 26.95 1.34"
       stroke="#000000"
       stroke-width="1"
       fill="none"
       id="path124" />
  </g>
  <g
     stroke-linecap="round"
     id="g140">
    <g
       transform="translate(445.0163646371757 235.05740502372714) rotate(0 29.89156025900968 0.5976521801680406)"
       id="g130">
      <path
         d="M-1 0.24 C9.3 0.5, 50.66 0.33, 60.79 0.39 M0.67 -0.68 C10.97 -0.12, 50.57 1.44, 60.26 1.88"
         stroke="#000000"
         stroke-width="1"
         fill="none"
         id="path128" />
    </g>
    <g
       transform="translate(445.0163646371757 235.05740502372714) rotate(0 29.89156025900968 0.5976521801680406)"
       id="g134">
      <path
         d="M32.07 12.28 C37.73 8.82, 44.18 5.92, 61.16 1.62 M32.04 10.03 C42.7 7.08, 53.07 4.15, 59.58 2.6"
         stroke="#000000"
         stroke-width="1"
         fill="none"
         id="path132" />
    </g>
    <g
       transform="translate(445.0163646371757 235.05740502372714) rotate(0 29.89156025900968 0.5976521801680406)"
       id="g138">
      <path
         d="M32.93 -8.22 C38.21 -7.29, 44.47 -5.81, 61.16 1.62 M32.9 -10.47 C43.27 -5.42, 53.3 -0.36, 59.58 2.6"
         stroke="#000000"
         stroke-width="1"
         fill="none"
         id="path136" />
    </g>
  </g>
  <g
     transform="translate(361 130.90353260869563) rotate(0 49 39)"
     id="g148">
    <text
       x="49"
       y="18"
       font-family="Virgil, Segoe UI Emoji"
       font-size="20px"
       fill="#000000"
       text-anchor="middle"
       style="white-space: pre;"
       direction="ltr"
       id="text142">Baselines,</text>
    <text
       x="49"
       y="44"
       font-family="Virgil, Segoe UI Emoji"
       font-size="20px"
       fill="#000000"
       text-anchor="middle"
       style="white-space: pre;"
       direction="ltr"
       id="text144"> Regions,</text>
    <text
       x="49"
       y="70"
       font-family="Virgil, Segoe UI Emoji"
       font-size="20px"
       fill="#000000"
       text-anchor="middle"
       style="white-space: pre;"
       direction="ltr"
       id="text146">and Order</text>
  </g>
  <g
     stroke-linecap="round"
     id="g162">
    <g
       transform="translate(329.25 235.36053723195647) rotate(0 27.296384896213567 -0.05483071021734531)"
       id="g152">
      <path
         d="M-0.62 1.02 C8.46 0.64, 46.06 -1.11, 55.22 -1.13 M1.25 0.52 C10.09 0.74, 44.9 0.06, 54.12 -0.19"
         stroke="#000000"
         stroke-width="1"
         fill="none"
         id="path150" />
    </g>
    <g
       transform="translate(329.25 235.36053723195647) rotate(0 27.296384896213567 -0.05483071021734531)"
       id="g156">
      <path
         d="M29.97 9.4 C35.56 4.42, 48.23 1.37, 55.3 -1.4 M28.26 10.37 C35.79 6.81, 44.73 3.35, 53.77 -1.1"
         stroke="#000000"
         stroke-width="1"
         fill="none"
         id="path154" />
    </g>
    <g
       transform="translate(329.25 235.36053723195647) rotate(0 27.296384896213567 -0.05483071021734531)"
       id="g160">
      <path
         d="M29.55 -9.58 C35.48 -7.74, 48.3 -3.97, 55.3 -1.4 M27.84 -8.6 C35.5 -6.35, 44.57 -3.99, 53.77 -1.1"
         stroke="#000000"
         stroke-width="1"
         fill="none"
         id="path158" />
    </g>
  </g>
  <g
     stroke-linecap="round"
     id="g176">
    <g
       transform="translate(1095.5 236.67957568964545) rotate(0 29.6998823750705 -0.18125257827770724)"
       id="g166">
      <path
         d="M-0.68 -0.68 C9.2 -0.78, 49.98 -0.29, 60.08 -0.38 M1.16 1.58 C10.91 1.14, 49.96 -1.7, 59.71 -1.94"
         stroke="#000000"
         stroke-width="1"
         fill="none"
         id="path164" />
    </g>
    <g
       transform="translate(1095.5 236.67957568964545) rotate(0 29.6998823750705 -0.18125257827770724)"
       id="g170">
      <path
         d="M31.4 11.38 C44.19 7.07, 52.61 -0.49, 60.67 -0.96 M33.06 10.06 C40.03 6.13, 47.93 1.94, 59.52 -2.74"
         stroke="#000000"
         stroke-width="1"
         fill="none"
         id="path168" />
    </g>
    <g
       transform="translate(1095.5 236.67957568964545) rotate(0 29.6998823750705 -0.18125257827770724)"
       id="g174">
      <path
         d="M30.36 -8.78 C43.56 -5.76, 52.36 -6, 60.67 -0.96 M32.01 -10.09 C39.19 -8.02, 47.4 -6.22, 59.52 -2.74"
         stroke="#000000"
         stroke-width="1"
         fill="none"
         id="path172" />
    </g>
  </g>
  <g
     stroke-linecap="round"
     id="g190">
    <g
       transform="translate(414.4631785671114 264.47030684630363) rotate(0 234.7524400650114 52.753071848360605)"
       id="g180">
      <path
         d="M-1.09 0.92 C15.03 15.83, 40.93 73.33, 95.92 89.08 C150.92 104.83, 266.42 109.56, 328.86 95.4 C391.31 81.24, 447.01 19.55, 470.6 4.1 M0.54 0.36 C17.13 15.47, 43.69 74.31, 98.31 90.35 C152.93 106.39, 266.7 110.77, 328.27 96.62 C389.84 82.47, 444.22 21.1, 467.74 5.44"
         stroke="#000000"
         stroke-width="1"
         fill="none"
         id="path178" />
    </g>
    <g
       transform="translate(414.4631785671114 264.47030684630363) rotate(0 234.7524400650114 52.753071848360605)"
       id="g184">
      <path
         d="M454.12 30.3 C455.33 26.03, 459.36 21.27, 468.47 6.89 M452.81 32.2 C454.85 25.61, 460.07 19.9, 467.99 5.11"
         stroke="#000000"
         stroke-width="1"
         fill="none"
         id="path182" />
    </g>
    <g
       transform="translate(414.4631785671114 264.47030684630363) rotate(0 234.7524400650114 52.753071848360605)"
       id="g188">
      <path
         d="M441.02 14.51 C445.2 14, 452.26 12.89, 468.47 6.89 M439.72 16.4 C444.72 13.18, 452.85 10.97, 467.99 5.11"
         stroke="#000000"
         stroke-width="1"
         fill="none"
         id="path186" />
    </g>
  </g>
  <g
     stroke-linecap="round"
     transform="translate(1158 209.00135869565213) rotate(0 27.5 26.304347826086968)"
     id="g196">
    <path
       d="M1.78 14.8 C1.78 14.8, 1.78 14.8, 1.78 14.8 M1.78 14.8 C1.78 14.8, 1.78 14.8, 1.78 14.8 M0.16 21.44 C5.38 15.7, 9.08 14.15, 16.17 4.64 M1.3 22 C5.8 16.09, 10.64 10.99, 15.25 3.75 M-0.51 26.53 C9.31 19.36, 17.34 8, 22.52 3.8 M-0.33 27.7 C7.89 19.35, 16.77 10.1, 23.34 1.76 M-0.92 34.09 C7.51 27.96, 15.47 17.93, 27.48 3.3 M1.43 33.14 C6.55 25.98, 12.95 18.76, 28.53 1.51 M5.75 36.47 C11.27 30.32, 17.96 20.75, 35 0.27 M3.29 36.42 C15.21 23.64, 26.31 13.37, 35.05 1.66 M5.84 41.64 C13.29 31.97, 23.65 23.5, 40.2 4.47 M5.47 40.33 C13.66 32.15, 19.65 25.26, 39.21 3.92 M9.6 44.67 C21.12 27.24, 32.07 14.93, 43.06 4.85 M7.79 42.41 C20.1 29.51, 33.59 14.19, 42.04 5.46 M13.04 47.35 C20.82 34.03, 32.05 21.11, 45.66 5.84 M12.41 46.39 C19.32 35.45, 27.96 27.39, 46.15 7.76 M15.79 49.71 C26.45 36.16, 37.68 21.06, 48.01 8.78 M13.37 48.39 C25.19 36.18, 36.55 22.48, 48.43 9.85 M16.8 50.39 C24.66 41.87, 31.3 36.33, 53.81 10.83 M19.13 50.98 C32.53 35.75, 46.08 19.28, 51.61 11.92 M21.62 49.62 C29.17 44.73, 38.29 37.68, 52.27 16.14 M23.62 50.95 C30.95 41.7, 39.99 31.24, 52.79 16.22 M27.48 52.15 C33.51 43.66, 40.25 34.33, 55.94 18.83 M28.08 51.88 C38.71 40.09, 49.27 29.34, 55.08 20.73 M30.44 53.68 C41.73 42.35, 46.83 36.93, 54.48 26.65 M32 53.35 C39.9 42.44, 48.55 33.86, 56.21 24.57 M40.42 49.49 C45.89 40.61, 53.76 33.61, 58.54 29.69 M40.97 47.27 C47.74 41.15, 52.37 36.06, 58.07 29.38"
       stroke="#228be6"
       stroke-width="0.5"
       fill="none"
       id="path192" />
    <path
       d="M15.37 3.52 C20.34 0.71, 27.97 -1.23, 33.76 -0.13 C39.54 0.97, 46.37 5.55, 50.07 10.12 C53.77 14.68, 56.5 21.71, 55.95 27.27 C55.4 32.82, 51.09 39.34, 46.79 43.44 C42.5 47.54, 35.91 51.14, 30.2 51.89 C24.49 52.64, 17.49 51.08, 12.56 47.93 C7.62 44.78, 2.42 38.48, 0.6 33 C-1.23 27.51, -1.46 20.22, 1.58 15.02 C4.62 9.81, 14.84 4.09, 18.83 1.77 C22.83 -0.55, 25.4 0.78, 25.54 1.11 M26.27 0.95 C31.52 0.1, 38.78 0.87, 43.6 4.35 C48.41 7.82, 53.84 16, 55.16 21.8 C56.48 27.6, 54.3 34.18, 51.51 39.16 C48.72 44.14, 43.63 49.59, 38.4 51.7 C33.17 53.8, 26.05 53.6, 20.11 51.8 C14.18 50, 5.93 45.81, 2.78 40.92 C-0.37 36.03, 0.16 28.33, 1.2 22.47 C2.23 16.6, 4.74 9.34, 9.01 5.72 C13.29 2.1, 24.04 1.52, 26.85 0.76 C29.67 0, 25.85 0.62, 25.9 1.14"
       stroke="#000000"
       stroke-width="1"
       fill="none"
       id="path194" />
  </g>
  <g
     transform="translate(1129.5 181.90353260869563) rotate(0 56 13)"
     id="g200">
    <text
       x="0"
       y="18"
       font-family="Virgil, Segoe UI Emoji"
       font-size="20px"
       fill="#000000"
       text-anchor="start"
       style="white-space: pre;"
       direction="ltr"
       id="text198">Output File</text>
  </g>
  <g
     stroke-linecap="round"
     id="g214">
    <g
       transform="translate(989.1937300033928 88.89665293610165) rotate(0 0.25877789367325477 32.096226153269896)"
       id="g204">
      <path
         d="M0.67 -0.36 C0.62 10.3, -0.58 53.53, -0.92 64.24 M-0.44 -1.6 C-0.04 9.25, 1.2 54.68, 1.44 65.79"
         stroke="#000000"
         stroke-width="1"
         fill="none"
         id="path202" />
    </g>
    <g
       transform="translate(989.1937300033928 88.89665293610165) rotate(0 0.25877789367325477 32.096226153269896)"
       id="g208">
      <path
         d="M-10.13 36.73 C-6.72 42.84, -4.59 53.24, 2.05 65.09 M-8.54 37.65 C-7.88 44.21, -3.7 50.14, 0.65 65.52"
         stroke="#000000"
         stroke-width="1"
         fill="none"
         id="path206" />
    </g>
    <g
       transform="translate(989.1937300033928 88.89665293610165) rotate(0 0.25877789367325477 32.096226153269896)"
       id="g212">
      <path
         d="M10.38 36.21 C8.74 42.57, 5.82 53.09, 2.05 65.09 M11.98 37.14 C7.91 43.95, 7.37 49.99, 0.65 65.52"
         stroke="#000000"
         stroke-width="1"
         fill="none"
         id="path210" />
    </g>
  </g>
  <g
     stroke-linecap="round"
     transform="translate(962.5 36.39130434782612) rotate(0 27.5 26.304347826086968)"
     id="g220">
    <path
       d="M9.46 6.9 C9.46 6.9, 9.46 6.9, 9.46 6.9 M9.46 6.9 C9.46 6.9, 9.46 6.9, 9.46 6.9 M2.6 22.53 C4.27 18.06, 11.31 13.71, 18.82 5.77 M0.46 21.98 C5.58 17.91, 8.99 13.78, 17.93 3.38 M3.3 27.95 C8.77 19.44, 17.64 9.55, 22.77 1.32 M1.74 28.28 C9.43 18.74, 17.02 10.75, 24.61 1.39 M3.72 34.34 C10.61 22.13, 19.28 13.46, 29.43 1.61 M3.76 31.92 C10.83 25.09, 17.27 16.99, 30.93 1.32 M2.18 41.26 C11.61 31.16, 17.5 18.93, 35.67 3.02 M1.87 39.01 C11.05 29.69, 18.72 20.6, 34.12 2.51 M7.37 39.7 C15.48 32.05, 27.05 20.76, 38.89 2.97 M7.15 40.65 C18.39 28.55, 30.24 14.02, 37.65 3.92 M8.55 43.57 C21.74 30.71, 29.81 20.78, 44.28 4.57 M10.19 44.13 C18.88 32.13, 28.52 21.17, 43.28 5.51 M11.79 46.14 C18.42 36.44, 26.53 26.95, 47.3 8.63 M12.13 46.19 C18.74 37.36, 26.32 29.96, 47.18 8.05 M13.96 49.86 C27.33 33.27, 39.52 21.14, 46.85 11.45 M16.31 48.64 C27.44 33.41, 40.64 20.62, 47.89 9.74 M17.86 50.5 C28.51 39.21, 42.62 26.19, 50.45 14.44 M18.2 51.21 C28.95 38.26, 40.59 27.45, 51.19 13.51 M25.42 50.09 C34.38 39.61, 42.64 30.43, 51.45 18.38 M24.2 50.36 C30.42 42.22, 38.03 33.93, 52.04 18.15 M30.25 52.62 C34.11 44.73, 38.41 37.52, 56.23 22.76 M29.07 51.69 C37.84 40.72, 45.85 32.1, 55.44 21.39 M36.13 51.49 C41.19 44.3, 46.83 36.54, 57.35 24.1 M33.98 51.23 C42.99 41.68, 53.04 31.33, 58.41 25.01 M36.26 54.16 C43.32 46.83, 52.12 37.49, 55.51 33.26 M38.57 52.79 C42.22 49.44, 46.07 45.77, 55.56 31.95"
       stroke="#228be6"
       stroke-width="0.5"
       fill="none"
       id="path216" />
    <path
       d="M28.64 0.31 C34.34 -0.04, 40.67 1.92, 45.06 5.64 C49.45 9.37, 53.81 17.02, 54.99 22.66 C56.17 28.3, 55.37 34.75, 52.15 39.5 C48.92 44.24, 41.25 49.29, 35.64 51.11 C30.03 52.93, 23.97 52.44, 18.48 50.41 C13 48.38, 5.72 43.66, 2.74 38.93 C-0.23 34.2, -0.53 27.44, 0.64 22.04 C1.8 16.65, 4.92 10.21, 9.74 6.58 C14.56 2.95, 25.81 1.27, 29.57 0.27 C33.32 -0.72, 32.32 0.35, 32.26 0.63 M30.15 1.14 C35.69 1.28, 42.53 4.47, 46.9 8.4 C51.26 12.33, 56.09 19.3, 56.36 24.73 C56.63 30.16, 52.28 36.55, 48.51 40.97 C44.73 45.39, 39.31 49.8, 33.72 51.25 C28.13 52.7, 20.39 52.23, 14.97 49.67 C9.54 47.11, 3.58 40.91, 1.15 35.89 C-1.29 30.87, -1.6 25.06, 0.35 19.56 C2.3 14.06, 7.7 6.21, 12.86 2.88 C18.01 -0.46, 28.25 -0.04, 31.26 -0.44 C34.27 -0.84, 30.97 -0.06, 30.94 0.48"
       stroke="#000000"
       stroke-width="1"
       fill="none"
       id="path218" />
  </g>
  <g
     transform="translate(905.5 10) rotate(0 85 13)"
     id="g224">
    <text
       x="0"
       y="18"
       font-family="Virgil, Segoe UI Emoji"
       font-size="20px"
       fill="#000000"
       text-anchor="start"
       style="white-space: pre;"
       direction="ltr"
       id="text222">Output Template</text>
  </g>
  <g
     stroke-linecap="round"
     transform="translate(16.5 209.00135869565213) rotate(0 27.5 26.304347826086968)"
     id="g230">
    <path
       d="M1.55 17.25 C1.55 17.25, 1.55 17.25, 1.55 17.25 M1.55 17.25 C1.55 17.25, 1.55 17.25, 1.55 17.25 M1.89 23.79 C3.54 19.92, 9.04 14.16, 17.77 3.77 M1.46 22.86 C4.79 19.2, 6.55 16.81, 16.96 5.9 M2.81 28.24 C6.06 26.48, 11.48 21.02, 21.79 2.77 M1.79 30.82 C6.7 21.82, 15.14 14.67, 23.39 3.67 M0.92 34.63 C9.7 23.18, 21.08 13.98, 28.46 4.68 M1.96 35.67 C13.45 23.12, 24.24 8.73, 30.43 2.25 M3.36 35.64 C10.3 31.72, 15.97 23.46, 37.01 3.07 M5.54 36.7 C10.98 30.03, 17.9 22.7, 36.19 2.95 M7.56 39.69 C15.37 29.86, 26.69 19.04, 37.93 2.9 M6.7 41.1 C16.22 31.47, 23.52 22.84, 38.34 5.13 M9.64 42.55 C16 36.58, 24.52 28.37, 40.65 5.18 M9.37 45.27 C18.47 36.18, 25.38 26.46, 41.65 7.5 M12.24 49.07 C25.06 34.24, 35.1 18.31, 46.19 8.2 M12.88 47.3 C23.84 33.48, 36.72 19.77, 45.33 9.14 M15.7 50.87 C22.68 43.35, 30.08 33.57, 49.54 9.7 M15.91 50.33 C26.79 36.83, 39.57 23.5, 51.26 10.34 M21.19 52.26 C31.13 38.91, 42.76 24, 52.24 16.09 M19.37 51.25 C27.26 43.07, 33.76 34.49, 51.34 13.56 M22.54 51.71 C33.45 39.16, 43.08 30.87, 54.64 17.29 M23.05 51.81 C33.5 41.26, 41.49 30.72, 53.51 18.97 M30.01 54.49 C33.08 45.56, 40.25 39.87, 53.31 24.28 M29.18 52.08 C34.9 44.69, 41.85 36.27, 55.93 21.76 M32.16 52.42 C39.1 48.15, 45.71 39.23, 57.36 28.97 M33.04 53.81 C40.06 46.08, 44.96 38.95, 57.12 26.68 M42.27 49.15 C45.47 44.6, 50.31 41.89, 50.35 40.15 M44.01 48.77 C45.62 46.23, 46.84 44.89, 51.72 38.71"
       stroke="#228be6"
       stroke-width="0.5"
       fill="none"
       id="path226" />
    <path
       d="M15.34 3.48 C20 0.77, 27.38 -0.57, 33.07 0.38 C38.76 1.33, 45.74 4.81, 49.49 9.18 C53.24 13.55, 55.79 20.85, 55.58 26.6 C55.37 32.35, 52.21 39.31, 48.25 43.66 C44.29 48.01, 37.58 51.75, 31.82 52.7 C26.06 53.65, 18.84 52.54, 13.7 49.35 C8.56 46.17, 2.99 38.95, 0.96 33.61 C-1.07 28.26, -1.57 22.88, 1.51 17.3 C4.59 11.72, 15.16 2.91, 19.45 0.14 C23.75 -2.63, 26.87 0.22, 27.27 0.66 M24.56 -0.57 C30.06 -1.37, 39.42 1.3, 44.24 4.54 C49.06 7.77, 52.24 13.48, 53.51 18.84 C54.77 24.21, 54.21 31.53, 51.84 36.71 C49.46 41.89, 44.66 47.39, 39.26 49.93 C33.85 52.46, 25.2 53.17, 19.41 51.9 C13.62 50.64, 7.81 46.85, 4.53 42.33 C1.26 37.81, -0.77 30.79, -0.23 24.79 C0.3 18.79, 3.55 10.46, 7.74 6.32 C11.93 2.18, 22.18 0.88, 24.92 -0.06 C27.67 -1, 24.38 0.09, 24.23 0.68"
       stroke="#000000"
       stroke-width="1"
       fill="none"
       id="path228" />
  </g>
  <g
     stroke-linecap="round"
     id="g244">
    <g
       transform="translate(74.99918586833832 235.55884404532367) rotate(0 30.01726930782914 -0.39437253689573026)"
       id="g234">
      <path
         d="M0.72 -1.17 C10.65 -1.47, 50.42 -1.73, 60.39 -1.58 M-0.36 0.84 C9.39 0.64, 49.68 0.04, 59.78 -0.48"
         stroke="#000000"
         stroke-width="1"
         fill="none"
         id="path232" />
    </g>
    <g
       transform="translate(74.99918586833832 235.55884404532367) rotate(0 30.01726930782914 -0.39437253689573026)"
       id="g238">
      <path
         d="M30.09 11.66 C40.86 7.71, 53.37 1.81, 59.37 0.07 M32.39 10.29 C38.12 8.89, 43.99 7.1, 59.42 -1.23"
         stroke="#000000"
         stroke-width="1"
         fill="none"
         id="path236" />
    </g>
    <g
       transform="translate(74.99918586833832 235.55884404532367) rotate(0 30.01726930782914 -0.39437253689573026)"
       id="g242">
      <path
         d="M29.46 -8.77 C40.52 -5.18, 53.25 -3.54, 59.37 0.07 M31.77 -10.14 C37.75 -7.41, 43.74 -5.08, 59.42 -1.23"
         stroke="#000000"
         stroke-width="1"
         fill="none"
         id="path240" />
    </g>
  </g>
  <g
     transform="translate(10 182.05570652173913) rotate(0 34 13)"
     id="g248">
    <text
       x="34"
       y="18"
       font-family="Virgil, Segoe UI Emoji"
       font-size="20px"
       fill="#000000"
       text-anchor="middle"
       style="white-space: pre;"
       direction="ltr"
       id="text246">Image </text>
  </g>
</svg>
